<svg id="Layer_1" xmlns="http://www.w3.org/2000/svg" viewBox="0 0 76 76"><style>.st0{fill:#f5bd48}</style><path class="st0" d="M1.3 6.7c5.4-2.2 10.7-3.2 16-4.3C22.5 1.6 27.8.8 32.9.6 38.1.3 43.2.3 48.3.5c5.1.2 10.2.7 15.2 1.4h.1c7.5 1 12.7 7.8 11.8 15.2 0 .2-.1.5-.1.7-.9 4.9-1.9 9.9-3.2 14.7-1.3 4.9-2.8 9.7-4.6 14.5-1.8 4.8-4 9.5-6.3 14.2-2.6 4.7-5.1 9.3-8.8 13.8l-.2.3c-.3.3-.7.4-1 .1-.2-.2-.3-.4-.3-.7 1.4-10 2.9-19.9 4.5-29.8l4.8-29.8 1.3 1.8-30.2-4.3C21.2 11.4 11.1 9.8 1.1 8.2c-.4-.1-.7-.5-.6-.8 0-.3.2-.5.4-.5l.4-.2z"/></svg>