<svg id="Layer_1" xmlns="http://www.w3.org/2000/svg" viewBox="0 0 240 66"><style>.st0{fill:#485da7}.st1{fill:#f5bd48}</style><path class="st0" d="M76.9 23.8h1.6V10.1h-1.6V7.4h13.8v2.7h-8.6V15h6.8v2.8h-6.8v6.1H84v2.6h-7.1v-2.7zM92.7 16.9c0-.2-.1-.3-.2-.4-.1-.1-.2-.1-.4-.1-.1 0-.2 0-.4.1s-.3.1-.5.3l-1-1.7c.6-.5 1.2-.8 1.8-1.1.6-.2 1.1-.3 1.7-.3.5 0 .9.1 1.3.2.3.2.6.4.8.6.2.3.3.6.4.9.1.3.1.7.1 1.1l-.1 5.1c0 .7.1 1.3.4 1.7.3.5.8.7 1.5.7.5 0 .9-.1 1.3-.3.4-.2.6-.5.9-.8.2-.3.4-.8.5-1.2.1-.5.1-1 .1-1.6v-6.4h3.5v9.7c0 .2.1.3.2.4.1.1.2.1.4.1.1 0 .2 0 .4-.1s.3-.1.5-.3l.9 1.7c-.4.3-.9.5-1.4.8-.5.3-1.1.4-1.8.4-.5 0-1-.2-1.5-.5s-.7-.9-.8-1.6c-.4.6-.9 1.2-1.6 1.7-.7.5-1.6.7-2.7.7-1.6 0-2.7-.4-3.4-1.3-.7-.8-1-2-1-3.4l.1-5.1zM109.6 16.8c0-.2-.1-.3-.2-.4-.1-.1-.2-.1-.4-.1-.1 0-.2 0-.4.1s-.3.1-.5.3l-.9-1.7c.4-.3.9-.5 1.4-.8.5-.3 1.1-.4 1.8-.4.5 0 1 .2 1.5.5s.7.9.8 1.6c.4-.6.9-1.2 1.6-1.7.7-.5 1.6-.7 2.7-.7 1.6 0 2.7.4 3.4 1.3.7.8 1 2 1 3.4l-.1 5.4c0 .2.1.3.2.4.1.1.2.1.4.1.1 0 .2 0 .4-.1s.3-.1.5-.3l1 1.7c-.6.5-1.2.8-1.8 1.1-.6.2-1.1.3-1.7.3-.5 0-.9-.1-1.3-.2-.3-.2-.6-.4-.8-.6-.2-.3-.3-.6-.4-.9-.1-.3-.1-.7-.1-1.1l.1-5.2c0-.7-.1-1.3-.4-1.7-.3-.5-.8-.7-1.5-.7-.5 0-1 .1-1.3.3-.3.2-.6.5-.8.8-.2.3-.4.8-.5 1.2-.1.5-.1 1-.1 1.6v6.4h-3.5v-9.9zM136.6 25.8c-.5.2-1.1.4-1.9.6-.8.2-1.7.3-2.8.3-1.2 0-2.2-.2-3-.5-.8-.3-1.5-.8-2.1-1.4-.5-.6-.9-1.3-1.2-2.1-.3-.8-.4-1.7-.4-2.7 0-.9.1-1.8.4-2.7.3-.8.7-1.5 1.2-2.1.5-.6 1.2-1.1 2-1.4.8-.3 1.7-.5 2.8-.5 2 0 3.5.6 4.4 1.7 1 1.1 1.4 2.7 1.4 4.6v1.6h-8.7c.1.8.4 1.5 1 2.1s1.5.9 2.7.9c.8 0 1.5-.1 2.1-.2.7-.1 1.4-.4 2.1-.7v2.5zm-2.5-6.7c0-1.2-.3-2.1-.7-2.6-.4-.6-1.1-.9-1.9-.9-.8 0-1.5.3-1.9.9-.5.6-.8 1.5-.8 2.6h5.3zM141.2 16.8c0-.2-.1-.3-.2-.4-.1-.1-.2-.1-.4-.1-.1 0-.2 0-.4.1s-.3.1-.5.3l-.9-1.7c.4-.3.9-.5 1.4-.8.5-.3 1.1-.4 1.8-.4.3 0 .5 0 .8.1.3.1.5.2.7.5.2.2.4.5.5.9.1.4.2.9.2 1.5.4-1.1.9-1.9 1.6-2.4.7-.5 1.5-.8 2.4-.8.5 0 .9.1 1.3.2s.7.3.9.5l-.8 2.9-.6-.3c-.2-.1-.6-.2-1.1-.2-.6 0-1.1.1-1.5.4-.4.3-.7.7-1 1.1-.3.5-.5 1-.6 1.5-.1.5-.2 1.1-.2 1.5v5.4h-3.5v-9.8zM151.9 14.1c.6-.2 1.3-.4 2.1-.6.8-.2 1.6-.2 2.4-.2 2 0 3.4.4 4.3 1.3s1.4 2.2 1.4 4.1v4.7c0 .2.1.3.2.4.1.1.2.1.4.1.1 0 .2 0 .4-.1s.3-.1.5-.2l1 1.7c-.5.4-1 .7-1.5 1-.5.2-1 .4-1.5.4-.6 0-1.1-.2-1.6-.5-.4-.3-.6-.8-.7-1.4-.3.6-.8 1.1-1.5 1.4-.7.4-1.5.6-2.5.6-1.6 0-2.8-.4-3.6-1.2-.9-.8-1.3-1.9-1.3-3.3 0-1.3.4-2.4 1.3-3.2.9-.8 2.1-1.1 3.5-1.1.8 0 1.5.1 2.1.4l1.4.7v-.8c0-.9-.3-1.6-.8-2-.5-.4-1.2-.6-2.1-.6-.6 0-1.2 0-1.7.1s-1.1.2-1.7.4l-.5-2.1zm1.9 8.3c0 .6.2 1.1.6 1.4.4.4 1 .6 1.9.6.7 0 1.3-.2 1.8-.5.4-.4.7-.9.7-1.5s-.2-1.1-.6-1.5c-.4-.4-1.1-.6-2-.6-.7 0-1.3.2-1.7.6-.5.4-.7.9-.7 1.5zM167 9.1c0-.2-.1-.3-.2-.4-.1-.1-.2-.1-.4-.1-.1 0-.2 0-.4.1s-.3.1-.5.3l-1-1.7c.5-.4 1.1-.7 1.7-1 .6-.3 1.1-.4 1.7-.4.5 0 .9.1 1.3.2.3.2.6.4.8.6.2.3.3.6.4.9.1.3.1.7.1 1.1v14.6c0 .2.1.3.2.4.1.1.2.1.4.1.1 0 .2 0 .4-.1s.3-.1.5-.3l1 1.7c-.7.5-1.3.8-1.8 1.1-.5.2-1.1.3-1.6.3s-.9-.1-1.3-.2c-.3-.2-.6-.4-.8-.6-.2-.3-.3-.6-.4-.9-.1-.3-.1-.7-.1-1.1V9.1zM182 23.8h1.6V10.1H182V7.4h8.1c1 0 2 .1 2.8.4.9.3 1.6.6 2.2 1.1.6.5 1.1 1.1 1.4 1.8.3.7.5 1.5.5 2.4 0 .9-.2 1.7-.5 2.4s-.8 1.3-1.4 1.8c-.6.5-1.3.8-2.2 1.1-.9.2-1.8.3-2.8.3h-3v5h1.8v2.6H182v-2.5zm8.2-7.7c2.1 0 3.2-1 3.2-2.9 0-.9-.3-1.7-.8-2.2-.5-.5-1.3-.8-2.4-.8h-3.1v6h3.1zM200.2 9.1c0-.2-.1-.3-.2-.4-.1-.1-.2-.1-.4-.1-.1 0-.2 0-.4.1s-.3.1-.5.3l-1-1.7c.5-.4 1.1-.7 1.7-1 .6-.3 1.1-.4 1.7-.4.5 0 .9.1 1.3.2.3.2.6.4.8.6.2.3.3.6.4.9.1.3.1.7.1 1.1v14.6c0 .2.1.3.2.4.1.1.2.1.4.1.1 0 .2 0 .4-.1s.3-.1.5-.3l1 1.7c-.7.5-1.3.8-1.8 1.1-.5.2-1.1.3-1.6.3s-.9-.1-1.3-.2c-.3-.2-.6-.4-.8-.6-.2-.3-.3-.6-.4-.9-.1-.3-.1-.7-.1-1.1V9.1zM209 14.1c.6-.2 1.3-.4 2.1-.6.8-.2 1.6-.2 2.4-.2 2 0 3.4.4 4.3 1.3.9.8 1.4 2.2 1.4 4.1v4.7c0 .2.1.3.2.4.1.1.2.1.4.1.1 0 .2 0 .4-.1s.3-.1.5-.2l1 1.7c-.5.4-1 .7-1.5 1-.5.2-1 .4-1.5.4-.6 0-1.1-.2-1.6-.5-.4-.3-.6-.8-.7-1.4-.3.6-.8 1.1-1.5 1.4-.7.4-1.5.6-2.5.6-1.6 0-2.8-.4-3.6-1.2-.9-.8-1.3-1.9-1.3-3.3 0-1.3.4-2.4 1.3-3.2.9-.8 2.1-1.1 3.5-1.1.8 0 1.5.1 2.1.4l1.4.7v-.8c0-.9-.3-1.6-.8-2-.5-.4-1.2-.6-2.1-.6-.6 0-1.2 0-1.7.1s-1.1.2-1.7.4l-.5-2.1zm1.9 8.3c0 .6.2 1.1.6 1.4.4.4 1 .6 1.9.6.7 0 1.3-.2 1.8-.5.4-.4.7-.9.7-1.5s-.2-1.1-.6-1.5c-.4-.4-1.1-.6-2-.6-.7 0-1.3.2-1.7.6-.5.4-.7.9-.7 1.5zM224.5 16.8c0-.2-.1-.3-.2-.4-.1-.1-.2-.1-.4-.1-.1 0-.2 0-.4.1s-.3.1-.5.3l-.9-1.7c.4-.3.9-.5 1.4-.8.5-.3 1.1-.4 1.8-.4.5 0 1 .2 1.5.5s.7.9.8 1.6c.4-.6.9-1.2 1.6-1.7.7-.5 1.6-.7 2.7-.7 1.6 0 2.7.4 3.4 1.3s1 2 1 3.4l-.1 5.4c0 .2.1.3.2.4.1.1.2.1.4.1.1 0 .2 0 .4-.1s.3-.1.5-.3l1 1.7c-.6.5-1.2.8-1.8 1.1-.6.2-1.1.3-1.7.3-.5 0-.9-.1-1.3-.2-.3-.2-.6-.4-.8-.6-.2-.3-.3-.6-.4-.9-.1-.3-.1-.7-.1-1.1l.1-5.2c0-.7-.1-1.3-.4-1.7-.3-.5-.8-.7-1.5-.7-.5 0-1 .1-1.3.3-.3.2-.6.5-.8.8-.2.3-.4.8-.5 1.2-.1.5-.1 1-.1 1.6v6.4h-3.5v-9.9zM86.5 57.1c-1.6 0-2.9-.3-4.1-.8-1.2-.5-2.2-1.2-3-2.1-.8-.9-1.4-2-1.8-3.2-.4-1.2-.6-2.5-.6-3.9s.2-2.7.6-3.9c.4-1.2 1-2.3 1.8-3.2.8-.9 1.8-1.6 3-2.1s2.6-.8 4.1-.8c1.6 0 2.9.3 4.1.8 1.2.5 2.2 1.2 3 2.1.8.9 1.4 2 1.8 3.2.4 1.2.6 2.5.6 3.9s-.2 2.7-.6 3.9c-.4 1.2-1 2.3-1.8 3.2-.8.9-1.8 1.6-3 2.1s-2.6.8-4.1.8zm0-2.9c1 0 1.9-.2 2.6-.6.7-.4 1.3-.9 1.7-1.6.4-.7.8-1.4 1-2.3.2-.9.3-1.8.3-2.7 0-.9-.1-1.9-.3-2.7-.2-.9-.5-1.6-1-2.3-.4-.7-1-1.2-1.7-1.6-.7-.4-1.6-.6-2.6-.6s-1.9.2-2.6.6c-.7.4-1.3.9-1.7 1.6-.4.7-.8 1.4-1 2.3-.2.9-.3 1.8-.3 2.7 0 .9.1 1.9.3 2.7.2.9.5 1.6 1 2.3.4.7 1 1.2 1.7 1.6.7.4 1.6.6 2.6.6zM99.6 46.9c0-.2-.1-.3-.2-.4-.1-.1-.2-.1-.4-.1-.3 0-.6.1-.9.3l-.9-1.7c.4-.3.9-.6 1.4-.8.5-.3 1.1-.4 1.7-.4.3 0 .5 0 .8.1.3.1.5.2.7.3.2.2.4.4.5.6.1.3.2.6.3 1.1.4-.8 1-1.3 1.7-1.8.7-.4 1.7-.7 2.9-.7.9 0 1.7.2 2.4.5s1.3.8 1.7 1.4c.5.6.8 1.3 1 2.1.2.8.3 1.7.3 2.6 0 1-.1 1.9-.4 2.8-.3.8-.6 1.5-1.1 2.1-.5.6-1.1 1.1-1.8 1.4-.7.3-1.5.5-2.4.5-1 0-1.8-.2-2.5-.6-.6-.4-1.2-.8-1.5-1.3v7.7h-3.4V46.9zm6.6 7.3c1 0 1.7-.3 2.2-1 .4-.7.6-1.7.6-3 0-.5 0-1-.1-1.5s-.3-.9-.5-1.3-.5-.7-.9-.9c-.3-.2-.8-.3-1.3-.3s-1 .1-1.4.3c-.4.2-.7.5-1 .9-.3.4-.5.8-.6 1.3-.1.5-.2 1-.2 1.5 0 .6.1 1.1.2 1.6s.3.9.6 1.3.6.6 1 .9c.4.1.8.2 1.4.2zM116.5 46.3h-2.4v-2.6h2.4v-3.3h3.5v3.3h3.2v2.6H120v6.3c0 .6.1 1 .4 1.2.3.2.6.3 1 .3s.7 0 1.1-.1c.4-.1.8-.2 1.2-.4V56c-.3.2-.8.3-1.4.5-.6.2-1.2.3-1.9.3-1.2 0-2.2-.3-2.9-.9-.7-.6-1.1-1.6-1.1-3.1v-6.5zM126.6 47c0-.2-.1-.3-.2-.4-.1-.1-.2-.1-.4-.1-.1 0-.2 0-.4.1s-.3.1-.5.3l-1-1.7c.5-.4 1.1-.7 1.7-1 .6-.3 1.1-.4 1.7-.4.5 0 .9.1 1.3.2.3.2.6.4.8.6s.3.6.4.9c.1.3.1.7.1 1.1l-.1 6.8c0 .2.1.3.2.4.1.1.3.1.4.1.1 0 .2 0 .4-.1s.4-.1.5-.3l1 1.7c-.6.5-1.2.8-1.8 1.1-.6.2-1.1.3-1.7.3-.5 0-.9-.1-1.3-.2s-.6-.4-.8-.6c-.2-.3-.3-.6-.4-.9-.1-.3-.1-.7-.1-1.1l.2-6.8zm-.8-7.3c0-.6.2-1.1.6-1.5.4-.4.9-.6 1.5-.6s1.1.2 1.5.6c.4.4.6.9.6 1.5s-.2 1.1-.6 1.5c-.4.4-.9.6-1.5.6s-1.1-.2-1.5-.6c-.4-.4-.6-.9-.6-1.5zM140.5 56.9c-2.2 0-3.8-.6-4.9-1.8-1.1-1.2-1.7-2.9-1.7-4.9 0-1 .1-1.9.4-2.7.3-.8.7-1.5 1.2-2.1.5-.6 1.2-1.1 2.1-1.4.8-.3 1.8-.5 2.8-.5 1.1 0 2 .2 2.8.5.8.3 1.5.8 2.1 1.4.5.6 1 1.3 1.2 2.1s.4 1.7.4 2.7c0 2.1-.6 3.7-1.7 4.9-.9 1.2-2.5 1.8-4.7 1.8zm0-2.5c1.1 0 1.8-.4 2.3-1.2.5-.8.7-1.8.7-3.1 0-.6-.1-1.1-.2-1.6s-.3-1-.5-1.4c-.2-.4-.5-.7-.9-.9-.4-.2-.8-.3-1.4-.3-.5 0-1 .1-1.4.3-.4.2-.7.5-.9.9-.2.4-.4.8-.5 1.4-.1.5-.2 1.1-.2 1.6 0 1.3.2 2.3.7 3.1.5.8 1.3 1.2 2.3 1.2zM150.5 46.9c0-.2-.1-.3-.2-.4-.1-.1-.2-.1-.4-.1-.1 0-.2 0-.4.1s-.3.1-.5.3l-1-1.8c.4-.3.9-.5 1.4-.8.5-.3 1.1-.4 1.8-.4.5 0 1 .2 1.5.5s.7.9.8 1.6c.4-.6.9-1.2 1.6-1.7.7-.5 1.6-.7 2.7-.7 1.6 0 2.7.4 3.4 1.3.7.8 1 2 1 3.4l-.1 5.4c0 .2.1.3.2.4.1.1.2.1.4.1.1 0 .2 0 .4-.1s.3-.1.5-.3l1 1.7c-.6.5-1.2.8-1.8 1.1-.6.2-1.1.3-1.7.3-.5 0-.9-.1-1.3-.2-.3-.2-.6-.4-.8-.6-.2-.3-.3-.6-.4-.9-.1-.3-.1-.7-.1-1.1l.1-5.2c0-.7-.1-1.3-.4-1.7-.3-.5-.8-.7-1.5-.7-.5 0-1 .1-1.3.3-.3.2-.6.5-.8.8-.2.3-.4.8-.5 1.2-.1.5-.1 1-.1 1.6v6.4h-3.5v-9.8zM165.3 52.9c.7.3 1.4.6 2.3.9.8.3 1.7.4 2.6.4 1.5 0 2.3-.4 2.3-1.3 0-.5-.2-.9-.6-1s-1-.4-1.6-.5c-.7-.2-1.3-.3-1.9-.6-.6-.2-1.1-.5-1.6-.8-.4-.3-.8-.7-1-1.1s-.4-.9-.4-1.6c0-.7.1-1.3.4-1.8.3-.5.7-.9 1.2-1.3.5-.3 1.1-.6 1.7-.7.7-.2 1.3-.2 2.1-.2.6 0 1.4.1 2.2.3.8.2 1.7.4 2.5.8l-.9 2.2c-.6-.2-1.1-.4-1.7-.6-.6-.2-1.2-.2-2-.2-.4 0-.8 0-1 .1-.3.1-.5.2-.6.3-.2.1-.3.3-.3.4-.1.2-.1.3-.1.4 0 .2.1.4.3.6.2.2.4.3.7.4.3.1.6.2 1 .3.3.1.7.2 1 .2.6.1 1.2.3 1.7.5s1 .4 1.4.7c.4.3.7.7.9 1.1.2.4.3 1 .3 1.6 0 .8-.2 1.4-.5 2-.3.5-.7 1-1.2 1.3-.5.3-1.1.6-1.7.7-.6.2-1.3.2-1.9.2-1.3 0-2.3-.1-3.2-.4-.9-.2-1.5-.5-2.1-.7v-2.6z"/><path class="st1" d="M51.4 31.1c1.1.8 2 1.7 2.9 2.6.8.9 1.7 1.9 2.4 2.9s1.4 2 2 3.1c.6 1 1.2 2.1 1.7 3.2.8 1.6.1 3.6-1.6 4.4-1.1.5-2.2 1-3.3 1.4-1.1.4-2.3.8-3.5 1.1-1.2.3-2.4.5-3.7.7-1.3.1-2.5.3-3.9.1h-.1c-.1 0-.2-.1-.2-.2s0-.1.1-.1c2.1-1.1 4.3-2.1 6.5-3.2l6.5-3.1-.2.5-3-6.6-3-6.6c0-.1 0-.2.1-.2.2-.1.2-.1.3 0zM38.1 2.5c1.3-.5 2.6-.8 3.9-1 1.3-.2 2.5-.4 3.8-.4 1.2-.1 2.4-.1 3.6 0 1.2.1 2.5.2 3.7.3 1.8.2 3.1 1.9 2.8 3.7v.2c-.2 1.2-.5 2.4-.8 3.6-.3 1.2-.7 2.3-1.1 3.5-.4 1.2-1 2.3-1.5 3.4-.6 1.1-1.2 2.2-2.1 3.3l-.1.1c-.1.1-.2.1-.2 0 0 0-.1-.1-.1-.2.3-2.4.7-4.8 1.1-7.2l1.2-7.2.3.4-7.3-1c-2.4-.3-4.9-.7-7.3-1.1-.1 0-.2-.1-.1-.2l.2-.2zM10.5 38.7c-1.1-.8-2-1.7-2.9-2.7-.8-1-1.6-1.9-2.4-2.9-.7-1-1.4-2-2-3.1-.6-1.1-1.1-2.1-1.7-3.2-.8-1.6 0-3.6 1.6-4.4 1.1-.5 2.2-1 3.3-1.3 1.1-.4 2.3-.8 3.5-1 1.2-.3 2.4-.5 3.7-.7 1.3-.1 2.5-.2 3.9-.1h.1c.1 0 .2.1.2.2s0 .1-.1.1c-2.2 1.1-4.3 2.1-6.5 3.1l-6.5 3.1.3-.5 3 6.6c1 2.2 2 4.4 2.9 6.6 0 .1 0 .2-.1.2-.1.1-.1.1-.3 0zM35.1 55.5c-.8 1.2-1.7 2.1-2.7 3-1 .8-1.9 1.7-2.9 2.4s-2 1.4-3.1 2c-1.1.6-2.1 1.2-3.2 1.7-1.6.8-3.6.1-4.4-1.5-.5-1.1-1-2.2-1.4-3.4-.4-1.1-.8-2.3-1.1-3.5-.3-1.2-.5-2.4-.7-3.7-.1-1.3-.3-2.6-.2-4v-.1c0-.1.1-.2.2-.2s.1 0 .1.1l3.3 6.6 3.2 6.6-.5-.2 6.7-3.1c2.2-1.1 4.4-2.1 6.7-3.1.1 0 .2 0 .2.1-.1.1-.1.1-.2.3z"/></svg>