<?xml version="1.0" encoding="utf-8"?>
<!-- Generator: Adobe Illustrator 21.0.2, SVG Export Plug-In . SVG Version: 6.00 Build 0)  -->
<svg version="1.1" id="Layer_1" xmlns="http://www.w3.org/2000/svg" xmlns:xlink="http://www.w3.org/1999/xlink" x="0px" y="0px"
	 viewBox="0 0 240 66" style="enable-background:new 0 0 240 66;" xml:space="preserve">
<style type="text/css">
	.st0{fill:#485DA7;}
	.st1{fill:#F5BD48;}
</style>
<g>
	<path class="st0" d="M76.9,23.8h1.6V10.1h-1.6V7.4h13.8v2.7h-8.6V15h6.8v2.8h-6.8v6.1H84v2.6h-7.1V23.8z"/>
	<path class="st0" d="M92.7,16.9c0-0.2-0.1-0.3-0.2-0.4c-0.1-0.1-0.2-0.1-0.4-0.1c-0.1,0-0.2,0-0.4,0.1c-0.2,0.1-0.3,0.1-0.5,0.3
		l-1-1.7c0.6-0.5,1.2-0.8,1.8-1.1c0.6-0.2,1.1-0.3,1.7-0.3c0.5,0,0.9,0.1,1.3,0.2c0.3,0.2,0.6,0.4,0.8,0.6c0.2,0.3,0.3,0.6,0.4,0.9
		c0.1,0.3,0.1,0.7,0.1,1.1l-0.1,5.1c0,0.7,0.1,1.3,0.4,1.7c0.3,0.5,0.8,0.7,1.5,0.7c0.5,0,0.9-0.1,1.3-0.3c0.4-0.2,0.6-0.5,0.9-0.8
		c0.2-0.3,0.4-0.8,0.5-1.2c0.1-0.5,0.1-1,0.1-1.6v-6.4h3.5v9.7c0,0.2,0.1,0.3,0.2,0.4c0.1,0.1,0.2,0.1,0.4,0.1c0.1,0,0.2,0,0.4-0.1
		s0.3-0.1,0.5-0.3l0.9,1.7c-0.4,0.3-0.9,0.5-1.4,0.8c-0.5,0.3-1.1,0.4-1.8,0.4c-0.5,0-1-0.2-1.5-0.5c-0.5-0.3-0.7-0.9-0.8-1.6
		c-0.4,0.6-0.9,1.2-1.6,1.7c-0.7,0.5-1.6,0.7-2.7,0.7c-1.6,0-2.7-0.4-3.4-1.3c-0.7-0.8-1-2-1-3.4L92.7,16.9z"/>
	<path class="st0" d="M109.6,16.8c0-0.2-0.1-0.3-0.2-0.4c-0.1-0.1-0.2-0.1-0.4-0.1c-0.1,0-0.2,0-0.4,0.1c-0.2,0.1-0.3,0.1-0.5,0.3
		l-0.9-1.7c0.4-0.3,0.9-0.5,1.4-0.8c0.5-0.3,1.1-0.4,1.8-0.4c0.5,0,1,0.2,1.5,0.5c0.5,0.3,0.7,0.9,0.8,1.6c0.4-0.6,0.9-1.2,1.6-1.7
		c0.7-0.5,1.6-0.7,2.7-0.7c1.6,0,2.7,0.4,3.4,1.3c0.7,0.8,1,2,1,3.4l-0.1,5.4c0,0.2,0.1,0.3,0.2,0.4c0.1,0.1,0.2,0.1,0.4,0.1
		c0.1,0,0.2,0,0.4-0.1s0.3-0.1,0.5-0.3l1,1.7c-0.6,0.5-1.2,0.8-1.8,1.1c-0.6,0.2-1.1,0.3-1.7,0.3c-0.5,0-0.9-0.1-1.3-0.2
		c-0.3-0.2-0.6-0.4-0.8-0.6c-0.2-0.3-0.3-0.6-0.4-0.9c-0.1-0.3-0.1-0.7-0.1-1.1l0.1-5.2c0-0.7-0.1-1.3-0.4-1.7
		c-0.3-0.5-0.8-0.7-1.5-0.7c-0.5,0-1,0.1-1.3,0.3c-0.3,0.2-0.6,0.5-0.8,0.8c-0.2,0.3-0.4,0.8-0.5,1.2c-0.1,0.5-0.1,1-0.1,1.6v6.4
		h-3.5V16.8z"/>
	<path class="st0" d="M136.6,25.8c-0.5,0.2-1.1,0.4-1.9,0.6c-0.8,0.2-1.7,0.3-2.8,0.3c-1.2,0-2.2-0.2-3-0.5
		c-0.8-0.3-1.5-0.8-2.1-1.4c-0.5-0.6-0.9-1.3-1.2-2.1c-0.3-0.8-0.4-1.7-0.4-2.7c0-0.9,0.1-1.8,0.4-2.7c0.3-0.8,0.7-1.5,1.2-2.1
		c0.5-0.6,1.2-1.1,2-1.4c0.8-0.3,1.7-0.5,2.8-0.5c2,0,3.5,0.6,4.4,1.7c1,1.1,1.4,2.7,1.4,4.6v1.6h-8.7c0.1,0.8,0.4,1.5,1,2.1
		s1.5,0.9,2.7,0.9c0.8,0,1.5-0.1,2.1-0.2c0.7-0.1,1.4-0.4,2.1-0.7V25.8z M134.1,19.1c0-1.2-0.3-2.1-0.7-2.6
		c-0.4-0.6-1.1-0.9-1.9-0.9c-0.8,0-1.5,0.3-1.9,0.9c-0.5,0.6-0.8,1.5-0.8,2.6H134.1z"/>
	<path class="st0" d="M141.2,16.8c0-0.2-0.1-0.3-0.2-0.4c-0.1-0.1-0.2-0.1-0.4-0.1c-0.1,0-0.2,0-0.4,0.1c-0.2,0.1-0.3,0.1-0.5,0.3
		l-0.9-1.7c0.4-0.3,0.9-0.5,1.4-0.8c0.5-0.3,1.1-0.4,1.8-0.4c0.3,0,0.5,0,0.8,0.1c0.3,0.1,0.5,0.2,0.7,0.5c0.2,0.2,0.4,0.5,0.5,0.9
		c0.1,0.4,0.2,0.9,0.2,1.5c0.4-1.1,0.9-1.9,1.6-2.4c0.7-0.5,1.5-0.8,2.4-0.8c0.5,0,0.9,0.1,1.3,0.2c0.4,0.1,0.7,0.3,0.9,0.5
		l-0.8,2.9c-0.2-0.1-0.4-0.2-0.6-0.3s-0.6-0.2-1.1-0.2c-0.6,0-1.1,0.1-1.5,0.4c-0.4,0.3-0.7,0.7-1,1.1c-0.3,0.5-0.5,1-0.6,1.5
		c-0.1,0.5-0.2,1.1-0.2,1.5v5.4h-3.5V16.8z"/>
	<path class="st0" d="M151.9,14.1c0.6-0.2,1.3-0.4,2.1-0.6c0.8-0.2,1.6-0.2,2.4-0.2c2,0,3.4,0.4,4.3,1.3s1.4,2.2,1.4,4.1v4.7
		c0,0.2,0.1,0.3,0.2,0.4c0.1,0.1,0.2,0.1,0.4,0.1c0.1,0,0.2,0,0.4-0.1c0.2-0.1,0.3-0.1,0.5-0.2l1,1.7c-0.5,0.4-1,0.7-1.5,1
		c-0.5,0.2-1,0.4-1.5,0.4c-0.6,0-1.1-0.2-1.6-0.5c-0.4-0.3-0.6-0.8-0.7-1.4c-0.3,0.6-0.8,1.1-1.5,1.4c-0.7,0.4-1.5,0.6-2.5,0.6
		c-1.6,0-2.8-0.4-3.6-1.2c-0.9-0.8-1.3-1.9-1.3-3.3c0-1.3,0.4-2.4,1.3-3.2c0.9-0.8,2.1-1.1,3.5-1.1c0.8,0,1.5,0.1,2.1,0.4
		c0.6,0.3,1,0.5,1.4,0.7v-0.8c0-0.9-0.3-1.6-0.8-2c-0.5-0.4-1.2-0.6-2.1-0.6c-0.6,0-1.2,0-1.7,0.1c-0.5,0.1-1.1,0.2-1.7,0.4
		L151.9,14.1z M153.8,22.4c0,0.6,0.2,1.1,0.6,1.4c0.4,0.4,1,0.6,1.9,0.6c0.7,0,1.3-0.2,1.8-0.5c0.4-0.4,0.7-0.9,0.7-1.5
		c0-0.6-0.2-1.1-0.6-1.5c-0.4-0.4-1.1-0.6-2-0.6c-0.7,0-1.3,0.2-1.7,0.6C154,21.3,153.8,21.8,153.8,22.4z"/>
	<path class="st0" d="M167,9.1c0-0.2-0.1-0.3-0.2-0.4c-0.1-0.1-0.2-0.1-0.4-0.1c-0.1,0-0.2,0-0.4,0.1c-0.2,0.1-0.3,0.1-0.5,0.3
		l-1-1.7c0.5-0.4,1.1-0.7,1.7-1c0.6-0.3,1.1-0.4,1.7-0.4c0.5,0,0.9,0.1,1.3,0.2c0.3,0.2,0.6,0.4,0.8,0.6c0.2,0.3,0.3,0.6,0.4,0.9
		c0.1,0.3,0.1,0.7,0.1,1.1v14.6c0,0.2,0.1,0.3,0.2,0.4c0.1,0.1,0.2,0.1,0.4,0.1c0.1,0,0.2,0,0.4-0.1c0.2-0.1,0.3-0.1,0.5-0.3l1,1.7
		c-0.7,0.5-1.3,0.8-1.8,1.1c-0.5,0.2-1.1,0.3-1.6,0.3c-0.5,0-0.9-0.1-1.3-0.2c-0.3-0.2-0.6-0.4-0.8-0.6c-0.2-0.3-0.3-0.6-0.4-0.9
		c-0.1-0.3-0.1-0.7-0.1-1.1V9.1z"/>
	<path class="st0" d="M182,23.8h1.6V10.1H182V7.4h8.1c1,0,2,0.1,2.8,0.4c0.9,0.3,1.6,0.6,2.2,1.1c0.6,0.5,1.1,1.1,1.4,1.8
		c0.3,0.7,0.5,1.5,0.5,2.4c0,0.9-0.2,1.7-0.5,2.4c-0.3,0.7-0.8,1.3-1.4,1.8c-0.6,0.5-1.3,0.8-2.2,1.1c-0.9,0.2-1.8,0.3-2.8,0.3h-3v5
		h1.8v2.6H182V23.8z M190.2,16.1c2.1,0,3.2-1,3.2-2.9c0-0.9-0.3-1.7-0.8-2.2c-0.5-0.5-1.3-0.8-2.4-0.8h-3.1v6H190.2z"/>
	<path class="st0" d="M200.2,9.1c0-0.2-0.1-0.3-0.2-0.4c-0.1-0.1-0.2-0.1-0.4-0.1c-0.1,0-0.2,0-0.4,0.1c-0.2,0.1-0.3,0.1-0.5,0.3
		l-1-1.7c0.5-0.4,1.1-0.7,1.7-1c0.6-0.3,1.1-0.4,1.7-0.4c0.5,0,0.9,0.1,1.3,0.2c0.3,0.2,0.6,0.4,0.8,0.6c0.2,0.3,0.3,0.6,0.4,0.9
		c0.1,0.3,0.1,0.7,0.1,1.1v14.6c0,0.2,0.1,0.3,0.2,0.4c0.1,0.1,0.2,0.1,0.4,0.1c0.1,0,0.2,0,0.4-0.1c0.2-0.1,0.3-0.1,0.5-0.3l1,1.7
		c-0.7,0.5-1.3,0.8-1.8,1.1c-0.5,0.2-1.1,0.3-1.6,0.3c-0.5,0-0.9-0.1-1.3-0.2c-0.3-0.2-0.6-0.4-0.8-0.6c-0.2-0.3-0.3-0.6-0.4-0.9
		c-0.1-0.3-0.1-0.7-0.1-1.1V9.1z"/>
	<path class="st0" d="M209,14.1c0.6-0.2,1.3-0.4,2.1-0.6c0.8-0.2,1.6-0.2,2.4-0.2c2,0,3.4,0.4,4.3,1.3c0.9,0.8,1.4,2.2,1.4,4.1v4.7
		c0,0.2,0.1,0.3,0.2,0.4c0.1,0.1,0.2,0.1,0.4,0.1c0.1,0,0.2,0,0.4-0.1c0.2-0.1,0.3-0.1,0.5-0.2l1,1.7c-0.5,0.4-1,0.7-1.5,1
		c-0.5,0.2-1,0.4-1.5,0.4c-0.6,0-1.1-0.2-1.6-0.5c-0.4-0.3-0.6-0.8-0.7-1.4c-0.3,0.6-0.8,1.1-1.5,1.4c-0.7,0.4-1.5,0.6-2.5,0.6
		c-1.6,0-2.8-0.4-3.6-1.2c-0.9-0.8-1.3-1.9-1.3-3.3c0-1.3,0.4-2.4,1.3-3.2c0.9-0.8,2.1-1.1,3.5-1.1c0.8,0,1.5,0.1,2.1,0.4
		c0.6,0.3,1,0.5,1.4,0.7v-0.8c0-0.9-0.3-1.6-0.8-2c-0.5-0.4-1.2-0.6-2.1-0.6c-0.6,0-1.2,0-1.7,0.1c-0.5,0.1-1.1,0.2-1.7,0.4
		L209,14.1z M210.9,22.4c0,0.6,0.2,1.1,0.6,1.4c0.4,0.4,1,0.6,1.9,0.6c0.7,0,1.3-0.2,1.8-0.5c0.4-0.4,0.7-0.9,0.7-1.5
		c0-0.6-0.2-1.1-0.6-1.5c-0.4-0.4-1.1-0.6-2-0.6c-0.7,0-1.3,0.2-1.7,0.6C211.1,21.3,210.9,21.8,210.9,22.4z"/>
	<path class="st0" d="M224.5,16.8c0-0.2-0.1-0.3-0.2-0.4c-0.1-0.1-0.2-0.1-0.4-0.1c-0.1,0-0.2,0-0.4,0.1s-0.3,0.1-0.5,0.3l-0.9-1.7
		c0.4-0.3,0.9-0.5,1.4-0.8c0.5-0.3,1.1-0.4,1.8-0.4c0.5,0,1,0.2,1.5,0.5c0.5,0.3,0.7,0.9,0.8,1.6c0.4-0.6,0.9-1.2,1.6-1.7
		c0.7-0.5,1.6-0.7,2.7-0.7c1.6,0,2.7,0.4,3.4,1.3s1,2,1,3.4l-0.1,5.4c0,0.2,0.1,0.3,0.2,0.4c0.1,0.1,0.2,0.1,0.4,0.1
		c0.1,0,0.2,0,0.4-0.1c0.2-0.1,0.3-0.1,0.5-0.3l1,1.7c-0.6,0.5-1.2,0.8-1.8,1.1c-0.6,0.2-1.1,0.3-1.7,0.3c-0.5,0-0.9-0.1-1.3-0.2
		c-0.3-0.2-0.6-0.4-0.8-0.6c-0.2-0.3-0.3-0.6-0.4-0.9c-0.1-0.3-0.1-0.7-0.1-1.1l0.1-5.2c0-0.7-0.1-1.3-0.4-1.7
		c-0.3-0.5-0.8-0.7-1.5-0.7c-0.5,0-1,0.1-1.3,0.3c-0.3,0.2-0.6,0.5-0.8,0.8c-0.2,0.3-0.4,0.8-0.5,1.2c-0.1,0.5-0.1,1-0.1,1.6v6.4
		h-3.5V16.8z"/>
	<path class="st0" d="M86.5,57.1c-1.6,0-2.9-0.3-4.1-0.8c-1.2-0.5-2.2-1.2-3-2.1c-0.8-0.9-1.4-2-1.8-3.2c-0.4-1.2-0.6-2.5-0.6-3.9
		s0.2-2.7,0.6-3.9c0.4-1.2,1-2.3,1.8-3.2c0.8-0.9,1.8-1.6,3-2.1c1.2-0.5,2.6-0.8,4.1-0.8c1.6,0,2.9,0.3,4.1,0.8
		c1.2,0.5,2.2,1.2,3,2.1c0.8,0.9,1.4,2,1.8,3.2c0.4,1.2,0.6,2.5,0.6,3.9s-0.2,2.7-0.6,3.9c-0.4,1.2-1,2.3-1.8,3.2
		c-0.8,0.9-1.8,1.6-3,2.1C89.4,56.8,88,57.1,86.5,57.1z M86.5,54.2c1,0,1.9-0.2,2.6-0.6c0.7-0.4,1.3-0.9,1.7-1.6
		c0.4-0.7,0.8-1.4,1-2.3c0.2-0.9,0.3-1.8,0.3-2.7c0-0.9-0.1-1.9-0.3-2.7c-0.2-0.9-0.5-1.6-1-2.3c-0.4-0.7-1-1.2-1.7-1.6
		c-0.7-0.4-1.6-0.6-2.6-0.6s-1.9,0.2-2.6,0.6c-0.7,0.4-1.3,0.9-1.7,1.6c-0.4,0.7-0.8,1.4-1,2.3c-0.2,0.9-0.3,1.8-0.3,2.7
		c0,0.9,0.1,1.9,0.3,2.7c0.2,0.9,0.5,1.6,1,2.3c0.4,0.7,1,1.2,1.7,1.6C84.6,54,85.5,54.2,86.5,54.2z"/>
	<path class="st0" d="M99.6,46.9c0-0.2-0.1-0.3-0.2-0.4c-0.1-0.1-0.2-0.1-0.4-0.1c-0.3,0-0.6,0.1-0.9,0.3l-0.9-1.7
		c0.4-0.3,0.9-0.6,1.4-0.8c0.5-0.3,1.1-0.4,1.7-0.4c0.3,0,0.5,0,0.8,0.1c0.3,0.1,0.5,0.2,0.7,0.3c0.2,0.2,0.4,0.4,0.5,0.6
		c0.1,0.3,0.2,0.6,0.3,1.1c0.4-0.8,1-1.3,1.7-1.8c0.7-0.4,1.7-0.7,2.9-0.7c0.9,0,1.7,0.2,2.4,0.5c0.7,0.3,1.3,0.8,1.7,1.4
		c0.5,0.6,0.8,1.3,1,2.1c0.2,0.8,0.3,1.7,0.3,2.6c0,1-0.1,1.9-0.4,2.8c-0.3,0.8-0.6,1.5-1.1,2.1c-0.5,0.6-1.1,1.1-1.8,1.4
		c-0.7,0.3-1.5,0.5-2.4,0.5c-1,0-1.8-0.2-2.5-0.6c-0.6-0.4-1.2-0.8-1.5-1.3v7.7h-3.4V46.9z M106.2,54.2c1,0,1.7-0.3,2.2-1
		c0.4-0.7,0.6-1.7,0.6-3c0-0.5,0-1-0.1-1.5c-0.1-0.5-0.3-0.9-0.5-1.3c-0.2-0.4-0.5-0.7-0.9-0.9c-0.3-0.2-0.8-0.3-1.3-0.3
		c-0.5,0-1,0.1-1.4,0.3c-0.4,0.2-0.7,0.5-1,0.9c-0.3,0.4-0.5,0.8-0.6,1.3c-0.1,0.5-0.2,1-0.2,1.5c0,0.6,0.1,1.1,0.2,1.6
		c0.1,0.5,0.3,0.9,0.6,1.3c0.3,0.4,0.6,0.6,1,0.9C105.2,54.1,105.6,54.2,106.2,54.2z"/>
	<path class="st0" d="M116.5,46.3h-2.4v-2.6h2.4v-3.3h3.5v3.3h3.2v2.6H120v6.3c0,0.6,0.1,1,0.4,1.2c0.3,0.2,0.6,0.3,1,0.3
		c0.4,0,0.7,0,1.1-0.1c0.4-0.1,0.8-0.2,1.2-0.4V56c-0.3,0.2-0.8,0.3-1.4,0.5c-0.6,0.2-1.2,0.3-1.9,0.3c-1.2,0-2.2-0.3-2.9-0.9
		c-0.7-0.6-1.1-1.6-1.1-3.1V46.3z"/>
	<path class="st0" d="M126.6,47c0-0.2-0.1-0.3-0.2-0.4c-0.1-0.1-0.2-0.1-0.4-0.1c-0.1,0-0.2,0-0.4,0.1c-0.2,0.1-0.3,0.1-0.5,0.3
		l-1-1.7c0.5-0.4,1.1-0.7,1.7-1c0.6-0.3,1.1-0.4,1.7-0.4c0.5,0,0.9,0.1,1.3,0.2c0.3,0.2,0.6,0.4,0.8,0.6s0.3,0.6,0.4,0.9
		c0.1,0.3,0.1,0.7,0.1,1.1l-0.1,6.8c0,0.2,0.1,0.3,0.2,0.4c0.1,0.1,0.3,0.1,0.4,0.1c0.1,0,0.2,0,0.4-0.1c0.2-0.1,0.4-0.1,0.5-0.3
		l1,1.7c-0.6,0.5-1.2,0.8-1.8,1.1c-0.6,0.2-1.1,0.3-1.7,0.3c-0.5,0-0.9-0.1-1.3-0.2s-0.6-0.4-0.8-0.6c-0.2-0.3-0.3-0.6-0.4-0.9
		c-0.1-0.3-0.1-0.7-0.1-1.1L126.6,47z M125.8,39.7c0-0.6,0.2-1.1,0.6-1.5c0.4-0.4,0.9-0.6,1.5-0.6s1.1,0.2,1.5,0.6
		c0.4,0.4,0.6,0.9,0.6,1.5s-0.2,1.1-0.6,1.5c-0.4,0.4-0.9,0.6-1.5,0.6s-1.1-0.2-1.5-0.6C126,40.8,125.8,40.3,125.8,39.7z"/>
	<path class="st0" d="M140.5,56.9c-2.2,0-3.8-0.6-4.9-1.8c-1.1-1.2-1.7-2.9-1.7-4.9c0-1,0.1-1.9,0.4-2.7c0.3-0.8,0.7-1.5,1.2-2.1
		c0.5-0.6,1.2-1.1,2.1-1.4c0.8-0.3,1.8-0.5,2.8-0.5c1.1,0,2,0.2,2.8,0.5c0.8,0.3,1.5,0.8,2.1,1.4c0.5,0.6,1,1.3,1.2,2.1
		s0.4,1.7,0.4,2.7c0,2.1-0.6,3.7-1.7,4.9C144.3,56.3,142.7,56.9,140.5,56.9z M140.5,54.4c1.1,0,1.8-0.4,2.3-1.2
		c0.5-0.8,0.7-1.8,0.7-3.1c0-0.6-0.1-1.1-0.2-1.6s-0.3-1-0.5-1.4c-0.2-0.4-0.5-0.7-0.9-0.9c-0.4-0.2-0.8-0.3-1.4-0.3
		c-0.5,0-1,0.1-1.4,0.3c-0.4,0.2-0.7,0.5-0.9,0.9c-0.2,0.4-0.4,0.8-0.5,1.4c-0.1,0.5-0.2,1.1-0.2,1.6c0,1.3,0.2,2.3,0.7,3.1
		C138.7,54,139.5,54.4,140.5,54.4z"/>
	<path class="st0" d="M150.5,46.9c0-0.2-0.1-0.3-0.2-0.4c-0.1-0.1-0.2-0.1-0.4-0.1c-0.1,0-0.2,0-0.4,0.1c-0.2,0.1-0.3,0.1-0.5,0.3
		L148,45c0.4-0.3,0.9-0.5,1.4-0.8c0.5-0.3,1.1-0.4,1.8-0.4c0.5,0,1,0.2,1.5,0.5c0.5,0.3,0.7,0.9,0.8,1.6c0.4-0.6,0.9-1.2,1.6-1.7
		c0.7-0.5,1.6-0.7,2.7-0.7c1.6,0,2.7,0.4,3.4,1.3c0.7,0.8,1,2,1,3.4l-0.1,5.4c0,0.2,0.1,0.3,0.2,0.4c0.1,0.1,0.2,0.1,0.4,0.1
		c0.1,0,0.2,0,0.4-0.1c0.2-0.1,0.3-0.1,0.5-0.3l1,1.7c-0.6,0.5-1.2,0.8-1.8,1.1c-0.6,0.2-1.1,0.3-1.7,0.3c-0.5,0-0.9-0.1-1.3-0.2
		c-0.3-0.2-0.6-0.4-0.8-0.6c-0.2-0.3-0.3-0.6-0.4-0.9c-0.1-0.3-0.1-0.7-0.1-1.1l0.1-5.2c0-0.7-0.1-1.3-0.4-1.7
		c-0.3-0.5-0.8-0.7-1.5-0.7c-0.5,0-1,0.1-1.3,0.3c-0.3,0.2-0.6,0.5-0.8,0.8c-0.2,0.3-0.4,0.8-0.5,1.2c-0.1,0.5-0.1,1-0.1,1.6v6.4
		h-3.5V46.9z"/>
	<path class="st0" d="M165.3,52.9c0.7,0.3,1.4,0.6,2.3,0.9c0.8,0.3,1.7,0.4,2.6,0.4c1.5,0,2.3-0.4,2.3-1.3c0-0.5-0.2-0.9-0.6-1
		s-1-0.4-1.6-0.5c-0.7-0.2-1.3-0.3-1.9-0.6c-0.6-0.2-1.1-0.5-1.6-0.8c-0.4-0.3-0.8-0.7-1-1.1s-0.4-0.9-0.4-1.6
		c0-0.7,0.1-1.3,0.4-1.8c0.3-0.5,0.7-0.9,1.2-1.3c0.5-0.3,1.1-0.6,1.7-0.7c0.7-0.2,1.3-0.2,2.1-0.2c0.6,0,1.4,0.1,2.2,0.3
		c0.8,0.2,1.7,0.4,2.5,0.8l-0.9,2.2c-0.6-0.2-1.1-0.4-1.7-0.6c-0.6-0.2-1.2-0.2-2-0.2c-0.4,0-0.8,0-1,0.1c-0.3,0.1-0.5,0.2-0.6,0.3
		c-0.2,0.1-0.3,0.3-0.3,0.4c-0.1,0.2-0.1,0.3-0.1,0.4c0,0.2,0.1,0.4,0.3,0.6c0.2,0.2,0.4,0.3,0.7,0.4c0.3,0.1,0.6,0.2,1,0.3
		c0.3,0.1,0.7,0.2,1,0.2c0.6,0.1,1.2,0.3,1.7,0.5c0.5,0.2,1,0.4,1.4,0.7c0.4,0.3,0.7,0.7,0.9,1.1c0.2,0.4,0.3,1,0.3,1.6
		c0,0.8-0.2,1.4-0.5,2c-0.3,0.5-0.7,1-1.2,1.3c-0.5,0.3-1.1,0.6-1.7,0.7c-0.6,0.2-1.3,0.2-1.9,0.2c-1.3,0-2.3-0.1-3.2-0.4
		c-0.9-0.2-1.5-0.5-2.1-0.7V52.9z"/>
</g>
<path class="st1" d="M51.4,31.1c1.1,0.8,2,1.7,2.9,2.6c0.8,0.9,1.7,1.9,2.4,2.9c0.7,1,1.4,2,2,3.1c0.6,1,1.2,2.1,1.7,3.2l0,0
	c0.8,1.6,0.1,3.6-1.6,4.4c0,0,0,0,0,0c-1.1,0.5-2.2,1-3.3,1.4c-1.1,0.4-2.3,0.8-3.5,1.1c-1.2,0.3-2.4,0.5-3.7,0.7
	c-1.3,0.1-2.5,0.3-3.9,0.1l-0.1,0c-0.1,0-0.2-0.1-0.2-0.2c0-0.1,0-0.1,0.1-0.1c2.1-1.1,4.3-2.1,6.5-3.2l6.5-3.1l-0.2,0.5l-3-6.6
	c-1-2.2-2-4.4-3-6.6c0-0.1,0-0.2,0.1-0.2C51.3,31,51.3,31,51.4,31.1L51.4,31.1z"/>
<path class="st1" d="M38.1,2.5c1.3-0.5,2.6-0.8,3.9-1c1.3-0.2,2.5-0.4,3.8-0.4C47,1,48.2,1,49.4,1.1c1.2,0.1,2.5,0.2,3.7,0.3l0,0
	c1.8,0.2,3.1,1.9,2.8,3.7c0,0.1,0,0.1,0,0.2c-0.2,1.2-0.5,2.4-0.8,3.6c-0.3,1.2-0.7,2.3-1.1,3.5c-0.4,1.2-1,2.3-1.5,3.4
	c-0.6,1.1-1.2,2.2-2.1,3.3l-0.1,0.1c-0.1,0.1-0.2,0.1-0.2,0c0,0-0.1-0.1-0.1-0.2c0.3-2.4,0.7-4.8,1.1-7.2l1.2-7.2L52.6,5l-7.3-1
	c-2.4-0.3-4.9-0.7-7.3-1.1c-0.1,0-0.2-0.1-0.1-0.2C37.9,2.7,38,2.6,38.1,2.5L38.1,2.5z"/>
<path class="st1" d="M10.5,38.7c-1.1-0.8-2-1.7-2.9-2.7c-0.8-1-1.6-1.9-2.4-2.9c-0.7-1-1.4-2-2-3.1c-0.6-1.1-1.1-2.1-1.7-3.2l0,0
	c-0.8-1.6,0-3.6,1.6-4.4c0,0,0,0,0,0c1.1-0.5,2.2-1,3.3-1.3c1.1-0.4,2.3-0.8,3.5-1c1.2-0.3,2.4-0.5,3.7-0.7c1.3-0.1,2.5-0.2,3.9-0.1
	l0.1,0c0.1,0,0.2,0.1,0.2,0.2c0,0.1,0,0.1-0.1,0.1c-2.2,1.1-4.3,2.1-6.5,3.1l-6.5,3.1L5,25.3l3,6.6c1,2.2,2,4.4,2.9,6.6
	c0,0.1,0,0.2-0.1,0.2C10.7,38.8,10.7,38.8,10.5,38.7L10.5,38.7z"/>
<path class="st1" d="M35.1,55.5c-0.8,1.2-1.7,2.1-2.7,3c-1,0.8-1.9,1.7-2.9,2.4c-1,0.7-2,1.4-3.1,2c-1.1,0.6-2.1,1.2-3.2,1.7l0,0
	c-1.6,0.8-3.6,0.1-4.4-1.5c0,0,0,0,0,0c-0.5-1.1-1-2.2-1.4-3.4c-0.4-1.1-0.8-2.3-1.1-3.5c-0.3-1.2-0.5-2.4-0.7-3.7
	c-0.1-1.3-0.3-2.6-0.2-4l0-0.1c0-0.1,0.1-0.2,0.2-0.2c0.1,0,0.1,0,0.1,0.1c1.1,2.2,2.2,4.4,3.3,6.6l3.2,6.6l-0.5-0.2l6.7-3.1
	c2.2-1.1,4.4-2.1,6.7-3.1c0.1,0,0.2,0,0.2,0.1C35.2,55.3,35.2,55.3,35.1,55.5L35.1,55.5z"/>
</svg>
