<?xml version="1.0" encoding="utf-8"?>
<!-- Generator: Adobe Illustrator 21.0.2, SVG Export Plug-In . SVG Version: 6.00 Build 0)  -->
<svg version="1.1" id="Layer_1" xmlns="http://www.w3.org/2000/svg" xmlns:xlink="http://www.w3.org/1999/xlink" x="0px" y="0px"
	 viewBox="0 0 460 376" style="enable-background:new 0 0 460 376;" xml:space="preserve">
<style type="text/css">
	.st0{fill:#485DA7;}
</style>
<g>
	<g>
		<path d="M156.6,368.8c0,0.5-0.1,0.9-0.3,1.3c-0.2,0.4-0.4,0.7-0.7,0.9c-0.3,0.3-0.7,0.4-1.2,0.6c-0.5,0.1-1,0.2-1.5,0.2
			c-0.6,0-1.1-0.1-1.6-0.2c-0.5-0.1-0.9-0.3-1.3-0.4v-1.1c0.3,0.1,0.7,0.3,1.2,0.4c0.5,0.2,1,0.2,1.6,0.2c0.8,0,1.4-0.2,1.8-0.5
			c0.4-0.3,0.7-0.8,0.7-1.5c0-0.3-0.1-0.6-0.2-0.8c-0.1-0.2-0.3-0.4-0.5-0.6c-0.2-0.2-0.4-0.3-0.7-0.4c-0.3-0.1-0.6-0.2-0.9-0.3
			c-0.4-0.1-0.8-0.3-1.2-0.4c-0.4-0.2-0.7-0.4-1-0.6c-0.3-0.2-0.5-0.5-0.7-0.8c-0.2-0.3-0.3-0.7-0.3-1.2c0-0.5,0.1-0.9,0.3-1.2
			c0.2-0.4,0.4-0.7,0.7-0.9c0.3-0.2,0.7-0.4,1.1-0.6c0.4-0.1,0.9-0.2,1.4-0.2c0.3,0,0.5,0,0.8,0.1c0.3,0,0.5,0.1,0.8,0.1
			c0.3,0.1,0.5,0.1,0.7,0.2c0.2,0.1,0.4,0.1,0.5,0.2l-0.3,0.9c-0.3-0.1-0.6-0.2-1-0.3c-0.4-0.1-0.9-0.2-1.4-0.2
			c-0.7,0-1.2,0.2-1.7,0.5c-0.4,0.3-0.6,0.7-0.6,1.3c0,0.2,0,0.5,0.1,0.7c0.1,0.2,0.2,0.4,0.4,0.5c0.2,0.2,0.4,0.3,0.7,0.4
			c0.3,0.1,0.7,0.3,1.1,0.4c0.5,0.2,0.9,0.3,1.3,0.5c0.4,0.2,0.7,0.4,1,0.6c0.3,0.2,0.5,0.5,0.6,0.9
			C156.5,367.9,156.6,368.3,156.6,368.8z"/>
		<path d="M165.7,370.9c-0.2,0.2-0.4,0.3-0.6,0.4c-0.2,0.1-0.5,0.1-0.7,0.1c-0.4,0-0.6-0.1-0.8-0.3c-0.2-0.2-0.2-0.5-0.2-0.8
			c-0.1,0.2-0.2,0.3-0.3,0.5c-0.1,0.2-0.3,0.3-0.5,0.4c-0.2,0.1-0.4,0.2-0.6,0.3c-0.2,0.1-0.5,0.1-0.8,0.1c-0.9,0-1.6-0.2-2-0.7
			c-0.4-0.5-0.6-1.1-0.6-1.8l0.1-3.1c0-0.2,0-0.4-0.1-0.4c-0.1-0.1-0.2-0.1-0.3-0.1c-0.1,0-0.2,0-0.3,0.1c-0.1,0-0.2,0.1-0.3,0.2
			l-0.3-0.5c0.2-0.2,0.4-0.3,0.7-0.4c0.2-0.1,0.5-0.1,0.7-0.1c0.4,0,0.7,0.1,0.9,0.3c0.2,0.2,0.3,0.5,0.3,0.8l-0.1,3.2
			c0,0.5,0.1,1,0.3,1.3c0.2,0.3,0.6,0.5,1.1,0.5c0.4,0,0.7-0.1,1-0.2c0.3-0.2,0.5-0.4,0.6-0.6c0.2-0.3,0.3-0.5,0.4-0.9
			c0.1-0.3,0.1-0.7,0.1-1v-3.4h1.1v5.5c0,0.2,0,0.4,0.1,0.5c0.1,0.1,0.2,0.1,0.3,0.1c0.1,0,0.2,0,0.3-0.1s0.2-0.1,0.3-0.2
			L165.7,370.9z"/>
		<path d="M174.4,371c-0.2,0.2-0.4,0.3-0.6,0.4c-0.2,0.1-0.5,0.1-0.7,0.1c-0.4,0-0.7-0.1-0.9-0.4s-0.2-0.6-0.2-1l0.1-3
			c0-0.5-0.1-1-0.3-1.3c-0.2-0.3-0.6-0.5-1.2-0.5c-0.4,0-0.7,0.1-1,0.2c-0.3,0.2-0.5,0.4-0.6,0.6c-0.2,0.3-0.3,0.5-0.4,0.9
			c-0.1,0.3-0.1,0.7-0.1,1v3.4h-1.1V366c0-0.2,0-0.4-0.1-0.4c-0.1-0.1-0.2-0.1-0.3-0.1c-0.1,0-0.2,0-0.3,0.1c-0.1,0-0.2,0.1-0.3,0.2
			l-0.3-0.5c0.2-0.2,0.4-0.3,0.7-0.4c0.2-0.1,0.5-0.1,0.7-0.1c0.2,0,0.4,0,0.5,0.1c0.1,0.1,0.2,0.1,0.3,0.3c0.1,0.1,0.1,0.2,0.2,0.4
			c0,0.1,0.1,0.3,0.1,0.4c0.1-0.2,0.2-0.3,0.3-0.5c0.1-0.2,0.3-0.3,0.5-0.4c0.2-0.1,0.4-0.2,0.6-0.3c0.2-0.1,0.5-0.1,0.8-0.1
			c0.5,0,0.8,0.1,1.2,0.2c0.3,0.1,0.6,0.3,0.8,0.5c0.2,0.2,0.4,0.5,0.5,0.8c0.1,0.3,0.1,0.7,0.1,1l-0.1,3.2c0,0.2,0,0.4,0.1,0.5
			c0.1,0.1,0.2,0.1,0.3,0.1c0.1,0,0.2,0,0.3-0.1c0.1-0.1,0.2-0.1,0.3-0.2L174.4,371z"/>
		<path d="M179.3,371.5v-0.9h0.9v-8.7h-0.9V361h3.1v0.9h-1v8.6h5.2v0.9H179.3z"/>
		<path d="M190.2,371c-0.2,0.2-0.4,0.3-0.7,0.4c-0.2,0.1-0.5,0.1-0.7,0.1c-0.4,0-0.7-0.1-0.9-0.3c-0.2-0.2-0.2-0.6-0.2-1l0.1-4.2
			c0-0.2,0-0.4-0.1-0.4s-0.2-0.1-0.3-0.1c-0.1,0-0.2,0-0.3,0.1c-0.1,0-0.2,0.1-0.3,0.2l-0.3-0.5c0.2-0.2,0.4-0.3,0.7-0.4
			c0.2-0.1,0.5-0.1,0.7-0.1c0.4,0,0.7,0.1,0.8,0.3c0.2,0.2,0.3,0.5,0.2,0.8l-0.1,4.4c0,0.2,0,0.4,0.1,0.5c0.1,0.1,0.2,0.1,0.3,0.1
			c0.1,0,0.2,0,0.3-0.1c0.1-0.1,0.2-0.1,0.3-0.2L190.2,371z M189,361.9c0,0.2-0.1,0.4-0.2,0.6c-0.2,0.2-0.3,0.2-0.6,0.2
			c-0.2,0-0.4-0.1-0.6-0.2c-0.2-0.2-0.2-0.3-0.2-0.6c0-0.2,0.1-0.4,0.2-0.6c0.2-0.2,0.3-0.2,0.6-0.2c0.2,0,0.4,0.1,0.6,0.2
			C188.9,361.5,189,361.7,189,361.9z"/>
		<path d="M195.1,361.3c-0.1-0.1-0.3-0.1-0.4-0.2c-0.2-0.1-0.4-0.1-0.5-0.1c-0.3,0-0.5,0-0.6,0.1c-0.2,0.1-0.3,0.2-0.3,0.4
			c-0.1,0.2-0.1,0.4-0.2,0.6c0,0.2,0,0.5,0,0.7v1.7h1.7v0.8h-1.7v6.1h-1.1v-6.1h-1.3v-0.8h1.3v-2.1c0-0.3,0-0.5,0.1-0.8
			c0.1-0.3,0.2-0.5,0.4-0.8c0.2-0.2,0.4-0.4,0.7-0.6c0.3-0.1,0.6-0.2,1-0.2c0.3,0,0.5,0,0.7,0.1c0.2,0.1,0.4,0.2,0.7,0.3
			L195.1,361.3z"/>
		<path d="M196.3,368.4c0,0.3,0.1,0.5,0.2,0.8c0.1,0.3,0.2,0.5,0.4,0.8c0.2,0.2,0.4,0.4,0.7,0.6c0.3,0.1,0.6,0.2,1,0.2
			c0.5,0,0.9-0.1,1.3-0.2c0.4-0.1,0.7-0.2,0.9-0.4v1c-0.2,0.1-0.5,0.2-0.9,0.3c-0.3,0.1-0.8,0.1-1.5,0.1c-0.6,0-1.1-0.1-1.5-0.3
			c-0.4-0.2-0.8-0.4-1.1-0.8c-0.3-0.3-0.5-0.7-0.6-1.1c-0.1-0.4-0.2-0.9-0.2-1.4c0-0.5,0.1-1,0.2-1.5c0.2-0.4,0.4-0.8,0.7-1.1
			c0.3-0.3,0.6-0.6,1-0.7c0.4-0.2,0.9-0.3,1.4-0.3c1,0,1.7,0.3,2.2,0.9c0.5,0.6,0.8,1.5,0.8,2.6v0.5H196.3z M200.2,367.6
			c0-0.7-0.2-1.3-0.5-1.7c-0.3-0.4-0.8-0.6-1.4-0.6c-0.6,0-1.1,0.2-1.4,0.6c-0.3,0.4-0.5,1-0.6,1.7H200.2z"/>
		<path d="M215.4,371c-0.4,0.2-0.9,0.4-1.4,0.5c-0.5,0.1-1.1,0.2-1.9,0.2c-0.8,0-1.5-0.1-2.1-0.4c-0.6-0.3-1.2-0.6-1.6-1.1
			c-0.4-0.5-0.8-1.1-1-1.7c-0.2-0.7-0.4-1.4-0.4-2.2c0-0.8,0.1-1.5,0.4-2.2c0.3-0.7,0.6-1.2,1.1-1.7c0.5-0.5,1-0.9,1.7-1.1
			c0.6-0.3,1.4-0.4,2.2-0.4c0.3,0,0.7,0,0.9,0.1c0.3,0,0.6,0.1,0.8,0.1c0.3,0.1,0.5,0.1,0.7,0.2c0.2,0.1,0.5,0.2,0.7,0.3l-0.6,1.4
			c-0.2-0.1-0.4-0.2-0.6-0.2c-0.2-0.1-0.4-0.1-0.6-0.2c-0.2,0-0.4-0.1-0.6-0.1c-0.2,0-0.4,0-0.7,0c-0.5,0-1,0.1-1.4,0.3
			c-0.4,0.2-0.8,0.5-1,0.8c-0.3,0.3-0.5,0.8-0.7,1.2c-0.2,0.5-0.2,1-0.2,1.6c0,0.6,0.1,1.1,0.2,1.6c0.2,0.5,0.4,0.9,0.7,1.2
			c0.3,0.3,0.6,0.6,1,0.8c0.4,0.2,0.8,0.3,1.3,0.3c0.3,0,0.6,0,0.8,0c0.2,0,0.5-0.1,0.7-0.1c0.2,0,0.5-0.1,0.7-0.2
			c0.2-0.1,0.5-0.2,0.8-0.3V371z"/>
		<path d="M220.4,371.6c-1.2,0-2.1-0.3-2.7-1c-0.6-0.7-0.9-1.6-0.9-2.7c0-0.5,0.1-1,0.2-1.5c0.2-0.4,0.4-0.8,0.7-1.2
			c0.3-0.3,0.7-0.6,1.1-0.8c0.5-0.2,1-0.3,1.6-0.3c0.6,0,1.1,0.1,1.6,0.3c0.5,0.2,0.8,0.4,1.1,0.8c0.3,0.3,0.5,0.7,0.7,1.2
			c0.2,0.4,0.2,0.9,0.2,1.5c0,1.1-0.3,2-0.9,2.7C222.4,371.3,221.5,371.6,220.4,371.6z M220.4,370.3c0.6,0,1-0.2,1.2-0.6
			c0.3-0.4,0.4-1,0.4-1.7c0-0.3,0-0.6-0.1-0.9c-0.1-0.3-0.2-0.5-0.3-0.7c-0.1-0.2-0.3-0.4-0.5-0.5c-0.2-0.1-0.4-0.2-0.7-0.2
			c-0.3,0-0.5,0.1-0.7,0.2c-0.2,0.1-0.4,0.3-0.5,0.5c-0.1,0.2-0.2,0.5-0.3,0.7c-0.1,0.3-0.1,0.6-0.1,0.9c0,0.7,0.1,1.3,0.4,1.7
			C219.4,370.1,219.8,370.3,220.4,370.3z"/>
		<path d="M225.2,369.5c0.4,0.2,0.8,0.4,1.2,0.5c0.5,0.1,0.9,0.2,1.4,0.2c0.8,0,1.3-0.2,1.3-0.7c0-0.3-0.1-0.5-0.4-0.6
			c-0.2-0.1-0.5-0.2-0.9-0.3c-0.4-0.1-0.7-0.2-1.1-0.3c-0.3-0.1-0.6-0.3-0.9-0.4c-0.2-0.2-0.4-0.4-0.6-0.6c-0.1-0.2-0.2-0.5-0.2-0.9
			c0-0.4,0.1-0.7,0.2-1c0.2-0.3,0.4-0.5,0.7-0.7c0.3-0.2,0.6-0.3,1-0.4c0.4-0.1,0.7-0.1,1.1-0.1c0.3,0,0.7,0,1.2,0.1
			c0.5,0.1,0.9,0.2,1.4,0.4l-0.5,1.2c-0.3-0.1-0.6-0.2-1-0.3c-0.3-0.1-0.7-0.1-1.1-0.1c-0.2,0-0.4,0-0.6,0.1c-0.1,0-0.3,0.1-0.3,0.2
			c-0.1,0.1-0.1,0.1-0.2,0.2c0,0.1,0,0.2,0,0.2c0,0.1,0,0.2,0.1,0.3c0.1,0.1,0.2,0.2,0.4,0.2c0.2,0.1,0.3,0.1,0.5,0.2
			c0.2,0,0.4,0.1,0.6,0.1c0.3,0.1,0.6,0.2,0.9,0.3c0.3,0.1,0.5,0.2,0.8,0.4c0.2,0.2,0.4,0.4,0.5,0.6c0.1,0.2,0.2,0.5,0.2,0.9
			c0,0.4-0.1,0.8-0.3,1.1c-0.2,0.3-0.4,0.5-0.7,0.7c-0.3,0.2-0.6,0.3-0.9,0.4c-0.3,0.1-0.7,0.1-1.1,0.1c-0.7,0-1.3-0.1-1.7-0.2
			c-0.5-0.1-0.9-0.3-1.1-0.4V369.5z"/>
		<path d="M233,365.8h-1.3v-1.4h1.3v-1.8h1.9v1.8h1.7v1.4h-1.7v3.5c0,0.3,0.1,0.5,0.2,0.6c0.1,0.1,0.3,0.2,0.5,0.2
			c0.2,0,0.4,0,0.6-0.1c0.2,0,0.4-0.1,0.7-0.2v1.4c-0.2,0.1-0.4,0.2-0.8,0.3c-0.3,0.1-0.7,0.1-1,0.1c-0.7,0-1.2-0.2-1.6-0.5
			c-0.4-0.3-0.6-0.9-0.6-1.7V365.8z"/>
		<path d="M245.4,371.6c-1.2,0-2.1-0.3-2.7-1c-0.6-0.7-0.9-1.6-0.9-2.7c0-0.5,0.1-1,0.2-1.5c0.2-0.4,0.4-0.8,0.7-1.2
			c0.3-0.3,0.7-0.6,1.1-0.8c0.5-0.2,1-0.3,1.6-0.3c0.6,0,1.1,0.1,1.6,0.3c0.5,0.2,0.8,0.4,1.1,0.8c0.3,0.3,0.5,0.7,0.7,1.2
			c0.2,0.4,0.2,0.9,0.2,1.5c0,1.1-0.3,2-0.9,2.7C247.5,371.3,246.6,371.6,245.4,371.6z M245.4,370.3c0.6,0,1-0.2,1.2-0.6
			c0.3-0.4,0.4-1,0.4-1.7c0-0.3,0-0.6-0.1-0.9c-0.1-0.3-0.2-0.5-0.3-0.7c-0.1-0.2-0.3-0.4-0.5-0.5c-0.2-0.1-0.4-0.2-0.7-0.2
			s-0.5,0.1-0.7,0.2c-0.2,0.1-0.4,0.3-0.5,0.5c-0.1,0.2-0.2,0.5-0.3,0.7c-0.1,0.3-0.1,0.6-0.1,0.9c0,0.7,0.1,1.3,0.4,1.7
			C244.4,370.1,244.8,370.3,245.4,370.3z"/>
		<path d="M250.8,365.8h-1.3v-1.4h1.3v-1.7c0-0.3,0-0.6,0.1-0.9c0.1-0.3,0.2-0.6,0.4-0.8c0.2-0.2,0.5-0.4,0.8-0.6
			c0.3-0.2,0.7-0.2,1.2-0.2c0.3,0,0.6,0.1,0.9,0.2c0.3,0.1,0.6,0.3,0.9,0.4l-0.5,1.3c-0.2-0.1-0.4-0.2-0.6-0.2
			c-0.2,0-0.3-0.1-0.4-0.1c-0.2,0-0.4,0-0.5,0.1c-0.1,0.1-0.2,0.2-0.3,0.3c-0.1,0.1-0.1,0.3-0.2,0.4c0,0.2,0,0.3,0,0.5v1.3h1.5v1.4
			h-1.5v5.6h-1.9V365.8z"/>
		<path d="M259.3,370h0.9v-7.5h-0.9V361h3.5c1,0,1.8,0.1,2.6,0.4s1.3,0.6,1.8,1.1c0.5,0.5,0.8,1,1.1,1.6c0.2,0.6,0.3,1.3,0.3,2.1
			c0,0.7-0.1,1.4-0.3,2.1c-0.2,0.6-0.6,1.2-1.1,1.7c-0.5,0.5-1.1,0.8-1.8,1.1s-1.6,0.4-2.6,0.4h-3.5V370z M263.2,370
			c0.5,0,0.9-0.1,1.3-0.3c0.4-0.2,0.7-0.4,1-0.8c0.3-0.3,0.5-0.7,0.7-1.2c0.2-0.5,0.2-1,0.2-1.5c0-0.5-0.1-1-0.2-1.5
			c-0.2-0.5-0.4-0.9-0.7-1.2c-0.3-0.3-0.7-0.6-1.1-0.8c-0.4-0.2-0.9-0.3-1.4-0.3h-0.8v7.5H263.2z"/>
		<path d="M271,373c0.4,0.2,0.8,0.3,1.2,0.4c0.4,0.1,0.8,0.1,1.3,0.1c0.4,0,0.7-0.1,0.9-0.2c0.2-0.1,0.4-0.2,0.6-0.4
			c0.1-0.2,0.3-0.4,0.3-0.6c0.1-0.2,0.1-0.4,0.1-0.7v-1c-0.2,0.3-0.5,0.5-0.9,0.7c-0.3,0.2-0.8,0.3-1.2,0.3c-0.9,0-1.5-0.2-1.9-0.7
			c-0.4-0.5-0.6-1.1-0.5-1.9l0-2.9c0-0.1,0-0.2-0.1-0.2c-0.1-0.1-0.1-0.1-0.2-0.1c-0.1,0-0.1,0-0.2,0c-0.1,0-0.2,0.1-0.3,0.1
			l-0.5-0.9c0.3-0.3,0.7-0.5,1-0.6c0.3-0.1,0.6-0.2,0.9-0.2c0.3,0,0.5,0,0.7,0.1c0.2,0.1,0.3,0.2,0.4,0.3c0.1,0.1,0.2,0.3,0.2,0.5
			c0,0.2,0.1,0.4,0.1,0.6l0,2.8c0,0.4,0.1,0.7,0.2,0.9c0.2,0.3,0.4,0.4,0.8,0.4c0.3,0,0.5-0.1,0.7-0.2c0.2-0.1,0.4-0.3,0.5-0.4
			c0.1-0.2,0.2-0.4,0.3-0.7c0.1-0.3,0.1-0.6,0.1-0.9v-3.5h1.9v7c0,0.5-0.1,1-0.2,1.5c-0.1,0.4-0.4,0.8-0.7,1.1
			c-0.3,0.3-0.7,0.5-1.1,0.7c-0.4,0.2-1,0.3-1.6,0.3c-0.7,0-1.2-0.1-1.6-0.2c-0.4-0.1-0.8-0.2-1.2-0.4V373z"/>
		<path d="M279.9,366.2c0-0.1,0-0.2-0.1-0.2c-0.1-0.1-0.1-0.1-0.2-0.1c-0.1,0-0.1,0-0.2,0c-0.1,0-0.2,0.1-0.3,0.1l-0.5-0.9
			c0.3-0.2,0.6-0.4,0.9-0.6c0.3-0.1,0.6-0.2,0.9-0.2c0.3,0,0.5,0,0.7,0.1c0.2,0.1,0.3,0.2,0.4,0.3c0.1,0.1,0.2,0.3,0.2,0.5
			c0,0.2,0.1,0.4,0.1,0.6l0,3.7c0,0.1,0,0.2,0.1,0.2c0.1,0.1,0.1,0.1,0.2,0.1c0.1,0,0.1,0,0.2,0c0.1,0,0.2-0.1,0.3-0.1l0.5,0.9
			c-0.3,0.3-0.7,0.5-1,0.6c-0.3,0.1-0.6,0.2-0.9,0.2c-0.3,0-0.5,0-0.7-0.1c-0.2-0.1-0.3-0.2-0.4-0.3c-0.1-0.1-0.2-0.3-0.2-0.5
			c0-0.2-0.1-0.4-0.1-0.6L279.9,366.2z M279.5,362.2c0-0.3,0.1-0.6,0.3-0.8c0.2-0.2,0.5-0.3,0.8-0.3c0.3,0,0.6,0.1,0.8,0.3
			c0.2,0.2,0.3,0.5,0.3,0.8c0,0.3-0.1,0.6-0.3,0.8s-0.5,0.3-0.8,0.3c-0.3,0-0.6-0.1-0.8-0.3S279.5,362.5,279.5,362.2z"/>
		<path d="M284.7,366.2c0-0.1,0-0.2-0.1-0.2c-0.1-0.1-0.1-0.1-0.2-0.1c-0.1,0-0.1,0-0.2,0c-0.1,0-0.2,0.1-0.3,0.1l-0.5-0.9
			c0.2-0.1,0.5-0.3,0.8-0.4c0.3-0.1,0.6-0.2,1-0.2c0.3,0,0.6,0.1,0.8,0.3c0.3,0.2,0.4,0.5,0.4,0.9c0.2-0.4,0.5-0.7,0.9-0.9
			c0.4-0.3,0.9-0.4,1.5-0.4c0.9,0,1.5,0.2,1.9,0.7c0.4,0.5,0.6,1.1,0.5,1.9l0,2.9c0,0.1,0,0.2,0.1,0.2c0.1,0.1,0.1,0.1,0.2,0.1
			c0.1,0,0.1,0,0.2,0s0.2-0.1,0.3-0.1l0.5,0.9c-0.3,0.3-0.7,0.5-1,0.6c-0.3,0.1-0.6,0.2-0.9,0.2c-0.3,0-0.5,0-0.7-0.1
			c-0.2-0.1-0.3-0.2-0.4-0.3c-0.1-0.1-0.2-0.3-0.2-0.5c0-0.2-0.1-0.4-0.1-0.6l0-2.9c0-0.4-0.1-0.7-0.2-0.9c-0.2-0.3-0.4-0.4-0.8-0.4
			c-0.3,0-0.5,0.1-0.7,0.2c-0.2,0.1-0.3,0.3-0.5,0.4c-0.1,0.2-0.2,0.4-0.3,0.7c-0.1,0.3-0.1,0.6-0.1,0.9v3.5h-1.9V366.2z"/>
		<path d="M294.1,373c0.2,0.1,0.5,0.2,0.7,0.2c0.2,0.1,0.4,0.1,0.6,0.2c0.2,0,0.4,0.1,0.6,0.1c0.2,0,0.4,0,0.7,0
			c0.4,0,0.7-0.1,1-0.2c0.3-0.1,0.5-0.3,0.6-0.4c0.2-0.2,0.3-0.4,0.3-0.6c0.1-0.2,0.1-0.5,0.1-0.7v-0.9c-0.2,0.3-0.5,0.5-0.9,0.7
			c-0.4,0.2-0.8,0.3-1.3,0.3c-1.1,0-1.9-0.3-2.4-1c-0.5-0.6-0.8-1.6-0.8-2.7c0-0.5,0.1-1,0.2-1.5c0.1-0.5,0.3-0.8,0.6-1.2
			s0.6-0.6,1-0.8c0.4-0.2,0.8-0.3,1.3-0.3c0.6,0,1,0.1,1.4,0.3c0.4,0.2,0.7,0.5,0.9,0.8v-1h1.9v7c0,0.5-0.1,1-0.2,1.5
			c-0.1,0.4-0.4,0.8-0.7,1.1c-0.3,0.3-0.7,0.5-1.1,0.7c-0.5,0.2-1,0.3-1.6,0.3c-0.3,0-0.6,0-0.9,0c-0.3,0-0.5-0.1-0.7-0.1
			c-0.2,0-0.4-0.1-0.7-0.2c-0.2-0.1-0.4-0.1-0.6-0.2V373z M297,370.2c0.6,0,1-0.2,1.3-0.6c0.3-0.4,0.4-0.9,0.4-1.6
			c0-0.2,0-0.5-0.1-0.8c-0.1-0.3-0.2-0.5-0.3-0.7c-0.1-0.2-0.3-0.4-0.6-0.5c-0.2-0.1-0.5-0.2-0.8-0.2c-0.3,0-0.5,0.1-0.7,0.2
			c-0.2,0.1-0.4,0.3-0.5,0.5c-0.1,0.2-0.2,0.4-0.3,0.7c-0.1,0.3-0.1,0.5-0.1,0.8c0,0.7,0.1,1.3,0.4,1.6
			C295.9,370,296.4,370.2,297,370.2z"/>
		<path d="M311.1,365.8c-0.1,0-0.2-0.1-0.3-0.2c-0.2-0.1-0.4-0.1-0.6-0.1c-0.3,0-0.5,0.1-0.7,0.2c-0.2,0.1-0.4,0.3-0.5,0.5
			c-0.2,0.3-0.4,0.7-0.5,1.1c-0.1,0.5-0.2,0.9-0.2,1.4v2.8h-1.1V366c0-0.2,0-0.4-0.1-0.4c-0.1-0.1-0.2-0.1-0.3-0.1
			c-0.1,0-0.2,0-0.3,0.1c-0.1,0-0.2,0.1-0.3,0.2l-0.3-0.5c0.2-0.2,0.4-0.3,0.7-0.4c0.2-0.1,0.5-0.1,0.7-0.1c0.4,0,0.7,0.1,0.8,0.4
			c0.1,0.3,0.2,0.7,0.2,1.3c0.2-0.6,0.4-1,0.8-1.3c0.4-0.3,0.8-0.4,1.2-0.4c0.3,0,0.6,0,0.8,0.1c0.2,0.1,0.3,0.2,0.5,0.2
			L311.1,365.8z"/>
		<path d="M312.9,368.4c0,0.3,0.1,0.5,0.2,0.8c0.1,0.3,0.2,0.5,0.4,0.8c0.2,0.2,0.4,0.4,0.7,0.6c0.3,0.1,0.6,0.2,1,0.2
			c0.5,0,0.9-0.1,1.3-0.2c0.4-0.1,0.7-0.2,0.9-0.4v1c-0.2,0.1-0.5,0.2-0.9,0.3c-0.3,0.1-0.8,0.1-1.5,0.1c-0.6,0-1.1-0.1-1.5-0.3
			c-0.4-0.2-0.8-0.4-1.1-0.8c-0.3-0.3-0.5-0.7-0.6-1.1c-0.1-0.4-0.2-0.9-0.2-1.4c0-0.5,0.1-1,0.2-1.5c0.2-0.4,0.4-0.8,0.7-1.1
			c0.3-0.3,0.6-0.6,1-0.7c0.4-0.2,0.9-0.3,1.4-0.3c1,0,1.7,0.3,2.2,0.9c0.5,0.6,0.8,1.5,0.8,2.6v0.5H312.9z M316.8,367.6
			c0-0.7-0.2-1.3-0.5-1.7c-0.3-0.4-0.8-0.6-1.4-0.6c-0.6,0-1.1,0.2-1.4,0.6c-0.3,0.4-0.5,1-0.6,1.7H316.8z"/>
		<path d="M326.8,368c0,0.5-0.1,1-0.2,1.4c-0.1,0.4-0.3,0.8-0.6,1.1c-0.3,0.3-0.6,0.6-1,0.8c-0.4,0.2-0.8,0.3-1.3,0.3
			c-0.6,0-1.1-0.1-1.6-0.3c-0.4-0.2-0.7-0.5-1-0.9v4.4h-1.1V366c0-0.2,0-0.4-0.1-0.4c-0.1-0.1-0.2-0.1-0.3-0.1c-0.1,0-0.2,0-0.3,0.1
			c-0.1,0-0.2,0.1-0.3,0.2l-0.3-0.5c0.2-0.2,0.4-0.3,0.7-0.4c0.2-0.1,0.5-0.1,0.7-0.1c0.4,0,0.7,0.1,0.8,0.3
			c0.2,0.2,0.2,0.5,0.3,0.8c0.3-0.4,0.6-0.7,1.1-0.9c0.4-0.2,0.9-0.3,1.4-0.3c0.5,0,1,0.1,1.4,0.3c0.4,0.2,0.7,0.4,1,0.8
			c0.3,0.3,0.5,0.7,0.6,1.1C326.7,367,326.8,367.5,326.8,368z M325.6,368c0-0.4,0-0.7-0.1-1c-0.1-0.3-0.2-0.6-0.4-0.9
			c-0.2-0.3-0.4-0.4-0.6-0.6c-0.3-0.1-0.6-0.2-0.9-0.2s-0.7,0.1-1,0.2c-0.3,0.1-0.5,0.3-0.7,0.6c-0.2,0.3-0.4,0.5-0.5,0.9
			c-0.1,0.3-0.2,0.7-0.2,1c0,0.4,0.1,0.7,0.2,1c0.1,0.3,0.3,0.6,0.4,0.9c0.2,0.3,0.4,0.4,0.7,0.6c0.3,0.1,0.6,0.2,1,0.2
			s0.7-0.1,0.9-0.2c0.3-0.1,0.5-0.3,0.6-0.6c0.2-0.3,0.3-0.5,0.4-0.9C325.5,368.7,325.6,368.4,325.6,368z"/>
		<path d="M335.1,368c0,0.5-0.1,1-0.2,1.5c-0.2,0.4-0.4,0.8-0.7,1.1c-0.3,0.3-0.7,0.6-1.1,0.7c-0.4,0.2-0.9,0.3-1.4,0.3
			c-0.5,0-1-0.1-1.4-0.3c-0.4-0.2-0.8-0.4-1.1-0.7c-0.3-0.3-0.5-0.7-0.7-1.1c-0.2-0.4-0.2-0.9-0.2-1.5c0-0.5,0.1-1,0.2-1.5
			c0.2-0.4,0.4-0.8,0.7-1.1c0.3-0.3,0.7-0.6,1.1-0.7c0.4-0.2,0.9-0.3,1.4-0.3c0.5,0,1,0.1,1.4,0.3c0.4,0.2,0.8,0.4,1.1,0.7
			c0.3,0.3,0.5,0.7,0.7,1.1C335,367,335.1,367.5,335.1,368z M333.8,368c0-0.4,0-0.7-0.1-1c-0.1-0.3-0.2-0.6-0.4-0.9
			c-0.2-0.3-0.4-0.5-0.7-0.6c-0.3-0.2-0.6-0.2-1-0.2c-0.4,0-0.7,0.1-1,0.2c-0.3,0.2-0.5,0.4-0.7,0.6c-0.2,0.3-0.3,0.5-0.4,0.9
			c-0.1,0.3-0.1,0.7-0.1,1c0,0.4,0,0.7,0.1,1c0.1,0.3,0.2,0.6,0.4,0.9c0.2,0.3,0.4,0.5,0.7,0.6c0.3,0.2,0.6,0.2,1,0.2
			c0.4,0,0.7-0.1,1-0.2c0.3-0.2,0.5-0.4,0.7-0.6c0.2-0.3,0.3-0.5,0.4-0.9C333.8,368.7,333.8,368.4,333.8,368z"/>
		<path d="M341.2,365.8c-0.1,0-0.2-0.1-0.3-0.2c-0.2-0.1-0.4-0.1-0.6-0.1c-0.3,0-0.5,0.1-0.7,0.2c-0.2,0.1-0.4,0.3-0.5,0.5
			c-0.2,0.3-0.4,0.7-0.5,1.1c-0.1,0.5-0.2,0.9-0.2,1.4v2.8h-1.1V366c0-0.2,0-0.4-0.1-0.4c-0.1-0.1-0.2-0.1-0.3-0.1
			c-0.1,0-0.2,0-0.3,0.1c-0.1,0-0.2,0.1-0.3,0.2l-0.3-0.5c0.2-0.2,0.4-0.3,0.7-0.4c0.2-0.1,0.5-0.1,0.7-0.1c0.4,0,0.7,0.1,0.8,0.4
			c0.1,0.3,0.2,0.7,0.2,1.3c0.2-0.6,0.4-1,0.8-1.3c0.4-0.3,0.8-0.4,1.2-0.4c0.3,0,0.6,0,0.8,0.1c0.2,0.1,0.3,0.2,0.5,0.2
			L341.2,365.8z"/>
		<path d="M346.6,371.2c-0.1,0-0.1,0.1-0.3,0.1c-0.1,0-0.2,0.1-0.4,0.1c-0.1,0-0.3,0.1-0.4,0.1c-0.1,0-0.3,0-0.4,0
			c-0.6,0-1.1-0.1-1.4-0.4c-0.3-0.3-0.5-0.8-0.5-1.4v-4.3h-1.3v-0.8h1.3v-2h1.1v2h1.9v0.8h-1.9v4.2c0,0.4,0.1,0.7,0.2,0.9
			c0.1,0.2,0.4,0.3,0.7,0.3c0.2,0,0.5,0,0.7-0.1c0.3-0.1,0.4-0.2,0.5-0.2V371.2z"/>
		<path d="M358.1,369.7c0,0.6-0.2,1.1-0.6,1.4c-0.4,0.3-0.9,0.5-1.4,0.5c-0.4,0-0.8,0-1.2-0.1c-0.4-0.1-0.9-0.1-1.3-0.1
			c-0.5,0-0.9,0-1.2,0.1c-0.4,0-0.8,0.1-1.2,0.2v-0.8l3.3-3.3c0.4-0.4,0.7-0.8,1-1.1c0.3-0.3,0.5-0.7,0.6-1c0.2-0.3,0.3-0.6,0.3-0.8
			c0.1-0.3,0.1-0.5,0.1-0.7c0-0.6-0.2-1-0.5-1.4c-0.3-0.3-0.9-0.5-1.6-0.5c-0.3,0-0.5,0-0.7,0.1c-0.2,0.1-0.4,0.1-0.6,0.2
			c-0.2,0.1-0.4,0.2-0.5,0.3c-0.2,0.1-0.3,0.2-0.4,0.3l-0.5-0.7c0.1-0.1,0.2-0.2,0.4-0.4c0.2-0.1,0.4-0.3,0.7-0.4
			c0.3-0.1,0.5-0.2,0.9-0.3c0.3-0.1,0.7-0.1,1-0.1c0.4,0,0.9,0.1,1.2,0.2c0.4,0.1,0.7,0.3,1,0.5c0.3,0.2,0.5,0.5,0.7,0.9
			s0.2,0.8,0.2,1.3c0,0.4-0.1,0.8-0.2,1.1c-0.1,0.4-0.3,0.7-0.6,1.1c-0.2,0.4-0.5,0.7-0.8,1.1c-0.3,0.4-0.6,0.7-1,1l-2.6,2.5
			c0.3-0.1,0.5-0.2,0.8-0.3c0.3-0.1,0.5-0.1,0.7-0.1c0.3,0,0.5,0,0.7,0s0.4,0.1,0.5,0.1s0.3,0.1,0.5,0.1c0.1,0,0.3,0,0.5,0
			c0.3,0,0.5-0.1,0.7-0.2c0.2-0.1,0.3-0.4,0.4-0.7L358.1,369.7z"/>
		<path d="M366.9,366.3c0,0.6,0,1.2-0.1,1.8c-0.1,0.6-0.3,1.2-0.5,1.7c-0.3,0.5-0.6,1-1.1,1.3c-0.5,0.3-1.1,0.5-1.8,0.5
			s-1.3-0.2-1.8-0.5c-0.5-0.3-0.8-0.8-1.1-1.3c-0.3-0.5-0.4-1.1-0.5-1.7c-0.1-0.6-0.1-1.3-0.1-1.8s0-1.2,0.1-1.8
			c0.1-0.6,0.3-1.2,0.5-1.7c0.3-0.5,0.6-1,1.1-1.3c0.5-0.3,1.1-0.5,1.8-0.5s1.3,0.2,1.8,0.5c0.5,0.3,0.8,0.8,1.1,1.3
			c0.3,0.5,0.4,1.1,0.5,1.7C366.8,365.1,366.9,365.7,366.9,366.3z M365.6,366.3c0-0.4,0-0.8-0.1-1.3c0-0.5-0.1-1-0.3-1.4
			s-0.4-0.8-0.7-1.2c-0.3-0.3-0.7-0.5-1.2-0.5c-0.5,0-0.9,0.2-1.2,0.5c-0.3,0.3-0.5,0.7-0.7,1.2c-0.2,0.5-0.3,0.9-0.3,1.4
			c0,0.5-0.1,0.9-0.1,1.3c0,0.4,0,0.8,0.1,1.3c0,0.5,0.1,1,0.3,1.4c0.2,0.5,0.4,0.8,0.7,1.2c0.3,0.3,0.7,0.5,1.2,0.5
			c0.5,0,0.9-0.2,1.2-0.5c0.3-0.3,0.5-0.7,0.7-1.2c0.2-0.5,0.3-0.9,0.3-1.4C365.6,367.1,365.6,366.6,365.6,366.3z"/>
		<path d="M369.9,371.5v-0.9h1.3v-8.3l-1.5,0.4v-0.9l2.7-0.7v9.6h1.3v0.9H369.9z"/>
		<path d="M383,368.6c0,0.5-0.1,1-0.3,1.4c-0.2,0.4-0.5,0.7-0.8,1c-0.3,0.3-0.7,0.5-1.1,0.6c-0.4,0.1-0.9,0.2-1.3,0.2
			c-0.6,0-1.1-0.1-1.6-0.2c-0.5-0.1-0.9-0.3-1.4-0.5v-1.1c0.2,0.1,0.4,0.2,0.6,0.3c0.2,0.1,0.4,0.2,0.6,0.3c0.2,0.1,0.5,0.1,0.8,0.2
			c0.3,0,0.6,0.1,1,0.1c0.3,0,0.6,0,0.9-0.1c0.3-0.1,0.5-0.2,0.7-0.4c0.2-0.2,0.4-0.4,0.5-0.7c0.1-0.3,0.2-0.6,0.2-0.9
			c0-0.4-0.1-0.7-0.2-1c-0.1-0.3-0.3-0.5-0.6-0.6c-0.2-0.2-0.5-0.3-0.8-0.3c-0.3-0.1-0.6-0.1-0.9-0.1h-0.4v-1h0.4
			c0.2,0,0.5,0,0.8-0.1c0.3,0,0.5-0.1,0.7-0.3c0.2-0.1,0.4-0.3,0.5-0.6c0.1-0.2,0.2-0.6,0.2-1c0-0.5-0.2-1-0.5-1.3
			c-0.3-0.3-0.8-0.5-1.5-0.5c-0.3,0-0.5,0-0.8,0.1c-0.2,0.1-0.5,0.1-0.7,0.2c-0.2,0.1-0.4,0.2-0.5,0.3c-0.2,0.1-0.3,0.2-0.4,0.2
			l-0.5-0.7c0.1-0.1,0.3-0.2,0.5-0.3c0.2-0.1,0.4-0.2,0.7-0.3c0.3-0.1,0.5-0.2,0.8-0.3c0.3-0.1,0.6-0.1,0.9-0.1
			c0.4,0,0.9,0.1,1.2,0.2c0.4,0.1,0.7,0.3,1,0.5c0.3,0.2,0.5,0.5,0.7,0.8c0.2,0.3,0.2,0.7,0.2,1.1c0,0.6-0.2,1.1-0.5,1.5
			c-0.3,0.4-0.7,0.7-1.3,0.9v0c0.3,0.1,0.6,0.2,0.9,0.3c0.3,0.2,0.5,0.3,0.6,0.6c0.2,0.2,0.3,0.5,0.4,0.8
			C383,368,383,368.2,383,368.6z"/>
	</g>
	<g>
		<path d="M7.5,39.8c0,0.5-0.2,0.9-0.6,1.2c-0.4,0.3-0.8,0.4-1.3,0.4c-0.2,0-0.4,0-0.5-0.1c-0.2,0-0.4-0.1-0.6-0.1
			c-0.2-0.1-0.4-0.1-0.6-0.1C3.7,41,3.4,41,3.2,41c-0.2,0-0.4,0-0.6,0c-0.2,0-0.4,0-0.5,0.1c-0.2,0-0.3,0.1-0.5,0.1
			c-0.2,0-0.4,0.1-0.6,0.1v-0.7c0.3-0.1,0.5-0.2,0.7-0.3c0.2-0.1,0.4-0.3,0.5-0.5c0.1-0.2,0.2-0.4,0.3-0.7c0-0.2,0.1-0.5,0.1-0.7
			c0-0.1,0-0.1,0-0.2c0-0.1,0-0.2,0-0.3c0-0.1,0-0.2,0-0.4c0-0.2,0-0.3,0-0.6H1v-0.8h1.4c0-0.3,0-0.6,0-0.8c0-0.2,0-0.3,0-0.4
			c0-0.1,0-0.2,0-0.2c0,0,0-0.1,0-0.1c0-0.5,0.1-0.9,0.2-1.2C2.8,33.2,3,33,3.2,32.7c0.3-0.2,0.5-0.4,0.9-0.5c0.3-0.1,0.7-0.2,1-0.2
			c0.5,0,1,0.1,1.3,0.2c0.4,0.2,0.7,0.3,1,0.5L7,33.5c-0.3-0.2-0.6-0.3-0.8-0.4c-0.3-0.1-0.6-0.2-1-0.2c-0.3,0-0.6,0-0.8,0.1
			s-0.4,0.2-0.5,0.4c-0.1,0.2-0.2,0.4-0.3,0.6c-0.1,0.2-0.1,0.5-0.1,0.8c0,0,0,0.1,0,0.1c0,0,0,0.1,0,0.2c0,0.1,0,0.2,0,0.4
			c0,0.2,0,0.4,0,0.7h2.3V37H3.5c0,0.2,0,0.3,0,0.4c0,0.1,0,0.2,0,0.3c0,0.1,0,0.1,0,0.1c0,0,0,0.1,0,0.1c0,0.6-0.1,1-0.2,1.4
			c-0.1,0.4-0.3,0.7-0.4,0.9c0.1,0,0.1,0,0.2-0.1c0.1,0,0.2,0,0.3-0.1c0.1,0,0.2,0,0.3,0c0.1,0,0.2,0,0.3,0c0.2,0,0.4,0,0.5,0.1
			c0.2,0,0.3,0.1,0.5,0.1c0.1,0,0.3,0.1,0.4,0.1c0.1,0,0.3,0,0.5,0c0.3,0,0.5-0.1,0.7-0.2c0.2-0.1,0.3-0.3,0.3-0.6L7.5,39.8z"/>
		<path d="M10.1,41.3v-0.8h1.2v-7.2L10,33.7v-0.8l2.3-0.6v8.3h1.2v0.8H10.1z"/>
		<path d="M22,36.8c0,0.5,0,1-0.1,1.6c-0.1,0.6-0.2,1.1-0.5,1.5c-0.2,0.5-0.5,0.8-0.9,1.1c-0.4,0.3-0.9,0.4-1.5,0.4
			c-0.6,0-1.1-0.1-1.5-0.4c-0.4-0.3-0.7-0.7-0.9-1.1c-0.2-0.5-0.4-1-0.5-1.5c-0.1-0.6-0.1-1.1-0.1-1.6s0-1,0.1-1.6
			c0.1-0.6,0.2-1.1,0.5-1.5c0.2-0.5,0.5-0.8,0.9-1.1c0.4-0.3,0.9-0.4,1.5-0.4c0.6,0,1.1,0.1,1.5,0.4c0.4,0.3,0.7,0.7,0.9,1.1
			c0.2,0.5,0.4,1,0.5,1.5C22,35.7,22,36.3,22,36.8z M20.9,36.8c0-0.3,0-0.7-0.1-1.2c0-0.4-0.1-0.9-0.3-1.3c-0.1-0.4-0.3-0.7-0.6-1
			c-0.3-0.3-0.6-0.4-1.1-0.4c-0.5,0-0.8,0.1-1.1,0.4c-0.3,0.3-0.5,0.6-0.6,1c-0.1,0.4-0.2,0.8-0.3,1.3c0,0.4-0.1,0.8-0.1,1.2
			c0,0.3,0,0.7,0.1,1.2c0,0.4,0.1,0.9,0.3,1.3c0.1,0.4,0.3,0.7,0.6,1c0.3,0.3,0.6,0.4,1.1,0.4c0.4,0,0.8-0.1,1.1-0.4s0.5-0.6,0.6-1
			c0.1-0.4,0.2-0.8,0.3-1.3C20.9,37.5,20.9,37.1,20.9,36.8z"/>
		<path d="M25.4,40.3c-0.1,0.3-0.2,0.5-0.3,0.8c-0.1,0.3-0.2,0.5-0.4,0.8c-0.1,0.2-0.3,0.5-0.4,0.7c-0.1,0.2-0.3,0.4-0.4,0.5
			l-0.7-0.2c0.1-0.2,0.2-0.4,0.3-0.6c0.1-0.2,0.2-0.5,0.3-0.7c0.1-0.2,0.2-0.5,0.2-0.8c0.1-0.3,0.1-0.5,0.2-0.8L25.4,40.3z"/>
		<path d="M33,36.8c0,0.5,0,1-0.1,1.6c-0.1,0.6-0.2,1.1-0.5,1.5c-0.2,0.5-0.5,0.8-0.9,1.1c-0.4,0.3-0.9,0.4-1.5,0.4
			c-0.6,0-1.1-0.1-1.5-0.4c-0.4-0.3-0.7-0.7-0.9-1.1c-0.2-0.5-0.4-1-0.5-1.5c-0.1-0.6-0.1-1.1-0.1-1.6s0-1,0.1-1.6
			c0.1-0.6,0.2-1.1,0.5-1.5c0.2-0.5,0.5-0.8,0.9-1.1c0.4-0.3,0.9-0.4,1.5-0.4c0.6,0,1.1,0.1,1.5,0.4c0.4,0.3,0.7,0.7,0.9,1.1
			c0.2,0.5,0.4,1,0.5,1.5C32.9,35.7,33,36.3,33,36.8z M31.9,36.8c0-0.3,0-0.7-0.1-1.2c0-0.4-0.1-0.9-0.3-1.3c-0.1-0.4-0.3-0.7-0.6-1
			c-0.3-0.3-0.6-0.4-1.1-0.4c-0.5,0-0.8,0.1-1.1,0.4c-0.3,0.3-0.5,0.6-0.6,1c-0.1,0.4-0.2,0.8-0.3,1.3c0,0.4-0.1,0.8-0.1,1.2
			c0,0.3,0,0.7,0.1,1.2c0,0.4,0.1,0.9,0.3,1.3c0.1,0.4,0.3,0.7,0.6,1s0.6,0.4,1.1,0.4c0.4,0,0.8-0.1,1.1-0.4c0.3-0.3,0.5-0.6,0.6-1
			c0.1-0.4,0.2-0.8,0.3-1.3C31.8,37.5,31.9,37.1,31.9,36.8z"/>
		<path d="M40.3,36.8c0,0.5,0,1-0.1,1.6c-0.1,0.6-0.2,1.1-0.5,1.5c-0.2,0.5-0.5,0.8-0.9,1.1c-0.4,0.3-0.9,0.4-1.5,0.4
			c-0.6,0-1.1-0.1-1.5-0.4c-0.4-0.3-0.7-0.7-0.9-1.1c-0.2-0.5-0.4-1-0.5-1.5c-0.1-0.6-0.1-1.1-0.1-1.6s0-1,0.1-1.6
			c0.1-0.6,0.2-1.1,0.5-1.5c0.2-0.5,0.5-0.8,0.9-1.1c0.4-0.3,0.9-0.4,1.5-0.4c0.6,0,1.1,0.1,1.5,0.4c0.4,0.3,0.7,0.7,0.9,1.1
			c0.2,0.5,0.4,1,0.5,1.5C40.2,35.7,40.3,36.3,40.3,36.8z M39.2,36.8c0-0.3,0-0.7-0.1-1.2c0-0.4-0.1-0.9-0.3-1.3
			c-0.1-0.4-0.3-0.7-0.6-1c-0.3-0.3-0.6-0.4-1.1-0.4c-0.5,0-0.8,0.1-1.1,0.4c-0.3,0.3-0.5,0.6-0.6,1c-0.1,0.4-0.2,0.8-0.3,1.3
			c0,0.4-0.1,0.8-0.1,1.2c0,0.3,0,0.7,0.1,1.2c0,0.4,0.1,0.9,0.3,1.3c0.1,0.4,0.3,0.7,0.6,1c0.3,0.3,0.6,0.4,1.1,0.4
			c0.4,0,0.8-0.1,1.1-0.4s0.5-0.6,0.6-1c0.1-0.4,0.2-0.8,0.3-1.3C39.1,37.5,39.2,37.1,39.2,36.8z"/>
		<path d="M47.6,36.8c0,0.5,0,1-0.1,1.6c-0.1,0.6-0.2,1.1-0.5,1.5c-0.2,0.5-0.5,0.8-0.9,1.1s-0.9,0.4-1.5,0.4
			c-0.6,0-1.1-0.1-1.5-0.4c-0.4-0.3-0.7-0.7-0.9-1.1c-0.2-0.5-0.4-1-0.5-1.5c-0.1-0.6-0.1-1.1-0.1-1.6s0-1,0.1-1.6
			c0.1-0.6,0.2-1.1,0.5-1.5c0.2-0.5,0.5-0.8,0.9-1.1c0.4-0.3,0.9-0.4,1.5-0.4c0.6,0,1.1,0.1,1.5,0.4s0.7,0.7,0.9,1.1
			c0.2,0.5,0.4,1,0.5,1.5C47.5,35.7,47.6,36.3,47.6,36.8z M46.5,36.8c0-0.3,0-0.7-0.1-1.2c0-0.4-0.1-0.9-0.3-1.3
			c-0.1-0.4-0.3-0.7-0.6-1c-0.3-0.3-0.6-0.4-1.1-0.4c-0.5,0-0.8,0.1-1.1,0.4c-0.3,0.3-0.5,0.6-0.6,1c-0.1,0.4-0.2,0.8-0.3,1.3
			c0,0.4-0.1,0.8-0.1,1.2c0,0.3,0,0.7,0.1,1.2c0,0.4,0.1,0.9,0.3,1.3c0.1,0.4,0.3,0.7,0.6,1s0.6,0.4,1.1,0.4c0.4,0,0.8-0.1,1.1-0.4
			c0.3-0.3,0.5-0.6,0.6-1c0.1-0.4,0.2-0.8,0.3-1.3C46.5,37.5,46.5,37.1,46.5,36.8z"/>
	</g>
	<g>
		<path d="M8.2,170.8c0,0.5-0.2,0.9-0.6,1.2c-0.4,0.3-0.8,0.4-1.3,0.4c-0.2,0-0.4,0-0.5-0.1c-0.2,0-0.4-0.1-0.6-0.1
			c-0.2-0.1-0.4-0.1-0.6-0.1c-0.2,0-0.4-0.1-0.6-0.1c-0.2,0-0.4,0-0.6,0c-0.2,0-0.4,0-0.5,0.1c-0.2,0-0.3,0.1-0.5,0.1
			c-0.2,0-0.4,0.1-0.6,0.1v-0.7c0.3-0.1,0.5-0.2,0.7-0.3c0.2-0.1,0.4-0.3,0.5-0.5c0.1-0.2,0.2-0.4,0.3-0.7c0-0.2,0.1-0.5,0.1-0.7
			c0-0.1,0-0.1,0-0.2c0-0.1,0-0.2,0-0.3c0-0.1,0-0.2,0-0.4c0-0.2,0-0.3,0-0.6H1.7v-0.8h1.4c0-0.3,0-0.6,0-0.8c0-0.2,0-0.3,0-0.4
			c0-0.1,0-0.2,0-0.2c0,0,0-0.1,0-0.1c0-0.5,0.1-0.9,0.2-1.2c0.2-0.3,0.4-0.6,0.6-0.8c0.3-0.2,0.5-0.4,0.9-0.5
			c0.3-0.1,0.7-0.2,1-0.2c0.5,0,1,0.1,1.3,0.2c0.4,0.2,0.7,0.3,1,0.5l-0.4,0.6c-0.3-0.2-0.6-0.3-0.8-0.4c-0.3-0.1-0.6-0.2-1-0.2
			c-0.3,0-0.6,0-0.8,0.1c-0.2,0.1-0.4,0.2-0.5,0.4c-0.1,0.2-0.2,0.4-0.3,0.6c-0.1,0.2-0.1,0.5-0.1,0.8c0,0,0,0.1,0,0.1
			c0,0,0,0.1,0,0.2c0,0.1,0,0.2,0,0.4c0,0.2,0,0.4,0,0.7h2.3v0.8H4.2c0,0.2,0,0.3,0,0.4c0,0.1,0,0.2,0,0.3c0,0.1,0,0.1,0,0.1
			s0,0.1,0,0.1c0,0.6-0.1,1-0.2,1.4c-0.1,0.4-0.3,0.7-0.4,0.9c0.1,0,0.1,0,0.2-0.1c0.1,0,0.2,0,0.3-0.1c0.1,0,0.2,0,0.3,0
			c0.1,0,0.2,0,0.3,0c0.2,0,0.4,0,0.5,0.1c0.2,0,0.3,0.1,0.5,0.1c0.1,0,0.3,0.1,0.4,0.1c0.1,0,0.3,0,0.5,0c0.3,0,0.5-0.1,0.7-0.2
			c0.2-0.1,0.3-0.3,0.3-0.6L8.2,170.8z"/>
		<path d="M14.9,169.5c0,0.5-0.1,0.9-0.2,1.2c-0.2,0.4-0.4,0.7-0.6,0.9c-0.3,0.3-0.6,0.5-1,0.6c-0.4,0.1-0.8,0.2-1.2,0.2
			c-0.3,0-0.6,0-0.8-0.1c-0.3,0-0.5-0.1-0.7-0.2c-0.2-0.1-0.4-0.1-0.5-0.2c-0.2-0.1-0.3-0.1-0.4-0.2v-1c0.2,0.1,0.4,0.2,0.6,0.3
			c0.2,0.1,0.4,0.2,0.5,0.2c0.2,0.1,0.4,0.1,0.6,0.1c0.2,0,0.4,0,0.7,0c0.4,0,0.7-0.1,0.9-0.2c0.3-0.1,0.5-0.3,0.6-0.4
			c0.2-0.2,0.3-0.4,0.4-0.7c0.1-0.3,0.1-0.5,0.1-0.9c0-0.7-0.2-1.2-0.6-1.6c-0.4-0.3-0.9-0.5-1.5-0.5c-0.3,0-0.6,0-1,0.1
			c-0.4,0.1-0.7,0.2-1.1,0.4l0.2-4.7h4.6v0.9h-3.7l-0.1,2.6c0.2-0.1,0.4-0.1,0.6-0.1c0.2,0,0.4,0,0.7,0c0.9,0,1.6,0.3,2.1,0.8
			C14.7,167.9,14.9,168.6,14.9,169.5z"/>
		<path d="M18.7,171.4c-0.1,0.3-0.2,0.5-0.3,0.8c-0.1,0.3-0.2,0.5-0.4,0.8c-0.1,0.2-0.3,0.5-0.4,0.7c-0.1,0.2-0.3,0.4-0.4,0.5
			l-0.7-0.2c0.1-0.2,0.2-0.4,0.3-0.6c0.1-0.2,0.2-0.5,0.3-0.7c0.1-0.2,0.2-0.5,0.2-0.8c0.1-0.3,0.1-0.5,0.2-0.8L18.7,171.4z"/>
		<path d="M26.3,167.8c0,0.5,0,1-0.1,1.6c-0.1,0.6-0.2,1.1-0.5,1.5c-0.2,0.5-0.5,0.8-0.9,1.1c-0.4,0.3-0.9,0.4-1.5,0.4
			c-0.6,0-1.1-0.1-1.5-0.4c-0.4-0.3-0.7-0.7-0.9-1.1c-0.2-0.5-0.4-1-0.5-1.5c-0.1-0.6-0.1-1.1-0.1-1.6c0-0.5,0-1,0.1-1.6
			c0.1-0.6,0.2-1.1,0.5-1.5c0.2-0.5,0.5-0.8,0.9-1.1c0.4-0.3,0.9-0.4,1.5-0.4c0.6,0,1.1,0.1,1.5,0.4c0.4,0.3,0.7,0.7,0.9,1.1
			c0.2,0.5,0.4,1,0.5,1.5C26.3,166.8,26.3,167.3,26.3,167.8z M25.2,167.8c0-0.3,0-0.7-0.1-1.2s-0.1-0.9-0.3-1.3
			c-0.1-0.4-0.3-0.7-0.6-1c-0.3-0.3-0.6-0.4-1.1-0.4c-0.5,0-0.8,0.1-1.1,0.4c-0.3,0.3-0.5,0.6-0.6,1c-0.1,0.4-0.2,0.8-0.3,1.3
			s-0.1,0.8-0.1,1.2c0,0.3,0,0.7,0.1,1.2c0,0.4,0.1,0.9,0.3,1.3c0.1,0.4,0.3,0.7,0.6,1c0.3,0.3,0.6,0.4,1.1,0.4
			c0.4,0,0.8-0.1,1.1-0.4c0.3-0.3,0.5-0.6,0.6-1c0.1-0.4,0.2-0.8,0.3-1.3C25.2,168.5,25.2,168.1,25.2,167.8z"/>
		<path d="M33.6,167.8c0,0.5,0,1-0.1,1.6c-0.1,0.6-0.2,1.1-0.5,1.5c-0.2,0.5-0.5,0.8-0.9,1.1c-0.4,0.3-0.9,0.4-1.5,0.4
			c-0.6,0-1.1-0.1-1.5-0.4c-0.4-0.3-0.7-0.7-0.9-1.1c-0.2-0.5-0.4-1-0.5-1.5c-0.1-0.6-0.1-1.1-0.1-1.6c0-0.5,0-1,0.1-1.6
			c0.1-0.6,0.2-1.1,0.5-1.5c0.2-0.5,0.5-0.8,0.9-1.1c0.4-0.3,0.9-0.4,1.5-0.4c0.6,0,1.1,0.1,1.5,0.4c0.4,0.3,0.7,0.7,0.9,1.1
			c0.2,0.5,0.4,1,0.5,1.5C33.6,166.8,33.6,167.3,33.6,167.8z M32.5,167.8c0-0.3,0-0.7-0.1-1.2s-0.1-0.9-0.3-1.3
			c-0.1-0.4-0.3-0.7-0.6-1c-0.3-0.3-0.6-0.4-1.1-0.4c-0.5,0-0.8,0.1-1.1,0.4c-0.3,0.3-0.5,0.6-0.6,1c-0.1,0.4-0.2,0.8-0.3,1.3
			s-0.1,0.8-0.1,1.2c0,0.3,0,0.7,0.1,1.2c0,0.4,0.1,0.9,0.3,1.3c0.1,0.4,0.3,0.7,0.6,1c0.3,0.3,0.6,0.4,1.1,0.4
			c0.4,0,0.8-0.1,1.1-0.4c0.3-0.3,0.5-0.6,0.6-1c0.1-0.4,0.2-0.8,0.3-1.3C32.5,168.5,32.5,168.1,32.5,167.8z"/>
		<path d="M40.9,167.8c0,0.5,0,1-0.1,1.6c-0.1,0.6-0.2,1.1-0.5,1.5c-0.2,0.5-0.5,0.8-0.9,1.1c-0.4,0.3-0.9,0.4-1.5,0.4
			c-0.6,0-1.1-0.1-1.5-0.4c-0.4-0.3-0.7-0.7-0.9-1.1c-0.2-0.5-0.4-1-0.5-1.5c-0.1-0.6-0.1-1.1-0.1-1.6c0-0.5,0-1,0.1-1.6
			c0.1-0.6,0.2-1.1,0.5-1.5c0.2-0.5,0.5-0.8,0.9-1.1c0.4-0.3,0.9-0.4,1.5-0.4c0.6,0,1.1,0.1,1.5,0.4c0.4,0.3,0.7,0.7,0.9,1.1
			c0.2,0.5,0.4,1,0.5,1.5C40.9,166.8,40.9,167.3,40.9,167.8z M39.8,167.8c0-0.3,0-0.7-0.1-1.2s-0.1-0.9-0.3-1.3
			c-0.1-0.4-0.3-0.7-0.6-1c-0.3-0.3-0.6-0.4-1.1-0.4c-0.5,0-0.8,0.1-1.1,0.4c-0.3,0.3-0.5,0.6-0.6,1c-0.1,0.4-0.2,0.8-0.3,1.3
			s-0.1,0.8-0.1,1.2c0,0.3,0,0.7,0.1,1.2c0,0.4,0.1,0.9,0.3,1.3c0.1,0.4,0.3,0.7,0.6,1c0.3,0.3,0.6,0.4,1.1,0.4
			c0.4,0,0.8-0.1,1.1-0.4c0.3-0.3,0.5-0.6,0.6-1c0.1-0.4,0.2-0.8,0.3-1.3C39.8,168.5,39.8,168.1,39.8,167.8z"/>
	</g>
	<rect x="74.9" y="265.5" class="st0" width="64.1" height="34.3"/>
	<rect x="153.9" y="250.4" class="st0" width="64.1" height="49.4"/>
	<rect x="234" y="214.5" class="st0" width="64.1" height="85.3"/>
	<rect x="314.4" y="138.5" class="st0" width="64.1" height="161.4"/>
	<rect x="394.9" y="17.5" class="st0" width="64.1" height="282.3"/>
	<g>
		<path d="M92.1,318.8h1.3v-7.1l-1.5,0.4v-1.5l3.4-0.9v9.1h1.3v1.4h-4.6V318.8z"/>
		<path d="M99.4,318.4c0.4,0.2,0.8,0.3,1.2,0.4s0.8,0.1,1.2,0.1c0.3,0,0.6,0,0.9-0.1c0.3-0.1,0.6-0.3,0.8-0.5c0.3-0.2,0.5-0.6,0.6-1
			c0.2-0.4,0.3-1,0.3-1.7c-0.1,0.2-0.3,0.3-0.5,0.4c-0.2,0.1-0.4,0.2-0.6,0.3c-0.2,0.1-0.4,0.1-0.6,0.2s-0.4,0.1-0.5,0.1
			c-0.5,0-1-0.1-1.4-0.2c-0.4-0.2-0.8-0.4-1.1-0.7c-0.3-0.3-0.5-0.7-0.7-1.1c-0.2-0.4-0.3-0.9-0.3-1.4c0-0.5,0.1-1,0.3-1.4
			c0.2-0.4,0.4-0.8,0.8-1.1c0.3-0.3,0.7-0.5,1.1-0.7s0.9-0.3,1.4-0.3c0.8,0,1.5,0.2,2,0.5s0.9,0.7,1.2,1.2c0.3,0.5,0.5,1.1,0.6,1.7
			c0.1,0.6,0.2,1.3,0.2,1.9c0,0.9-0.1,1.7-0.3,2.3c-0.2,0.7-0.4,1.2-0.8,1.7c-0.3,0.4-0.8,0.8-1.3,1.1c-0.6,0.3-1.2,0.4-1.9,0.4
			c-0.3,0-0.5,0-0.8,0c-0.2,0-0.4,0-0.6-0.1c-0.2,0-0.4-0.1-0.6-0.1s-0.4-0.1-0.6-0.2V318.4z M102.4,315c0.5,0,1-0.2,1.3-0.5
			c0.3-0.3,0.5-0.8,0.5-1.5c0-0.3,0-0.5-0.1-0.7c-0.1-0.2-0.2-0.5-0.3-0.6c-0.1-0.2-0.3-0.3-0.6-0.5c-0.2-0.1-0.5-0.2-0.8-0.2
			c-0.3,0-0.5,0.1-0.8,0.2c-0.2,0.1-0.4,0.3-0.6,0.4c-0.2,0.2-0.3,0.4-0.4,0.6c-0.1,0.2-0.1,0.5-0.1,0.8c0,0.6,0.2,1.1,0.5,1.4
			C101.5,314.9,101.9,315,102.4,315z"/>
		<path d="M107.8,318.4c0.4,0.2,0.8,0.3,1.2,0.4s0.8,0.1,1.2,0.1c0.3,0,0.6,0,0.9-0.1s0.6-0.3,0.8-0.5c0.3-0.2,0.5-0.6,0.6-1
			c0.2-0.4,0.3-1,0.3-1.7c-0.1,0.2-0.3,0.3-0.5,0.4c-0.2,0.1-0.4,0.2-0.6,0.3c-0.2,0.1-0.4,0.1-0.6,0.2c-0.2,0-0.4,0.1-0.5,0.1
			c-0.5,0-1-0.1-1.4-0.2c-0.4-0.2-0.8-0.4-1.1-0.7c-0.3-0.3-0.5-0.7-0.7-1.1c-0.2-0.4-0.3-0.9-0.3-1.4c0-0.5,0.1-1,0.3-1.4
			c0.2-0.4,0.4-0.8,0.8-1.1c0.3-0.3,0.7-0.5,1.1-0.7c0.4-0.2,0.9-0.3,1.4-0.3c0.8,0,1.5,0.2,2,0.5s0.9,0.7,1.2,1.2
			c0.3,0.5,0.5,1.1,0.6,1.7c0.1,0.6,0.2,1.3,0.2,1.9c0,0.9-0.1,1.7-0.3,2.3c-0.2,0.7-0.4,1.2-0.8,1.7c-0.3,0.4-0.8,0.8-1.3,1.1
			c-0.6,0.3-1.2,0.4-1.9,0.4c-0.3,0-0.5,0-0.8,0c-0.2,0-0.4,0-0.6-0.1c-0.2,0-0.4-0.1-0.6-0.1c-0.2-0.1-0.4-0.1-0.6-0.2V318.4z
			 M110.8,315c0.5,0,1-0.2,1.3-0.5c0.3-0.3,0.5-0.8,0.5-1.5c0-0.3,0-0.5-0.1-0.7c-0.1-0.2-0.2-0.5-0.3-0.6s-0.3-0.3-0.6-0.5
			c-0.2-0.1-0.5-0.2-0.8-0.2c-0.3,0-0.5,0.1-0.8,0.2c-0.2,0.1-0.4,0.3-0.6,0.4c-0.2,0.2-0.3,0.4-0.4,0.6c-0.1,0.2-0.1,0.5-0.1,0.8
			c0,0.6,0.2,1.1,0.5,1.4C109.9,314.9,110.3,315,110.8,315z"/>
		<path d="M121,311.5h-5.2v-1.7h7.2v1.2l-4.3,9.2h-2L121,311.5z"/>
	</g>
	<g>
		<path d="M95,257.2c0,0.5-0.2,0.8-0.5,1.1c-0.3,0.2-0.7,0.4-1.2,0.4c-0.2,0-0.3,0-0.5-0.1c-0.2,0-0.4-0.1-0.5-0.1
			c-0.2,0-0.4-0.1-0.6-0.1c-0.2,0-0.4-0.1-0.6-0.1c-0.2,0-0.4,0-0.5,0c-0.2,0-0.3,0-0.5,0.1c-0.2,0-0.3,0.1-0.5,0.1
			c-0.2,0-0.3,0.1-0.5,0.1V258c0.2-0.1,0.5-0.2,0.6-0.3c0.2-0.1,0.3-0.2,0.4-0.4c0.1-0.2,0.2-0.4,0.2-0.6c0-0.2,0.1-0.4,0.1-0.7
			c0-0.1,0-0.1,0-0.2c0-0.1,0-0.1,0-0.2c0-0.1,0-0.2,0-0.4c0-0.1,0-0.3,0-0.5h-1.3V254h1.3c0-0.3,0-0.5,0-0.7c0-0.2,0-0.3,0-0.4
			s0-0.1,0-0.2s0,0,0-0.1c0-0.4,0.1-0.8,0.2-1.1c0.1-0.3,0.3-0.6,0.5-0.7c0.2-0.2,0.5-0.3,0.8-0.4c0.3-0.1,0.6-0.1,0.9-0.1
			c0.5,0,0.9,0.1,1.2,0.2c0.3,0.1,0.6,0.3,0.9,0.5l-0.4,0.6c-0.3-0.1-0.5-0.3-0.8-0.4c-0.3-0.1-0.6-0.2-0.9-0.2
			c-0.3,0-0.5,0-0.7,0.1c-0.2,0.1-0.4,0.2-0.5,0.4c-0.1,0.2-0.2,0.4-0.3,0.6c-0.1,0.2-0.1,0.5-0.1,0.7c0,0,0,0.1,0,0.1s0,0.1,0,0.2
			c0,0.1,0,0.2,0,0.3c0,0.1,0,0.3,0,0.6h2.1v0.7h-2.1c0,0.2,0,0.3,0,0.4c0,0.1,0,0.2,0,0.2c0,0.1,0,0.1,0,0.1s0,0.1,0,0.1
			c0,0.5-0.1,0.9-0.2,1.3c-0.1,0.3-0.2,0.6-0.4,0.8c0,0,0.1,0,0.2-0.1c0.1,0,0.2,0,0.2,0c0.1,0,0.2,0,0.3,0c0.1,0,0.2,0,0.2,0
			c0.2,0,0.3,0,0.5,0c0.1,0,0.3,0.1,0.4,0.1c0.1,0,0.3,0.1,0.4,0.1c0.1,0,0.3,0,0.4,0c0.2,0,0.4-0.1,0.6-0.2
			c0.1-0.1,0.2-0.3,0.3-0.5L95,257.2z"/>
		<path d="M97.3,258.6v-0.7h1v-6.5l-1.1,0.3V251l2.1-0.6v7.5h1v0.7H97.3z"/>
		<path d="M104.5,257.7c-0.1,0.2-0.2,0.5-0.3,0.7s-0.2,0.5-0.3,0.7c-0.1,0.2-0.2,0.4-0.4,0.6c-0.1,0.2-0.2,0.3-0.3,0.5l-0.6-0.2
			c0.1-0.2,0.2-0.3,0.3-0.5c0.1-0.2,0.2-0.4,0.2-0.6c0.1-0.2,0.2-0.5,0.2-0.7c0.1-0.2,0.1-0.5,0.2-0.7L104.5,257.7z"/>
		<path d="M111,257.2c0,0.5-0.2,0.8-0.5,1.1s-0.7,0.4-1.1,0.4c-0.3,0-0.6,0-0.9-0.1c-0.3-0.1-0.7-0.1-1-0.1c-0.4,0-0.7,0-1,0.1
			c-0.3,0-0.6,0.1-0.9,0.1V258l2.6-2.6c0.3-0.3,0.6-0.6,0.8-0.9c0.2-0.3,0.4-0.5,0.5-0.8c0.1-0.2,0.2-0.5,0.3-0.7
			c0.1-0.2,0.1-0.4,0.1-0.6c0-0.4-0.1-0.8-0.4-1.1c-0.3-0.3-0.7-0.4-1.2-0.4c-0.2,0-0.4,0-0.6,0.1c-0.2,0-0.3,0.1-0.5,0.2
			c-0.2,0.1-0.3,0.1-0.4,0.2c-0.1,0.1-0.2,0.1-0.3,0.2l-0.4-0.5c0.1-0.1,0.2-0.2,0.3-0.3c0.1-0.1,0.3-0.2,0.5-0.3
			c0.2-0.1,0.4-0.2,0.7-0.3c0.2-0.1,0.5-0.1,0.8-0.1c0.3,0,0.7,0,1,0.1c0.3,0.1,0.6,0.2,0.8,0.4c0.2,0.2,0.4,0.4,0.5,0.7
			c0.1,0.3,0.2,0.6,0.2,1c0,0.3-0.1,0.6-0.2,0.9c-0.1,0.3-0.2,0.6-0.4,0.9c-0.2,0.3-0.4,0.6-0.6,0.8c-0.2,0.3-0.5,0.5-0.8,0.8l-2,2
			c0.2-0.1,0.4-0.2,0.6-0.2c0.2-0.1,0.4-0.1,0.6-0.1c0.2,0,0.4,0,0.5,0s0.3,0,0.4,0.1c0.1,0,0.2,0.1,0.4,0.1c0.1,0,0.2,0,0.4,0
			c0.2,0,0.4-0.1,0.5-0.2s0.2-0.3,0.3-0.5L111,257.2z"/>
		<path d="M117.4,256.3c0,0.4-0.1,0.8-0.2,1.1c-0.2,0.3-0.4,0.6-0.6,0.8c-0.3,0.2-0.5,0.4-0.9,0.5c-0.3,0.1-0.7,0.1-1,0.1
			c-0.5,0-0.9,0-1.2-0.1c-0.4-0.1-0.7-0.2-1.1-0.4v-0.9c0.2,0.1,0.3,0.2,0.5,0.3c0.2,0.1,0.3,0.2,0.5,0.2c0.2,0.1,0.4,0.1,0.6,0.2
			c0.2,0,0.5,0.1,0.7,0.1c0.3,0,0.5,0,0.7-0.1c0.2-0.1,0.4-0.2,0.6-0.3c0.2-0.1,0.3-0.3,0.4-0.5c0.1-0.2,0.1-0.4,0.1-0.7
			c0-0.3-0.1-0.6-0.2-0.8c-0.1-0.2-0.3-0.4-0.4-0.5c-0.2-0.1-0.4-0.2-0.6-0.3c-0.2-0.1-0.5-0.1-0.7-0.1h-0.3v-0.8h0.3
			c0.2,0,0.4,0,0.6,0c0.2,0,0.4-0.1,0.6-0.2c0.2-0.1,0.3-0.2,0.4-0.4c0.1-0.2,0.2-0.4,0.2-0.7c0-0.4-0.1-0.8-0.4-1s-0.7-0.4-1.2-0.4
			c-0.2,0-0.4,0-0.6,0.1c-0.2,0-0.4,0.1-0.5,0.2c-0.2,0.1-0.3,0.1-0.4,0.2c-0.1,0.1-0.2,0.1-0.3,0.2l-0.4-0.6
			c0.1-0.1,0.3-0.2,0.4-0.3c0.2-0.1,0.3-0.2,0.5-0.3c0.2-0.1,0.4-0.1,0.6-0.2c0.2-0.1,0.5-0.1,0.7-0.1c0.3,0,0.7,0,1,0.1
			c0.3,0.1,0.6,0.2,0.8,0.4c0.2,0.2,0.4,0.4,0.5,0.7c0.1,0.3,0.2,0.6,0.2,0.9c0,0.5-0.1,0.9-0.4,1.2c-0.2,0.3-0.6,0.6-1,0.7v0
			c0.3,0,0.5,0.1,0.7,0.3c0.2,0.1,0.4,0.3,0.5,0.4c0.1,0.2,0.2,0.4,0.3,0.6C117.4,255.8,117.4,256,117.4,256.3z"/>
		<path d="M124.5,254.5c0,0.5,0,0.9-0.1,1.4c-0.1,0.5-0.2,1-0.4,1.4c-0.2,0.4-0.5,0.7-0.9,1c-0.4,0.3-0.8,0.4-1.4,0.4
			s-1-0.1-1.4-0.4c-0.4-0.3-0.6-0.6-0.9-1c-0.2-0.4-0.4-0.9-0.4-1.4c-0.1-0.5-0.1-1-0.1-1.4c0-0.5,0-0.9,0.1-1.4
			c0.1-0.5,0.2-1,0.4-1.4c0.2-0.4,0.5-0.7,0.9-1c0.4-0.3,0.8-0.4,1.4-0.4s1,0.1,1.4,0.4c0.4,0.3,0.6,0.6,0.9,1
			c0.2,0.4,0.3,0.9,0.4,1.4C124.4,253.5,124.5,254,124.5,254.5z M123.5,254.5c0-0.3,0-0.6-0.1-1c0-0.4-0.1-0.8-0.2-1.1
			c-0.1-0.4-0.3-0.7-0.5-0.9c-0.2-0.2-0.6-0.4-1-0.4c-0.4,0-0.7,0.1-1,0.4c-0.2,0.2-0.4,0.5-0.5,0.9c-0.1,0.4-0.2,0.7-0.2,1.1
			c0,0.4-0.1,0.7-0.1,1c0,0.3,0,0.6,0.1,1c0,0.4,0.1,0.8,0.2,1.1c0.1,0.4,0.3,0.7,0.5,0.9c0.2,0.2,0.6,0.4,1,0.4
			c0.4,0,0.7-0.1,1-0.4c0.2-0.2,0.4-0.5,0.5-0.9c0.1-0.4,0.2-0.7,0.2-1.1C123.5,255.1,123.5,254.8,123.5,254.5z"/>
	</g>
	<g>
		<path d="M174.1,240.8c0,0.5-0.2,0.8-0.5,1.1c-0.3,0.2-0.7,0.4-1.2,0.4c-0.2,0-0.3,0-0.5-0.1c-0.2,0-0.4-0.1-0.5-0.1
			c-0.2,0-0.4-0.1-0.6-0.1c-0.2,0-0.4-0.1-0.6-0.1c-0.2,0-0.4,0-0.5,0c-0.2,0-0.3,0-0.5,0.1c-0.2,0-0.3,0.1-0.5,0.1
			c-0.2,0-0.3,0.1-0.5,0.1v-0.6c0.2-0.1,0.5-0.2,0.6-0.3c0.2-0.1,0.3-0.2,0.4-0.4c0.1-0.2,0.2-0.4,0.2-0.6c0-0.2,0.1-0.4,0.1-0.7
			c0-0.1,0-0.1,0-0.2c0-0.1,0-0.1,0-0.2c0-0.1,0-0.2,0-0.4c0-0.1,0-0.3,0-0.5h-1.3v-0.7h1.3c0-0.3,0-0.5,0-0.7c0-0.2,0-0.3,0-0.4
			c0-0.1,0-0.1,0-0.2s0,0,0-0.1c0-0.4,0.1-0.8,0.2-1.1c0.1-0.3,0.3-0.6,0.5-0.7c0.2-0.2,0.5-0.3,0.8-0.4c0.3-0.1,0.6-0.1,0.9-0.1
			c0.5,0,0.9,0.1,1.2,0.2c0.3,0.1,0.6,0.3,0.9,0.5l-0.4,0.6c-0.3-0.1-0.5-0.3-0.8-0.4c-0.3-0.1-0.6-0.2-0.9-0.2
			c-0.3,0-0.5,0-0.7,0.1c-0.2,0.1-0.4,0.2-0.5,0.4c-0.1,0.2-0.2,0.4-0.3,0.6c-0.1,0.2-0.1,0.5-0.1,0.7c0,0,0,0.1,0,0.1
			c0,0,0,0.1,0,0.2c0,0.1,0,0.2,0,0.3c0,0.1,0,0.3,0,0.6h2.1v0.7h-2.1c0,0.2,0,0.3,0,0.4c0,0.1,0,0.2,0,0.2c0,0.1,0,0.1,0,0.1
			s0,0.1,0,0.1c0,0.5-0.1,0.9-0.2,1.3c-0.1,0.3-0.2,0.6-0.4,0.8c0,0,0.1,0,0.2-0.1c0.1,0,0.2,0,0.2,0c0.1,0,0.2,0,0.3,0
			c0.1,0,0.2,0,0.2,0c0.2,0,0.3,0,0.5,0c0.1,0,0.3,0.1,0.4,0.1c0.1,0,0.3,0.1,0.4,0.1c0.1,0,0.3,0,0.4,0c0.2,0,0.4-0.1,0.6-0.2
			c0.1-0.1,0.2-0.3,0.3-0.5L174.1,240.8z"/>
		<path d="M176.4,242.1v-0.7h1v-6.5l-1.1,0.3v-0.7l2.1-0.6v7.5h1v0.7H176.4z"/>
		<path d="M183.6,241.2c-0.1,0.2-0.2,0.5-0.3,0.7c-0.1,0.2-0.2,0.5-0.3,0.7c-0.1,0.2-0.2,0.4-0.4,0.6c-0.1,0.2-0.2,0.3-0.3,0.5
			l-0.6-0.2c0.1-0.2,0.2-0.3,0.3-0.5c0.1-0.2,0.2-0.4,0.2-0.6c0.1-0.2,0.2-0.5,0.2-0.7c0.1-0.2,0.1-0.5,0.2-0.7L183.6,241.2z"/>
		<path d="M190.2,238c0,0.7-0.1,1.4-0.2,1.9c-0.1,0.5-0.3,1-0.6,1.3c-0.2,0.3-0.5,0.6-0.9,0.8c-0.4,0.2-0.8,0.3-1.3,0.3
			c-0.4,0-0.7,0-1-0.1c-0.3-0.1-0.5-0.1-0.8-0.3v-0.8c0.2,0.1,0.5,0.2,0.8,0.3c0.3,0.1,0.6,0.1,0.9,0.1c0.3,0,0.6-0.1,0.9-0.2
			c0.3-0.1,0.5-0.3,0.7-0.6c0.2-0.3,0.4-0.6,0.5-1.1c0.1-0.4,0.2-1,0.2-1.6c-0.1,0.2-0.2,0.4-0.4,0.5c-0.1,0.1-0.3,0.2-0.5,0.3
			c-0.2,0.1-0.4,0.1-0.6,0.2c-0.2,0-0.4,0.1-0.6,0.1c-0.4,0-0.7-0.1-1-0.2c-0.3-0.1-0.6-0.3-0.8-0.5c-0.2-0.2-0.4-0.5-0.5-0.8
			c-0.1-0.3-0.2-0.7-0.2-1c0-0.4,0.1-0.8,0.2-1.1c0.1-0.3,0.3-0.6,0.6-0.8c0.2-0.2,0.5-0.4,0.8-0.5c0.3-0.1,0.7-0.2,1-0.2
			c0.6,0,1,0.1,1.4,0.4c0.4,0.2,0.7,0.6,1,1.1c0.1,0.3,0.2,0.6,0.3,1.1C190.2,236.8,190.2,237.4,190.2,238z M189.1,236.4
			c0-0.2,0-0.5-0.1-0.7c-0.1-0.2-0.2-0.4-0.4-0.6c-0.2-0.2-0.3-0.3-0.5-0.4c-0.2-0.1-0.4-0.1-0.7-0.1c-0.3,0-0.5,0-0.7,0.1
			c-0.2,0.1-0.4,0.2-0.5,0.4c-0.1,0.2-0.3,0.4-0.3,0.6c-0.1,0.2-0.1,0.5-0.1,0.7c0,0.3,0,0.5,0.1,0.7c0.1,0.2,0.2,0.4,0.4,0.6
			c0.1,0.2,0.3,0.3,0.5,0.4c0.2,0.1,0.4,0.1,0.7,0.1c0.5,0,0.9-0.2,1.2-0.5C189,237.5,189.1,237,189.1,236.4z"/>
		<path d="M197,239.6c0,0.4-0.1,0.8-0.2,1.1c-0.1,0.3-0.3,0.6-0.6,0.9c-0.2,0.2-0.5,0.4-0.8,0.5c-0.3,0.1-0.7,0.2-1,0.2
			c-0.6,0-1.1-0.1-1.5-0.4c-0.4-0.2-0.7-0.6-1-1.2c-0.1-0.1-0.1-0.3-0.2-0.4c-0.1-0.2-0.1-0.3-0.1-0.6c0-0.2-0.1-0.5-0.1-0.7
			c0-0.3,0-0.6,0-1c0-0.4,0-0.7,0.1-1c0-0.3,0.1-0.6,0.2-0.8c0.1-0.2,0.2-0.5,0.3-0.7c0.1-0.2,0.2-0.4,0.4-0.6
			c0.1-0.1,0.2-0.3,0.4-0.4c0.2-0.1,0.3-0.2,0.5-0.4c0.2-0.1,0.4-0.2,0.6-0.3c0.2-0.1,0.5-0.1,0.7-0.1c0.2,0,0.4,0,0.6,0.1
			c0.2,0,0.4,0.1,0.5,0.1s0.3,0.1,0.4,0.2s0.2,0.1,0.3,0.2l-0.3,0.6c-0.1,0-0.1-0.1-0.2-0.1c-0.1,0-0.2-0.1-0.3-0.1
			c-0.1,0-0.3-0.1-0.4-0.1c-0.2,0-0.4,0-0.6,0c-0.3,0-0.5,0.1-0.8,0.2c-0.3,0.1-0.5,0.3-0.7,0.6c-0.2,0.3-0.4,0.6-0.5,1.1
			c-0.1,0.4-0.2,1-0.2,1.7c0.2-0.4,0.5-0.7,0.9-0.8c0.3-0.2,0.7-0.3,1.1-0.3c0.4,0,0.7,0.1,1,0.2c0.3,0.1,0.6,0.3,0.8,0.5
			c0.2,0.2,0.4,0.5,0.5,0.8S197,239.2,197,239.6z M196,239.6c0-0.3,0-0.6-0.1-0.8c-0.1-0.2-0.2-0.4-0.4-0.6
			c-0.1-0.2-0.3-0.3-0.5-0.4c-0.2-0.1-0.4-0.1-0.7-0.1c-0.5,0-0.9,0.2-1.2,0.5c-0.3,0.3-0.5,0.8-0.5,1.4c0,0.3,0,0.6,0.1,0.8
			c0.1,0.2,0.2,0.4,0.4,0.6c0.1,0.2,0.3,0.3,0.5,0.4c0.2,0.1,0.4,0.1,0.7,0.1c0.2,0,0.5-0.1,0.7-0.2c0.2-0.1,0.4-0.2,0.5-0.4
			c0.2-0.2,0.3-0.4,0.4-0.6C196,240.2,196,239.9,196,239.6z"/>
		<path d="M203.2,239.6c0,0.4-0.1,0.8-0.2,1.1c-0.1,0.3-0.3,0.6-0.6,0.9c-0.2,0.2-0.5,0.4-0.9,0.5s-0.7,0.2-1.1,0.2
			c-0.3,0-0.5,0-0.8-0.1c-0.2,0-0.4-0.1-0.6-0.1c-0.2-0.1-0.3-0.1-0.5-0.2c-0.1-0.1-0.3-0.1-0.3-0.2v-0.9c0.2,0.1,0.3,0.2,0.5,0.3
			c0.2,0.1,0.3,0.1,0.5,0.2s0.3,0.1,0.5,0.1c0.2,0,0.4,0,0.6,0c0.3,0,0.6,0,0.8-0.1c0.2-0.1,0.4-0.2,0.6-0.4
			c0.2-0.2,0.3-0.4,0.3-0.6c0.1-0.2,0.1-0.5,0.1-0.8c0-0.6-0.2-1.1-0.5-1.4c-0.3-0.3-0.8-0.5-1.3-0.5c-0.3,0-0.6,0-0.9,0.1
			c-0.3,0.1-0.6,0.2-1,0.4l0.2-4.2h4.1v0.8h-3.4l-0.1,2.3c0.2-0.1,0.4-0.1,0.6-0.1s0.4,0,0.6,0c0.8,0,1.5,0.2,1.9,0.7
			C202.9,238.1,203.2,238.8,203.2,239.6z"/>
	</g>
	<g>
		<path d="M254.1,205.1c0,0.5-0.2,0.8-0.5,1.1c-0.3,0.2-0.7,0.4-1.2,0.4c-0.2,0-0.3,0-0.5-0.1c-0.2,0-0.3-0.1-0.5-0.1
			c-0.2,0-0.4-0.1-0.6-0.1c-0.2,0-0.4-0.1-0.6-0.1c-0.2,0-0.4,0-0.5,0c-0.2,0-0.3,0-0.5,0.1c-0.2,0-0.3,0.1-0.5,0.1
			c-0.2,0-0.3,0.1-0.5,0.1v-0.6c0.2-0.1,0.5-0.2,0.6-0.3c0.2-0.1,0.3-0.2,0.4-0.4c0.1-0.2,0.2-0.4,0.2-0.6c0-0.2,0.1-0.4,0.1-0.7
			c0-0.1,0-0.1,0-0.2c0-0.1,0-0.1,0-0.2s0-0.2,0-0.4c0-0.1,0-0.3,0-0.5h-1.3v-0.7h1.3c0-0.3,0-0.5,0-0.7c0-0.2,0-0.3,0-0.4
			s0-0.1,0-0.2s0,0,0-0.1c0-0.4,0.1-0.8,0.2-1.1c0.1-0.3,0.3-0.6,0.5-0.7c0.2-0.2,0.5-0.3,0.8-0.4c0.3-0.1,0.6-0.1,0.9-0.1
			c0.5,0,0.9,0.1,1.2,0.2c0.3,0.1,0.6,0.3,0.9,0.5l-0.4,0.6c-0.3-0.1-0.5-0.3-0.8-0.4c-0.3-0.1-0.6-0.2-0.9-0.2
			c-0.3,0-0.5,0-0.7,0.1c-0.2,0.1-0.4,0.2-0.5,0.4c-0.1,0.2-0.2,0.4-0.3,0.6c-0.1,0.2-0.1,0.5-0.1,0.7c0,0,0,0.1,0,0.1s0,0.1,0,0.2
			c0,0.1,0,0.2,0,0.3c0,0.1,0,0.3,0,0.6h2.1v0.7h-2.1c0,0.2,0,0.3,0,0.4c0,0.1,0,0.2,0,0.2s0,0.1,0,0.1s0,0.1,0,0.1
			c0,0.5-0.1,0.9-0.2,1.3c-0.1,0.3-0.2,0.6-0.4,0.8c0,0,0.1,0,0.2-0.1c0.1,0,0.2,0,0.2,0c0.1,0,0.2,0,0.3,0c0.1,0,0.2,0,0.2,0
			c0.2,0,0.3,0,0.5,0c0.1,0,0.3,0.1,0.4,0.1c0.1,0,0.3,0.1,0.4,0.1c0.1,0,0.3,0,0.4,0c0.2,0,0.4-0.1,0.6-0.2
			c0.1-0.1,0.2-0.3,0.3-0.5L254.1,205.1z"/>
		<path d="M260.1,204.2c0,0.4-0.1,0.8-0.2,1.1c-0.2,0.3-0.4,0.6-0.6,0.8c-0.3,0.2-0.5,0.4-0.9,0.5c-0.3,0.1-0.7,0.1-1,0.1
			c-0.5,0-0.9,0-1.2-0.1c-0.4-0.1-0.7-0.2-1.1-0.4v-0.9c0.2,0.1,0.3,0.2,0.5,0.3c0.2,0.1,0.3,0.2,0.5,0.2c0.2,0.1,0.4,0.1,0.6,0.2
			c0.2,0,0.5,0.1,0.7,0.1c0.3,0,0.5,0,0.7-0.1c0.2-0.1,0.4-0.2,0.6-0.3c0.2-0.1,0.3-0.3,0.4-0.5c0.1-0.2,0.1-0.4,0.1-0.7
			c0-0.3-0.1-0.6-0.2-0.8c-0.1-0.2-0.3-0.4-0.4-0.5c-0.2-0.1-0.4-0.2-0.6-0.3c-0.2-0.1-0.5-0.1-0.7-0.1h-0.3v-0.8h0.3
			c0.2,0,0.4,0,0.6,0c0.2,0,0.4-0.1,0.6-0.2c0.2-0.1,0.3-0.2,0.4-0.4s0.2-0.4,0.2-0.7c0-0.4-0.1-0.8-0.4-1c-0.3-0.3-0.7-0.4-1.2-0.4
			c-0.2,0-0.4,0-0.6,0.1c-0.2,0-0.4,0.1-0.5,0.2c-0.2,0.1-0.3,0.1-0.4,0.2c-0.1,0.1-0.2,0.1-0.3,0.2l-0.4-0.6
			c0.1-0.1,0.3-0.2,0.4-0.3c0.2-0.1,0.3-0.2,0.5-0.3c0.2-0.1,0.4-0.1,0.6-0.2c0.2-0.1,0.5-0.1,0.7-0.1c0.3,0,0.7,0,1,0.1
			c0.3,0.1,0.6,0.2,0.8,0.4c0.2,0.2,0.4,0.4,0.5,0.7c0.1,0.3,0.2,0.6,0.2,0.9c0,0.5-0.1,0.9-0.4,1.2c-0.2,0.3-0.6,0.6-1,0.7v0
			c0.3,0,0.5,0.1,0.7,0.3c0.2,0.1,0.4,0.3,0.5,0.4c0.1,0.2,0.2,0.4,0.3,0.6C260,203.7,260.1,204,260.1,204.2z"/>
		<path d="M263.6,205.6c-0.1,0.2-0.2,0.5-0.3,0.7c-0.1,0.2-0.2,0.5-0.3,0.7c-0.1,0.2-0.2,0.4-0.4,0.6c-0.1,0.2-0.2,0.3-0.3,0.5
			l-0.6-0.2c0.1-0.2,0.2-0.3,0.3-0.5c0.1-0.2,0.2-0.4,0.2-0.6c0.1-0.2,0.2-0.5,0.2-0.7c0.1-0.2,0.1-0.5,0.2-0.7L263.6,205.6z"/>
		<path d="M269.4,204.5v1.3h0.8v0.6h-2.5v-0.6h0.8v-1.3h-3.7v-1l3.2-5.2h1.4v5.5h1v0.7H269.4z M268.5,198.9l-3,5h3V198.9z"/>
		<path d="M276.6,203.9c0,0.4-0.1,0.8-0.2,1.1c-0.1,0.3-0.3,0.6-0.6,0.9c-0.2,0.2-0.5,0.4-0.9,0.5c-0.3,0.1-0.7,0.2-1.1,0.2
			c-0.3,0-0.5,0-0.8-0.1c-0.2,0-0.4-0.1-0.6-0.1s-0.3-0.1-0.5-0.2c-0.1-0.1-0.3-0.1-0.3-0.2v-0.9c0.2,0.1,0.3,0.2,0.5,0.3
			c0.2,0.1,0.3,0.1,0.5,0.2c0.2,0.1,0.3,0.1,0.5,0.1c0.2,0,0.4,0,0.6,0c0.3,0,0.6,0,0.8-0.1c0.2-0.1,0.4-0.2,0.6-0.4
			c0.2-0.2,0.3-0.4,0.3-0.6c0.1-0.2,0.1-0.5,0.1-0.8c0-0.6-0.2-1.1-0.5-1.4c-0.3-0.3-0.8-0.5-1.3-0.5c-0.3,0-0.6,0-0.9,0.1
			s-0.6,0.2-1,0.4l0.2-4.2h4.1v0.8h-3.4l-0.1,2.3c0.2-0.1,0.4-0.1,0.6-0.1c0.2,0,0.4,0,0.6,0c0.8,0,1.5,0.2,1.9,0.7
			C276.4,202.5,276.6,203.1,276.6,203.9z"/>
		<path d="M283.6,203.9c0,0.4-0.1,0.8-0.2,1.1c-0.1,0.3-0.3,0.6-0.6,0.9c-0.2,0.2-0.5,0.4-0.8,0.5c-0.3,0.1-0.7,0.2-1,0.2
			c-0.6,0-1.1-0.1-1.5-0.4c-0.4-0.2-0.7-0.6-1-1.2c-0.1-0.1-0.1-0.3-0.2-0.4c-0.1-0.2-0.1-0.3-0.1-0.6c0-0.2-0.1-0.5-0.1-0.7
			c0-0.3,0-0.6,0-1c0-0.4,0-0.7,0.1-1c0-0.3,0.1-0.6,0.2-0.8c0.1-0.2,0.2-0.5,0.3-0.7c0.1-0.2,0.2-0.4,0.4-0.6
			c0.1-0.1,0.2-0.3,0.4-0.4c0.2-0.1,0.3-0.2,0.5-0.4c0.2-0.1,0.4-0.2,0.6-0.3c0.2-0.1,0.5-0.1,0.7-0.1c0.2,0,0.4,0,0.6,0.1
			c0.2,0,0.4,0.1,0.5,0.1c0.2,0.1,0.3,0.1,0.4,0.2c0.1,0.1,0.2,0.1,0.3,0.2l-0.3,0.6c-0.1,0-0.1-0.1-0.2-0.1c-0.1,0-0.2-0.1-0.3-0.1
			c-0.1,0-0.3-0.1-0.4-0.1c-0.2,0-0.4,0-0.6,0c-0.3,0-0.5,0.1-0.8,0.2c-0.3,0.1-0.5,0.3-0.7,0.6c-0.2,0.3-0.4,0.6-0.5,1.1
			c-0.1,0.4-0.2,1-0.2,1.7c0.2-0.4,0.5-0.7,0.9-0.8c0.3-0.2,0.7-0.3,1.1-0.3c0.4,0,0.7,0.1,1,0.2c0.3,0.1,0.6,0.3,0.8,0.5
			c0.2,0.2,0.4,0.5,0.5,0.8C283.6,203.2,283.6,203.5,283.6,203.9z M282.7,204c0-0.3,0-0.6-0.1-0.8c-0.1-0.2-0.2-0.4-0.4-0.6
			c-0.2-0.2-0.3-0.3-0.5-0.4s-0.4-0.1-0.7-0.1c-0.5,0-0.9,0.2-1.2,0.5c-0.3,0.3-0.5,0.8-0.5,1.4c0,0.3,0,0.6,0.1,0.8
			c0.1,0.2,0.2,0.4,0.4,0.6c0.1,0.2,0.3,0.3,0.5,0.4c0.2,0.1,0.4,0.1,0.7,0.1c0.2,0,0.5-0.1,0.7-0.2s0.4-0.2,0.5-0.4
			c0.2-0.2,0.3-0.4,0.4-0.6C282.6,204.5,282.7,204.3,282.7,204z"/>
	</g>
	<g>
		<path d="M334.6,128.1c0,0.5-0.2,0.8-0.5,1.1c-0.3,0.2-0.7,0.4-1.2,0.4c-0.2,0-0.3,0-0.5-0.1c-0.2,0-0.4-0.1-0.5-0.1
			c-0.2,0-0.4-0.1-0.6-0.1c-0.2,0-0.4-0.1-0.6-0.1c-0.2,0-0.4,0-0.5,0c-0.2,0-0.3,0-0.5,0.1c-0.2,0-0.3,0.1-0.5,0.1
			c-0.2,0-0.3,0.1-0.5,0.1v-0.6c0.2-0.1,0.5-0.2,0.6-0.3c0.2-0.1,0.3-0.2,0.4-0.4c0.1-0.2,0.2-0.4,0.2-0.6c0-0.2,0.1-0.4,0.1-0.7
			c0-0.1,0-0.1,0-0.2s0-0.1,0-0.2c0-0.1,0-0.2,0-0.4c0-0.1,0-0.3,0-0.5h-1.3v-0.7h1.3c0-0.3,0-0.5,0-0.7c0-0.2,0-0.3,0-0.4
			c0-0.1,0-0.1,0-0.2s0,0,0-0.1c0-0.4,0.1-0.8,0.2-1.1c0.1-0.3,0.3-0.6,0.5-0.7c0.2-0.2,0.5-0.3,0.8-0.4c0.3-0.1,0.6-0.1,0.9-0.1
			c0.5,0,0.9,0.1,1.2,0.2c0.3,0.1,0.6,0.3,0.9,0.5l-0.4,0.6c-0.3-0.1-0.5-0.3-0.8-0.4c-0.3-0.1-0.6-0.2-0.9-0.2
			c-0.3,0-0.5,0-0.7,0.1c-0.2,0.1-0.4,0.2-0.5,0.4c-0.1,0.2-0.2,0.4-0.3,0.6c-0.1,0.2-0.1,0.5-0.1,0.7c0,0,0,0.1,0,0.1
			c0,0,0,0.1,0,0.2c0,0.1,0,0.2,0,0.3s0,0.3,0,0.6h2.1v0.7H331c0,0.2,0,0.3,0,0.4c0,0.1,0,0.2,0,0.2c0,0.1,0,0.1,0,0.1
			c0,0,0,0.1,0,0.1c0,0.5-0.1,0.9-0.2,1.3c-0.1,0.3-0.2,0.6-0.4,0.8c0,0,0.1,0,0.2-0.1c0.1,0,0.2,0,0.2,0c0.1,0,0.2,0,0.3,0
			c0.1,0,0.2,0,0.2,0c0.2,0,0.3,0,0.5,0c0.1,0,0.3,0.1,0.4,0.1c0.1,0,0.3,0.1,0.4,0.1s0.3,0,0.4,0c0.2,0,0.4-0.1,0.6-0.2
			c0.1-0.1,0.2-0.3,0.3-0.5L334.6,128.1z"/>
		<path d="M340.7,126.9c0,0.4-0.1,0.8-0.2,1.1c-0.1,0.3-0.3,0.6-0.6,0.9c-0.2,0.2-0.5,0.4-0.9,0.5c-0.3,0.1-0.7,0.2-1.1,0.2
			c-0.3,0-0.5,0-0.8-0.1c-0.2,0-0.4-0.1-0.6-0.1c-0.2-0.1-0.3-0.1-0.5-0.2c-0.1-0.1-0.3-0.1-0.3-0.2v-0.9c0.2,0.1,0.3,0.2,0.5,0.3
			c0.2,0.1,0.3,0.1,0.5,0.2c0.2,0.1,0.3,0.1,0.5,0.1c0.2,0,0.4,0,0.6,0c0.3,0,0.6,0,0.8-0.1c0.2-0.1,0.4-0.2,0.6-0.4
			c0.2-0.2,0.3-0.4,0.3-0.6s0.1-0.5,0.1-0.8c0-0.6-0.2-1.1-0.5-1.4c-0.3-0.3-0.8-0.5-1.3-0.5c-0.3,0-0.6,0-0.9,0.1
			c-0.3,0.1-0.6,0.2-1,0.4l0.2-4.2h4.1v0.8H337l-0.1,2.3c0.2-0.1,0.4-0.1,0.6-0.1c0.2,0,0.4,0,0.6,0c0.8,0,1.5,0.2,1.9,0.7
			C340.4,125.4,340.7,126.1,340.7,126.9z"/>
		<path d="M344.1,128.6c-0.1,0.2-0.2,0.5-0.3,0.7c-0.1,0.2-0.2,0.5-0.3,0.7c-0.1,0.2-0.2,0.4-0.4,0.6c-0.1,0.2-0.2,0.3-0.3,0.5
			l-0.6-0.2c0.1-0.2,0.2-0.3,0.3-0.5c0.1-0.2,0.2-0.4,0.2-0.6c0.1-0.2,0.2-0.5,0.2-0.7c0.1-0.2,0.1-0.5,0.2-0.7L344.1,128.6z"/>
		<path d="M350.7,125.3c0,0.7-0.1,1.4-0.2,1.9c-0.1,0.5-0.3,1-0.6,1.3c-0.2,0.3-0.5,0.6-0.9,0.8c-0.4,0.2-0.8,0.3-1.3,0.3
			c-0.4,0-0.7,0-1-0.1c-0.3-0.1-0.5-0.1-0.8-0.3v-0.8c0.2,0.1,0.5,0.2,0.8,0.3c0.3,0.1,0.6,0.1,0.9,0.1c0.3,0,0.6-0.1,0.9-0.2
			c0.3-0.1,0.5-0.3,0.7-0.6c0.2-0.3,0.4-0.6,0.5-1.1c0.1-0.4,0.2-1,0.2-1.6c-0.1,0.2-0.2,0.4-0.4,0.5c-0.1,0.1-0.3,0.2-0.5,0.3
			c-0.2,0.1-0.4,0.1-0.6,0.2c-0.2,0-0.4,0.1-0.6,0.1c-0.4,0-0.7-0.1-1-0.2c-0.3-0.1-0.6-0.3-0.8-0.5c-0.2-0.2-0.4-0.5-0.5-0.8
			c-0.1-0.3-0.2-0.7-0.2-1c0-0.4,0.1-0.8,0.2-1.1c0.1-0.3,0.3-0.6,0.6-0.8s0.5-0.4,0.8-0.5c0.3-0.1,0.7-0.2,1-0.2
			c0.6,0,1,0.1,1.4,0.4c0.4,0.2,0.7,0.6,1,1.1c0.1,0.3,0.2,0.6,0.3,1.1C350.7,124.1,350.7,124.7,350.7,125.3z M349.6,123.7
			c0-0.2,0-0.5-0.1-0.7c-0.1-0.2-0.2-0.4-0.4-0.6c-0.2-0.2-0.3-0.3-0.5-0.4c-0.2-0.1-0.4-0.1-0.7-0.1c-0.3,0-0.5,0-0.7,0.1
			c-0.2,0.1-0.4,0.2-0.5,0.4c-0.1,0.2-0.3,0.4-0.3,0.6c-0.1,0.2-0.1,0.5-0.1,0.7c0,0.3,0,0.5,0.1,0.7c0.1,0.2,0.2,0.4,0.4,0.6
			c0.2,0.2,0.3,0.3,0.5,0.4c0.2,0.1,0.4,0.1,0.7,0.1c0.5,0,0.9-0.2,1.2-0.5C349.5,124.8,349.6,124.3,349.6,123.7z"/>
		<path d="M357,127.2c0,0.4-0.1,0.8-0.2,1.1c-0.2,0.3-0.4,0.6-0.6,0.8c-0.3,0.2-0.5,0.4-0.9,0.5c-0.3,0.1-0.7,0.1-1,0.1
			c-0.5,0-0.9,0-1.2-0.1c-0.4-0.1-0.7-0.2-1.1-0.4v-0.9c0.2,0.1,0.3,0.2,0.5,0.3c0.2,0.1,0.3,0.2,0.5,0.2c0.2,0.1,0.4,0.1,0.6,0.2
			c0.2,0,0.5,0.1,0.7,0.1c0.3,0,0.5,0,0.7-0.1c0.2-0.1,0.4-0.2,0.6-0.3c0.2-0.1,0.3-0.3,0.4-0.5c0.1-0.2,0.1-0.4,0.1-0.7
			c0-0.3-0.1-0.6-0.2-0.8c-0.1-0.2-0.3-0.4-0.4-0.5c-0.2-0.1-0.4-0.2-0.6-0.3c-0.2-0.1-0.5-0.1-0.7-0.1h-0.3v-0.8h0.3
			c0.2,0,0.4,0,0.6,0c0.2,0,0.4-0.1,0.6-0.2c0.2-0.1,0.3-0.2,0.4-0.4s0.2-0.4,0.2-0.7c0-0.4-0.1-0.8-0.4-1c-0.3-0.3-0.7-0.4-1.2-0.4
			c-0.2,0-0.4,0-0.6,0.1c-0.2,0-0.4,0.1-0.5,0.2c-0.2,0.1-0.3,0.1-0.4,0.2c-0.1,0.1-0.2,0.1-0.3,0.2l-0.4-0.6
			c0.1-0.1,0.3-0.2,0.4-0.3c0.2-0.1,0.3-0.2,0.5-0.3c0.2-0.1,0.4-0.1,0.6-0.2c0.2-0.1,0.5-0.1,0.7-0.1c0.3,0,0.7,0,1,0.1
			c0.3,0.1,0.6,0.2,0.8,0.4c0.2,0.2,0.4,0.4,0.5,0.7c0.1,0.3,0.2,0.6,0.2,0.9c0,0.5-0.1,0.9-0.4,1.2c-0.2,0.3-0.6,0.6-1,0.7v0
			c0.3,0,0.5,0.1,0.7,0.3c0.2,0.1,0.4,0.3,0.5,0.4c0.1,0.2,0.2,0.4,0.3,0.6C356.9,126.7,357,126.9,357,127.2z"/>
		<path d="M363.9,127.2c0,0.4-0.1,0.7-0.2,1c-0.1,0.3-0.3,0.5-0.6,0.8c-0.2,0.2-0.5,0.4-0.8,0.5s-0.7,0.2-1,0.2
			c-0.4,0-0.7-0.1-1-0.2c-0.3-0.1-0.6-0.3-0.8-0.5c-0.2-0.2-0.4-0.5-0.6-0.8c-0.1-0.3-0.2-0.6-0.2-1c0-0.5,0.1-1,0.4-1.4
			c0.3-0.4,0.7-0.6,1.2-0.7v0c-0.2-0.1-0.4-0.1-0.6-0.3c-0.2-0.1-0.3-0.3-0.4-0.4s-0.2-0.3-0.3-0.5c-0.1-0.2-0.1-0.4-0.1-0.6
			c0-0.3,0.1-0.6,0.2-0.9s0.3-0.5,0.5-0.7s0.5-0.3,0.7-0.4c0.3-0.1,0.6-0.2,0.9-0.2c0.3,0,0.6,0.1,0.9,0.2c0.3,0.1,0.5,0.2,0.7,0.4
			c0.2,0.2,0.4,0.4,0.5,0.7c0.1,0.3,0.2,0.6,0.2,0.9c0,0.2,0,0.4-0.1,0.6c-0.1,0.2-0.1,0.4-0.3,0.5c-0.1,0.2-0.3,0.3-0.4,0.4
			c-0.2,0.1-0.3,0.2-0.6,0.3v0c0.5,0.1,0.9,0.4,1.2,0.7C363.7,126.2,363.9,126.7,363.9,127.2z M362.9,127.2c0-0.2,0-0.5-0.1-0.7
			c-0.1-0.2-0.2-0.4-0.4-0.5c-0.1-0.2-0.3-0.3-0.5-0.4c-0.2-0.1-0.4-0.1-0.7-0.1s-0.5,0-0.7,0.1c-0.2,0.1-0.4,0.2-0.5,0.4
			c-0.2,0.1-0.3,0.3-0.4,0.5c-0.1,0.2-0.1,0.4-0.1,0.7c0,0.2,0,0.5,0.1,0.7s0.2,0.4,0.3,0.5c0.1,0.2,0.3,0.3,0.5,0.4
			c0.2,0.1,0.4,0.1,0.7,0.1s0.5,0,0.7-0.1c0.2-0.1,0.4-0.2,0.5-0.4c0.1-0.2,0.3-0.3,0.3-0.5C362.9,127.6,362.9,127.4,362.9,127.2z
			 M362.7,123.3c0-0.4-0.1-0.8-0.4-1c-0.3-0.3-0.6-0.4-1-0.4c-0.4,0-0.7,0.1-1,0.4c-0.3,0.3-0.4,0.6-0.4,1c0,0.2,0,0.4,0.1,0.6
			c0.1,0.2,0.2,0.3,0.3,0.5c0.1,0.1,0.3,0.2,0.5,0.3c0.2,0.1,0.4,0.1,0.6,0.1c0.2,0,0.4,0,0.6-0.1c0.2-0.1,0.3-0.2,0.5-0.3
			c0.1-0.1,0.2-0.3,0.3-0.5C362.7,123.7,362.7,123.5,362.7,123.3z"/>
	</g>
	<g>
		<path d="M411.8,7.9c0,0.5-0.2,0.8-0.5,1.1c-0.3,0.2-0.7,0.4-1.2,0.4c-0.2,0-0.3,0-0.5-0.1c-0.2,0-0.4-0.1-0.5-0.1
			c-0.2,0-0.4-0.1-0.6-0.1c-0.2,0-0.4-0.1-0.6-0.1c-0.2,0-0.4,0-0.5,0c-0.2,0-0.3,0-0.5,0.1c-0.2,0-0.3,0.1-0.5,0.1
			c-0.2,0-0.3,0.1-0.5,0.1V8.7c0.2-0.1,0.5-0.2,0.6-0.3c0.2-0.1,0.3-0.2,0.4-0.4c0.1-0.2,0.2-0.4,0.2-0.6c0-0.2,0.1-0.4,0.1-0.7
			c0-0.1,0-0.1,0-0.2s0-0.1,0-0.2c0-0.1,0-0.2,0-0.4c0-0.1,0-0.3,0-0.5h-1.3V4.7h1.3c0-0.3,0-0.5,0-0.7c0-0.2,0-0.3,0-0.4
			s0-0.1,0-0.2s0,0,0-0.1c0-0.4,0.1-0.8,0.2-1.1c0.1-0.3,0.3-0.6,0.5-0.7c0.2-0.2,0.5-0.3,0.8-0.4C409,1,409.3,1,409.6,1
			c0.5,0,0.9,0.1,1.2,0.2c0.3,0.1,0.6,0.3,0.9,0.5l-0.4,0.6c-0.3-0.1-0.5-0.3-0.8-0.4c-0.3-0.1-0.6-0.2-0.9-0.2
			c-0.3,0-0.5,0-0.7,0.1c-0.2,0.1-0.4,0.2-0.5,0.4c-0.1,0.2-0.2,0.4-0.3,0.6c-0.1,0.2-0.1,0.5-0.1,0.7c0,0,0,0.1,0,0.1s0,0.1,0,0.2
			c0,0.1,0,0.2,0,0.3c0,0.1,0,0.3,0,0.6h2.1v0.7h-2.1c0,0.2,0,0.3,0,0.4c0,0.1,0,0.2,0,0.2c0,0.1,0,0.1,0,0.1s0,0.1,0,0.1
			c0,0.5-0.1,0.9-0.2,1.3c-0.1,0.3-0.2,0.6-0.4,0.8c0,0,0.1,0,0.2-0.1c0.1,0,0.2,0,0.2,0c0.1,0,0.2,0,0.3,0c0.1,0,0.2,0,0.2,0
			c0.2,0,0.3,0,0.5,0c0.1,0,0.3,0.1,0.4,0.1c0.1,0,0.3,0.1,0.4,0.1c0.1,0,0.3,0,0.4,0c0.2,0,0.4-0.1,0.6-0.2
			c0.1-0.1,0.2-0.3,0.3-0.5L411.8,7.9z"/>
		<path d="M414.1,9.3V8.6h1V2.1L414,2.4V1.7l2.1-0.6v7.5h1v0.7H414.1z"/>
		<path d="M424.8,5.2c0,0.5,0,0.9-0.1,1.4c-0.1,0.5-0.2,1-0.4,1.4c-0.2,0.4-0.5,0.7-0.9,1c-0.4,0.3-0.8,0.4-1.4,0.4s-1-0.1-1.4-0.4
			c-0.4-0.3-0.6-0.6-0.9-1c-0.2-0.4-0.3-0.9-0.4-1.4c-0.1-0.5-0.1-1-0.1-1.4c0-0.5,0-0.9,0.1-1.4c0.1-0.5,0.2-1,0.4-1.4
			c0.2-0.4,0.5-0.7,0.9-1C421,1.1,421.5,1,422,1s1,0.1,1.4,0.4c0.4,0.3,0.6,0.6,0.9,1c0.2,0.4,0.3,0.9,0.4,1.4
			C424.8,4.3,424.8,4.8,424.8,5.2z M423.8,5.2c0-0.3,0-0.6-0.1-1s-0.1-0.8-0.2-1.1c-0.1-0.4-0.3-0.7-0.5-0.9c-0.2-0.2-0.6-0.4-1-0.4
			c-0.4,0-0.7,0.1-1,0.4c-0.2,0.2-0.4,0.5-0.5,0.9c-0.1,0.4-0.2,0.7-0.2,1.1c0,0.4-0.1,0.7-0.1,1s0,0.6,0.1,1c0,0.4,0.1,0.8,0.2,1.1
			c0.1,0.4,0.3,0.7,0.5,0.9c0.2,0.2,0.6,0.4,1,0.4c0.4,0,0.7-0.1,1-0.4c0.2-0.2,0.4-0.5,0.5-0.9c0.1-0.4,0.2-0.7,0.2-1.1
			S423.8,5.5,423.8,5.2z"/>
		<path d="M427.8,8.4c-0.1,0.2-0.2,0.5-0.3,0.7c-0.1,0.2-0.2,0.5-0.3,0.7c-0.1,0.2-0.2,0.4-0.4,0.6c-0.1,0.2-0.2,0.3-0.3,0.5
			l-0.6-0.2c0.1-0.2,0.2-0.3,0.3-0.5c0.1-0.2,0.2-0.4,0.2-0.6c0.1-0.2,0.2-0.5,0.2-0.7c0.1-0.2,0.1-0.5,0.2-0.7L427.8,8.4z"/>
		<path d="M434.4,7.9c0,0.5-0.2,0.8-0.5,1.1c-0.3,0.2-0.7,0.4-1.1,0.4c-0.3,0-0.6,0-0.9-0.1s-0.7-0.1-1-0.1c-0.4,0-0.7,0-1,0.1
			c-0.3,0-0.6,0.1-0.9,0.1V8.7l2.6-2.6c0.3-0.3,0.6-0.6,0.8-0.9c0.2-0.3,0.4-0.5,0.5-0.8c0.1-0.2,0.2-0.5,0.3-0.7
			c0.1-0.2,0.1-0.4,0.1-0.6c0-0.4-0.1-0.8-0.4-1.1c-0.3-0.3-0.7-0.4-1.2-0.4c-0.2,0-0.4,0-0.6,0.1c-0.2,0-0.3,0.1-0.5,0.2
			c-0.2,0.1-0.3,0.1-0.4,0.2c-0.1,0.1-0.2,0.1-0.3,0.2l-0.4-0.5c0.1-0.1,0.2-0.2,0.3-0.3c0.1-0.1,0.3-0.2,0.5-0.3
			c0.2-0.1,0.4-0.2,0.7-0.3c0.2-0.1,0.5-0.1,0.8-0.1c0.3,0,0.7,0,1,0.1c0.3,0.1,0.6,0.2,0.8,0.4c0.2,0.2,0.4,0.4,0.5,0.7
			c0.1,0.3,0.2,0.6,0.2,1c0,0.3-0.1,0.6-0.2,0.9s-0.2,0.6-0.4,0.9c-0.2,0.3-0.4,0.6-0.6,0.8c-0.2,0.3-0.5,0.5-0.8,0.8l-2,2
			c0.2-0.1,0.4-0.2,0.6-0.2c0.2-0.1,0.4-0.1,0.6-0.1c0.2,0,0.4,0,0.5,0c0.1,0,0.3,0,0.4,0.1c0.1,0,0.2,0.1,0.4,0.1
			c0.1,0,0.2,0,0.4,0c0.2,0,0.4-0.1,0.5-0.2c0.1-0.1,0.2-0.3,0.3-0.5L434.4,7.9z"/>
		<path d="M441.2,5.2c0,0.5,0,0.9-0.1,1.4c-0.1,0.5-0.2,1-0.4,1.4c-0.2,0.4-0.5,0.7-0.9,1c-0.4,0.3-0.8,0.4-1.4,0.4s-1-0.1-1.4-0.4
			c-0.4-0.3-0.6-0.6-0.9-1c-0.2-0.4-0.3-0.9-0.4-1.4s-0.1-1-0.1-1.4c0-0.5,0-0.9,0.1-1.4s0.2-1,0.4-1.4s0.5-0.7,0.9-1
			c0.4-0.3,0.8-0.4,1.4-0.4s1,0.1,1.4,0.4c0.4,0.3,0.6,0.6,0.9,1c0.2,0.4,0.3,0.9,0.4,1.4C441.2,4.3,441.2,4.8,441.2,5.2z
			 M440.2,5.2c0-0.3,0-0.6-0.1-1c0-0.4-0.1-0.8-0.2-1.1c-0.1-0.4-0.3-0.7-0.5-0.9c-0.2-0.2-0.6-0.4-1-0.4c-0.4,0-0.7,0.1-1,0.4
			c-0.2,0.2-0.4,0.5-0.5,0.9c-0.1,0.4-0.2,0.7-0.2,1.1s-0.1,0.7-0.1,1s0,0.6,0.1,1s0.1,0.8,0.2,1.1c0.1,0.4,0.3,0.7,0.5,0.9
			c0.2,0.2,0.6,0.4,1,0.4c0.4,0,0.7-0.1,1-0.4c0.2-0.2,0.4-0.5,0.5-0.9c0.1-0.4,0.2-0.7,0.2-1.1C440.2,5.9,440.2,5.5,440.2,5.2z"/>
		<path d="M447.3,7c0,0.4-0.1,0.8-0.2,1.1c-0.2,0.3-0.4,0.6-0.6,0.8c-0.3,0.2-0.5,0.4-0.9,0.5c-0.3,0.1-0.7,0.1-1,0.1
			c-0.5,0-0.9,0-1.2-0.1c-0.4-0.1-0.7-0.2-1.1-0.4V8c0.2,0.1,0.3,0.2,0.5,0.3c0.2,0.1,0.3,0.2,0.5,0.2c0.2,0.1,0.4,0.1,0.6,0.2
			c0.2,0,0.5,0.1,0.7,0.1c0.3,0,0.5,0,0.7-0.1c0.2-0.1,0.4-0.2,0.6-0.3c0.2-0.1,0.3-0.3,0.4-0.5c0.1-0.2,0.1-0.4,0.1-0.7
			c0-0.3-0.1-0.6-0.2-0.8c-0.1-0.2-0.3-0.4-0.4-0.5c-0.2-0.1-0.4-0.2-0.6-0.3c-0.2-0.1-0.5-0.1-0.7-0.1h-0.3V4.6h0.3
			c0.2,0,0.4,0,0.6,0c0.2,0,0.4-0.1,0.6-0.2c0.2-0.1,0.3-0.2,0.4-0.4s0.2-0.4,0.2-0.7c0-0.4-0.1-0.8-0.4-1c-0.3-0.3-0.7-0.4-1.2-0.4
			c-0.2,0-0.4,0-0.6,0.1c-0.2,0-0.4,0.1-0.5,0.2c-0.2,0.1-0.3,0.1-0.4,0.2c-0.1,0.1-0.2,0.1-0.3,0.2l-0.4-0.6
			c0.1-0.1,0.3-0.2,0.4-0.3c0.2-0.1,0.3-0.2,0.5-0.3c0.2-0.1,0.4-0.1,0.6-0.2c0.2-0.1,0.5-0.1,0.7-0.1c0.3,0,0.7,0,1,0.1
			c0.3,0.1,0.6,0.2,0.8,0.4s0.4,0.4,0.5,0.7c0.1,0.3,0.2,0.6,0.2,0.9c0,0.5-0.1,0.9-0.4,1.2c-0.2,0.3-0.6,0.6-1,0.7v0
			c0.3,0,0.5,0.1,0.7,0.3c0.2,0.1,0.4,0.3,0.5,0.4c0.1,0.2,0.2,0.4,0.3,0.6C447.3,6.5,447.3,6.8,447.3,7z"/>
	</g>
	<g>
		<path d="M169.3,318.9l3.2-3.1c0.4-0.4,0.7-0.7,0.9-1c0.2-0.3,0.4-0.6,0.5-0.8c0.1-0.3,0.2-0.5,0.2-0.7c0-0.2,0.1-0.4,0.1-0.6
			c0-0.2,0-0.4-0.1-0.6c-0.1-0.2-0.2-0.4-0.3-0.5c-0.1-0.1-0.3-0.3-0.5-0.3c-0.2-0.1-0.5-0.1-0.8-0.1c-0.2,0-0.4,0-0.6,0.1
			c-0.2,0.1-0.4,0.1-0.6,0.2c-0.2,0.1-0.4,0.2-0.5,0.3c-0.2,0.1-0.3,0.2-0.4,0.3l-0.8-1.1c0.1-0.1,0.3-0.3,0.5-0.4
			c0.2-0.2,0.4-0.3,0.7-0.4c0.3-0.1,0.6-0.3,0.9-0.3c0.3-0.1,0.7-0.1,1.2-0.1c0.5,0,0.9,0.1,1.3,0.2c0.4,0.1,0.8,0.3,1.1,0.5
			c0.3,0.2,0.5,0.5,0.7,0.9c0.2,0.4,0.3,0.8,0.3,1.3c0,0.6-0.1,1.1-0.4,1.7c-0.3,0.5-0.7,1.1-1.1,1.6c-0.5,0.5-1,1.1-1.6,1.6
			c-0.6,0.5-1.2,1.1-1.9,1.6c0.1,0,0.2-0.1,0.3-0.2c0.1-0.1,0.3-0.1,0.5-0.2c0.2-0.1,0.4-0.1,0.6-0.2c0.2,0,0.4-0.1,0.6-0.1
			c0.3,0,0.6,0,0.8,0.1c0.2,0.1,0.4,0.1,0.7,0.1c0.1,0,0.2,0,0.3,0c0.1,0,0.2-0.1,0.3-0.1c0.1-0.1,0.1-0.2,0.2-0.3
			c0.1-0.1,0.1-0.3,0.1-0.5l1.3,0.2c0,0.5-0.1,0.8-0.3,1.1c-0.1,0.3-0.3,0.5-0.5,0.7c-0.2,0.2-0.5,0.3-0.8,0.4
			c-0.3,0.1-0.6,0.1-0.9,0.1c-0.2,0-0.3,0-0.5-0.1c-0.2,0-0.4-0.1-0.6-0.1c-0.2,0-0.4-0.1-0.7-0.1c-0.2,0-0.5-0.1-0.7-0.1
			c-0.2,0-0.4,0-0.5,0s-0.4,0-0.6,0c-0.2,0-0.4,0-0.6,0.1c-0.2,0-0.5,0.1-0.8,0.1V318.9z"/>
		<path d="M181.8,320.4c-0.8,0-1.5-0.2-2-0.5c-0.5-0.4-0.9-0.8-1.2-1.3c-0.3-0.5-0.5-1.1-0.6-1.8c-0.1-0.6-0.1-1.2-0.1-1.8
			c0-0.5,0-1.1,0.1-1.8c0.1-0.6,0.3-1.2,0.6-1.8c0.3-0.5,0.7-1,1.2-1.3c0.5-0.4,1.2-0.5,2-0.5c0.8,0,1.5,0.2,2,0.5
			c0.5,0.4,0.9,0.8,1.2,1.3c0.3,0.5,0.5,1.1,0.6,1.8c0.1,0.6,0.1,1.2,0.1,1.8c0,0.5,0,1.1-0.1,1.8c-0.1,0.6-0.3,1.2-0.6,1.8
			c-0.3,0.5-0.7,1-1.2,1.3C183.3,320.2,182.6,320.4,181.8,320.4z M181.8,318.9c0.3,0,0.5-0.1,0.7-0.2c0.2-0.1,0.4-0.3,0.5-0.5
			c0.1-0.2,0.2-0.5,0.3-0.8c0.1-0.3,0.1-0.6,0.2-0.9c0-0.3,0.1-0.6,0.1-0.8c0-0.3,0-0.5,0-0.7c0-0.2,0-0.5,0-0.7
			c0-0.3,0-0.6-0.1-0.8s-0.1-0.6-0.2-0.9c-0.1-0.3-0.2-0.5-0.3-0.8c-0.1-0.2-0.3-0.4-0.5-0.5c-0.2-0.1-0.4-0.2-0.7-0.2
			c-0.4,0-0.8,0.1-1,0.4c-0.2,0.3-0.4,0.6-0.5,1c-0.1,0.4-0.2,0.8-0.2,1.3c0,0.4,0,0.8,0,1.2c0,0.3,0,0.7,0,1.2
			c0,0.4,0.1,0.9,0.2,1.3c0.1,0.4,0.3,0.8,0.5,1C181,318.8,181.3,318.9,181.8,318.9z"/>
		<path d="M190.2,320.4c-0.8,0-1.5-0.2-2-0.5c-0.5-0.4-0.9-0.8-1.2-1.3c-0.3-0.5-0.5-1.1-0.6-1.8c-0.1-0.6-0.1-1.2-0.1-1.8
			c0-0.5,0-1.1,0.1-1.8c0.1-0.6,0.3-1.2,0.6-1.8c0.3-0.5,0.7-1,1.2-1.3c0.5-0.4,1.2-0.5,2-0.5c0.8,0,1.5,0.2,2,0.5
			c0.5,0.4,0.9,0.8,1.2,1.3c0.3,0.5,0.5,1.1,0.6,1.8c0.1,0.6,0.1,1.2,0.1,1.8c0,0.5,0,1.1-0.1,1.8c-0.1,0.6-0.3,1.2-0.6,1.8
			c-0.3,0.5-0.7,1-1.2,1.3C191.7,320.2,191,320.4,190.2,320.4z M190.2,318.9c0.3,0,0.5-0.1,0.7-0.2c0.2-0.1,0.4-0.3,0.5-0.5
			c0.1-0.2,0.2-0.5,0.3-0.8c0.1-0.3,0.1-0.6,0.2-0.9c0-0.3,0.1-0.6,0.1-0.8c0-0.3,0-0.5,0-0.7c0-0.2,0-0.5,0-0.7
			c0-0.3,0-0.6-0.1-0.8c0-0.3-0.1-0.6-0.2-0.9c-0.1-0.3-0.2-0.5-0.3-0.8c-0.1-0.2-0.3-0.4-0.5-0.5c-0.2-0.1-0.4-0.2-0.7-0.2
			c-0.4,0-0.8,0.1-1,0.4c-0.2,0.3-0.4,0.6-0.5,1c-0.1,0.4-0.2,0.8-0.2,1.3c0,0.4,0,0.8,0,1.2c0,0.3,0,0.7,0,1.2
			c0,0.4,0.1,0.9,0.2,1.3c0.1,0.4,0.3,0.8,0.5,1C189.4,318.8,189.7,318.9,190.2,318.9z"/>
		<path d="M195,318.1c0.3,0.1,0.5,0.2,0.7,0.3c0.2,0.1,0.4,0.2,0.7,0.2c0.2,0.1,0.4,0.1,0.7,0.1c0.2,0,0.5,0,0.8,0
			c0.6,0,1.1-0.2,1.5-0.5c0.4-0.4,0.5-0.8,0.5-1.4c0-0.6-0.2-1.1-0.5-1.4s-0.8-0.5-1.5-0.5c-0.1,0-0.3,0-0.5,0s-0.4,0-0.6,0.1
			c-0.2,0-0.4,0.1-0.7,0.2c-0.2,0.1-0.5,0.2-0.8,0.3l0.3-5.7h5.8v1.6h-4.2l-0.1,2.2c0.2,0,0.4-0.1,0.6-0.1c0.2,0,0.5,0,0.8,0
			c0.5,0,0.9,0.1,1.4,0.2c0.4,0.1,0.8,0.3,1.1,0.6c0.3,0.3,0.5,0.6,0.7,1c0.2,0.4,0.3,0.9,0.3,1.5c0,0.6-0.1,1.1-0.3,1.6
			s-0.5,0.8-0.8,1.2c-0.3,0.3-0.7,0.6-1.2,0.7c-0.5,0.2-1,0.2-1.5,0.2c-0.8,0-1.4-0.1-1.9-0.2c-0.5-0.1-0.9-0.3-1.2-0.4V318.1z"/>
	</g>
	<g>
		<path d="M249.4,318.9l3.2-3.1c0.4-0.4,0.7-0.7,0.9-1c0.2-0.3,0.4-0.6,0.5-0.8c0.1-0.3,0.2-0.5,0.2-0.7c0-0.2,0.1-0.4,0.1-0.6
			c0-0.2,0-0.4-0.1-0.6c-0.1-0.2-0.2-0.4-0.3-0.5c-0.1-0.1-0.3-0.3-0.5-0.3c-0.2-0.1-0.5-0.1-0.8-0.1c-0.2,0-0.4,0-0.6,0.1
			c-0.2,0.1-0.4,0.1-0.6,0.2s-0.4,0.2-0.5,0.3c-0.2,0.1-0.3,0.2-0.4,0.3l-0.8-1.1c0.1-0.1,0.3-0.3,0.5-0.4c0.2-0.2,0.4-0.3,0.7-0.4
			s0.6-0.3,0.9-0.3c0.3-0.1,0.7-0.1,1.2-0.1c0.5,0,0.9,0.1,1.3,0.2c0.4,0.1,0.8,0.3,1.1,0.5c0.3,0.2,0.5,0.5,0.7,0.9
			c0.2,0.4,0.3,0.8,0.3,1.3c0,0.6-0.1,1.1-0.4,1.7c-0.3,0.5-0.7,1.1-1.1,1.6c-0.5,0.5-1,1.1-1.6,1.6c-0.6,0.5-1.2,1.1-1.9,1.6
			c0.1,0,0.2-0.1,0.3-0.2c0.1-0.1,0.3-0.1,0.5-0.2c0.2-0.1,0.4-0.1,0.6-0.2c0.2,0,0.4-0.1,0.6-0.1c0.3,0,0.6,0,0.8,0.1
			c0.2,0.1,0.4,0.1,0.7,0.1c0.1,0,0.2,0,0.3,0c0.1,0,0.2-0.1,0.3-0.1c0.1-0.1,0.1-0.2,0.2-0.3c0.1-0.1,0.1-0.3,0.1-0.5l1.3,0.2
			c0,0.5-0.1,0.8-0.3,1.1c-0.1,0.3-0.3,0.5-0.5,0.7c-0.2,0.2-0.5,0.3-0.8,0.4c-0.3,0.1-0.6,0.1-0.9,0.1c-0.2,0-0.3,0-0.5-0.1
			c-0.2,0-0.4-0.1-0.6-0.1c-0.2,0-0.4-0.1-0.7-0.1c-0.2,0-0.5-0.1-0.7-0.1c-0.2,0-0.4,0-0.5,0c-0.2,0-0.4,0-0.6,0
			c-0.2,0-0.4,0-0.6,0.1c-0.2,0-0.5,0.1-0.8,0.1V318.9z"/>
		<path d="M261.8,320.4c-0.8,0-1.5-0.2-2-0.5c-0.5-0.4-0.9-0.8-1.2-1.3c-0.3-0.5-0.5-1.1-0.6-1.8c-0.1-0.6-0.1-1.2-0.1-1.8
			c0-0.5,0-1.1,0.1-1.8c0.1-0.6,0.3-1.2,0.6-1.8c0.3-0.5,0.7-1,1.2-1.3c0.5-0.4,1.2-0.5,2-0.5c0.8,0,1.5,0.2,2,0.5
			c0.5,0.4,0.9,0.8,1.2,1.3c0.3,0.5,0.5,1.1,0.6,1.8c0.1,0.6,0.1,1.2,0.1,1.8c0,0.5,0,1.1-0.1,1.8c-0.1,0.6-0.3,1.2-0.6,1.8
			c-0.3,0.5-0.7,1-1.2,1.3C263.3,320.2,262.6,320.4,261.8,320.4z M261.8,318.9c0.3,0,0.5-0.1,0.7-0.2c0.2-0.1,0.4-0.3,0.5-0.5
			c0.1-0.2,0.2-0.5,0.3-0.8c0.1-0.3,0.1-0.6,0.2-0.9c0-0.3,0.1-0.6,0.1-0.8c0-0.3,0-0.5,0-0.7c0-0.2,0-0.5,0-0.7
			c0-0.3,0-0.6-0.1-0.8s-0.1-0.6-0.2-0.9c-0.1-0.3-0.2-0.5-0.3-0.8c-0.1-0.2-0.3-0.4-0.5-0.5c-0.2-0.1-0.4-0.2-0.7-0.2
			c-0.4,0-0.8,0.1-1,0.4c-0.2,0.3-0.4,0.6-0.5,1c-0.1,0.4-0.2,0.8-0.2,1.3c0,0.4,0,0.8,0,1.2c0,0.3,0,0.7,0,1.2
			c0,0.4,0.1,0.9,0.2,1.3c0.1,0.4,0.3,0.8,0.5,1C261,318.8,261.4,318.9,261.8,318.9z"/>
		<path d="M268,318.8h1.3v-7.1l-1.5,0.4v-1.5l3.4-0.9v9.1h1.3v1.4H268V318.8z"/>
		<path d="M274.8,318c0.3,0.2,0.6,0.3,0.9,0.4c0.3,0.1,0.5,0.2,0.8,0.3c0.2,0.1,0.5,0.1,0.7,0.2c0.2,0,0.5,0,0.8,0
			c0.6,0,1.1-0.1,1.4-0.4c0.3-0.3,0.5-0.7,0.5-1.2c0-0.6-0.2-1-0.6-1.3c-0.4-0.3-1-0.4-1.7-0.4h-0.5V314l0.6,0c0.2,0,0.5,0,0.7-0.1
			s0.4-0.2,0.6-0.3c0.2-0.1,0.3-0.3,0.4-0.5c0.1-0.2,0.2-0.4,0.2-0.6c0-0.2,0-0.4-0.1-0.5c-0.1-0.2-0.2-0.3-0.3-0.4
			c-0.1-0.1-0.3-0.2-0.5-0.3c-0.2-0.1-0.5-0.1-0.8-0.1c-0.5,0-1,0.1-1.4,0.3c-0.4,0.2-0.7,0.3-1,0.5l-0.7-1.1
			c0.2-0.1,0.4-0.3,0.7-0.4c0.2-0.1,0.5-0.3,0.8-0.4c0.3-0.1,0.6-0.2,0.9-0.3c0.3-0.1,0.7-0.1,1-0.1c0.4,0,0.9,0.1,1.3,0.2
			c0.4,0.1,0.8,0.3,1.1,0.5c0.3,0.2,0.5,0.5,0.7,0.8c0.2,0.3,0.3,0.7,0.3,1.2c0,0.3,0,0.6-0.1,0.9c-0.1,0.3-0.2,0.5-0.3,0.7
			c-0.1,0.2-0.3,0.4-0.5,0.5c-0.2,0.1-0.4,0.3-0.7,0.4c0.3,0.1,0.5,0.2,0.8,0.3c0.2,0.1,0.4,0.3,0.6,0.5c0.2,0.2,0.3,0.5,0.4,0.7
			c0.1,0.3,0.2,0.6,0.2,0.9c0,0.6-0.1,1-0.3,1.4c-0.2,0.4-0.5,0.7-0.8,1c-0.3,0.3-0.7,0.5-1.2,0.6c-0.5,0.1-1,0.2-1.5,0.2
			c-0.6,0-1.2-0.1-1.7-0.2c-0.5-0.1-1-0.3-1.6-0.5V318z"/>
	</g>
	<g>
		<path d="M329.8,318.9l3.2-3.1c0.4-0.4,0.7-0.7,0.9-1c0.2-0.3,0.4-0.6,0.5-0.8c0.1-0.3,0.2-0.5,0.2-0.7c0-0.2,0.1-0.4,0.1-0.6
			c0-0.2,0-0.4-0.1-0.6c-0.1-0.2-0.2-0.4-0.3-0.5c-0.1-0.1-0.3-0.3-0.5-0.3c-0.2-0.1-0.5-0.1-0.8-0.1c-0.2,0-0.4,0-0.6,0.1
			c-0.2,0.1-0.4,0.1-0.6,0.2s-0.4,0.2-0.5,0.3c-0.2,0.1-0.3,0.2-0.4,0.3l-0.8-1.1c0.1-0.1,0.3-0.3,0.5-0.4c0.2-0.2,0.4-0.3,0.7-0.4
			c0.3-0.1,0.6-0.3,0.9-0.3c0.3-0.1,0.7-0.1,1.2-0.1c0.5,0,0.9,0.1,1.3,0.2c0.4,0.1,0.8,0.3,1.1,0.5c0.3,0.2,0.5,0.5,0.7,0.9
			c0.2,0.4,0.3,0.8,0.3,1.3c0,0.6-0.1,1.1-0.4,1.7c-0.3,0.5-0.7,1.1-1.1,1.6c-0.5,0.5-1,1.1-1.6,1.6c-0.6,0.5-1.2,1.1-1.9,1.6
			c0.1,0,0.2-0.1,0.3-0.2c0.1-0.1,0.3-0.1,0.5-0.2c0.2-0.1,0.4-0.1,0.6-0.2c0.2,0,0.4-0.1,0.6-0.1c0.3,0,0.6,0,0.8,0.1
			c0.2,0.1,0.4,0.1,0.7,0.1c0.1,0,0.2,0,0.3,0c0.1,0,0.2-0.1,0.3-0.1s0.1-0.2,0.2-0.3s0.1-0.3,0.1-0.5l1.3,0.2
			c0,0.5-0.1,0.8-0.3,1.1c-0.1,0.3-0.3,0.5-0.5,0.7c-0.2,0.2-0.5,0.3-0.8,0.4c-0.3,0.1-0.6,0.1-0.9,0.1c-0.2,0-0.3,0-0.5-0.1
			c-0.2,0-0.4-0.1-0.6-0.1c-0.2,0-0.4-0.1-0.7-0.1c-0.2,0-0.5-0.1-0.7-0.1c-0.2,0-0.4,0-0.5,0c-0.2,0-0.4,0-0.6,0
			c-0.2,0-0.4,0-0.6,0.1c-0.2,0-0.5,0.1-0.8,0.1V318.9z"/>
		<path d="M342.3,320.4c-0.8,0-1.5-0.2-2-0.5c-0.5-0.4-0.9-0.8-1.2-1.3c-0.3-0.5-0.5-1.1-0.6-1.8c-0.1-0.6-0.1-1.2-0.1-1.8
			c0-0.5,0-1.1,0.1-1.8c0.1-0.6,0.3-1.2,0.6-1.8c0.3-0.5,0.7-1,1.2-1.3c0.5-0.4,1.2-0.5,2-0.5s1.5,0.2,2,0.5
			c0.5,0.4,0.9,0.8,1.2,1.3c0.3,0.5,0.5,1.1,0.6,1.8c0.1,0.6,0.1,1.2,0.1,1.8c0,0.5,0,1.1-0.1,1.8c-0.1,0.6-0.3,1.2-0.6,1.8
			c-0.3,0.5-0.7,1-1.2,1.3C343.8,320.2,343.1,320.4,342.3,320.4z M342.3,318.9c0.3,0,0.5-0.1,0.7-0.2c0.2-0.1,0.4-0.3,0.5-0.5
			c0.1-0.2,0.2-0.5,0.3-0.8c0.1-0.3,0.1-0.6,0.2-0.9c0-0.3,0.1-0.6,0.1-0.8c0-0.3,0-0.5,0-0.7c0-0.2,0-0.5,0-0.7
			c0-0.3,0-0.6-0.1-0.8c0-0.3-0.1-0.6-0.2-0.9c-0.1-0.3-0.2-0.5-0.3-0.8c-0.1-0.2-0.3-0.4-0.5-0.5c-0.2-0.1-0.4-0.2-0.7-0.2
			c-0.4,0-0.8,0.1-1,0.4c-0.2,0.3-0.4,0.6-0.5,1c-0.1,0.4-0.2,0.8-0.2,1.3c0,0.4,0,0.8,0,1.2c0,0.3,0,0.7,0,1.2
			c0,0.4,0.1,0.9,0.2,1.3c0.1,0.4,0.3,0.8,0.5,1C341.5,318.8,341.9,318.9,342.3,318.9z"/>
		<path d="M346.6,318.9l3.2-3.1c0.4-0.4,0.7-0.7,0.9-1c0.2-0.3,0.4-0.6,0.5-0.8c0.1-0.3,0.2-0.5,0.2-0.7c0-0.2,0.1-0.4,0.1-0.6
			c0-0.2,0-0.4-0.1-0.6c-0.1-0.2-0.2-0.4-0.3-0.5c-0.1-0.1-0.3-0.3-0.5-0.3c-0.2-0.1-0.5-0.1-0.8-0.1c-0.2,0-0.4,0-0.6,0.1
			c-0.2,0.1-0.4,0.1-0.6,0.2s-0.4,0.2-0.5,0.3c-0.2,0.1-0.3,0.2-0.4,0.3L347,311c0.1-0.1,0.3-0.3,0.5-0.4c0.2-0.2,0.4-0.3,0.7-0.4
			c0.3-0.1,0.6-0.3,0.9-0.3c0.3-0.1,0.7-0.1,1.2-0.1c0.5,0,0.9,0.1,1.3,0.2c0.4,0.1,0.8,0.3,1.1,0.5c0.3,0.2,0.5,0.5,0.7,0.9
			c0.2,0.4,0.3,0.8,0.3,1.3c0,0.6-0.1,1.1-0.4,1.7c-0.3,0.5-0.7,1.1-1.1,1.6c-0.5,0.5-1,1.1-1.6,1.6c-0.6,0.5-1.2,1.1-1.9,1.6
			c0.1,0,0.2-0.1,0.3-0.2c0.1-0.1,0.3-0.1,0.5-0.2c0.2-0.1,0.4-0.1,0.6-0.2c0.2,0,0.4-0.1,0.6-0.1c0.3,0,0.6,0,0.8,0.1
			c0.2,0.1,0.4,0.1,0.7,0.1c0.1,0,0.2,0,0.3,0c0.1,0,0.2-0.1,0.3-0.1s0.1-0.2,0.2-0.3c0.1-0.1,0.1-0.3,0.1-0.5l1.3,0.2
			c0,0.5-0.1,0.8-0.3,1.1c-0.1,0.3-0.3,0.5-0.5,0.7c-0.2,0.2-0.5,0.3-0.8,0.4c-0.3,0.1-0.6,0.1-0.9,0.1c-0.2,0-0.3,0-0.5-0.1
			c-0.2,0-0.4-0.1-0.6-0.1c-0.2,0-0.4-0.1-0.7-0.1c-0.2,0-0.5-0.1-0.7-0.1c-0.2,0-0.4,0-0.5,0c-0.2,0-0.4,0-0.6,0
			c-0.2,0-0.4,0-0.6,0.1c-0.2,0-0.5,0.1-0.8,0.1V318.9z"/>
		<path d="M356.8,318.8h1.3v-7.1l-1.5,0.4v-1.5l3.4-0.9v9.1h1.3v1.4h-4.6V318.8z"/>
	</g>
	<g>
		<path d="M410.3,318.9l3.2-3.1c0.4-0.4,0.7-0.7,0.9-1c0.2-0.3,0.4-0.6,0.5-0.8c0.1-0.3,0.2-0.5,0.2-0.7s0.1-0.4,0.1-0.6
			c0-0.2,0-0.4-0.1-0.6c-0.1-0.2-0.2-0.4-0.3-0.5c-0.1-0.1-0.3-0.3-0.5-0.3c-0.2-0.1-0.5-0.1-0.8-0.1c-0.2,0-0.4,0-0.6,0.1
			c-0.2,0.1-0.4,0.1-0.6,0.2c-0.2,0.1-0.4,0.2-0.5,0.3c-0.2,0.1-0.3,0.2-0.4,0.3l-0.8-1.1c0.1-0.1,0.3-0.3,0.5-0.4
			c0.2-0.2,0.4-0.3,0.7-0.4c0.3-0.1,0.6-0.3,0.9-0.3c0.3-0.1,0.7-0.1,1.2-0.1c0.5,0,0.9,0.1,1.3,0.2c0.4,0.1,0.8,0.3,1.1,0.5
			c0.3,0.2,0.5,0.5,0.7,0.9c0.2,0.4,0.3,0.8,0.3,1.3c0,0.6-0.1,1.1-0.4,1.7c-0.3,0.5-0.7,1.1-1.1,1.6c-0.5,0.5-1,1.1-1.6,1.6
			c-0.6,0.5-1.2,1.1-1.9,1.6c0.1,0,0.2-0.1,0.3-0.2c0.1-0.1,0.3-0.1,0.5-0.2c0.2-0.1,0.4-0.1,0.6-0.2c0.2,0,0.4-0.1,0.6-0.1
			c0.3,0,0.6,0,0.8,0.1s0.4,0.1,0.7,0.1c0.1,0,0.2,0,0.3,0c0.1,0,0.2-0.1,0.3-0.1c0.1-0.1,0.1-0.2,0.2-0.3c0.1-0.1,0.1-0.3,0.1-0.5
			l1.3,0.2c0,0.5-0.1,0.8-0.3,1.1c-0.1,0.3-0.3,0.5-0.5,0.7c-0.2,0.2-0.5,0.3-0.8,0.4c-0.3,0.1-0.6,0.1-0.9,0.1
			c-0.2,0-0.3,0-0.5-0.1s-0.4-0.1-0.6-0.1c-0.2,0-0.4-0.1-0.7-0.1s-0.5-0.1-0.7-0.1c-0.2,0-0.4,0-0.5,0c-0.2,0-0.4,0-0.6,0
			c-0.2,0-0.4,0-0.6,0.1c-0.2,0-0.5,0.1-0.8,0.1V318.9z"/>
		<path d="M422.8,320.4c-0.8,0-1.5-0.2-2-0.5c-0.5-0.4-0.9-0.8-1.2-1.3c-0.3-0.5-0.5-1.1-0.6-1.8c-0.1-0.6-0.1-1.2-0.1-1.8
			c0-0.5,0-1.1,0.1-1.8c0.1-0.6,0.3-1.2,0.6-1.8c0.3-0.5,0.7-1,1.2-1.3c0.5-0.4,1.2-0.5,2-0.5c0.8,0,1.5,0.2,2,0.5
			c0.5,0.4,0.9,0.8,1.2,1.3c0.3,0.5,0.5,1.1,0.6,1.8c0.1,0.6,0.1,1.2,0.1,1.8c0,0.5,0,1.1-0.1,1.8c-0.1,0.6-0.3,1.2-0.6,1.8
			c-0.3,0.5-0.7,1-1.2,1.3C424.2,320.2,423.6,320.4,422.8,320.4z M422.8,318.9c0.3,0,0.5-0.1,0.7-0.2c0.2-0.1,0.4-0.3,0.5-0.5
			c0.1-0.2,0.2-0.5,0.3-0.8c0.1-0.3,0.1-0.6,0.2-0.9c0-0.3,0.1-0.6,0.1-0.8c0-0.3,0-0.5,0-0.7c0-0.2,0-0.5,0-0.7
			c0-0.3,0-0.6-0.1-0.8c0-0.3-0.1-0.6-0.2-0.9c-0.1-0.3-0.2-0.5-0.3-0.8c-0.1-0.2-0.3-0.4-0.5-0.5c-0.2-0.1-0.4-0.2-0.7-0.2
			c-0.4,0-0.8,0.1-1,0.4s-0.4,0.6-0.5,1c-0.1,0.4-0.2,0.8-0.2,1.3c0,0.4,0,0.8,0,1.2c0,0.3,0,0.7,0,1.2c0,0.4,0.1,0.9,0.2,1.3
			c0.1,0.4,0.3,0.8,0.5,1S422.3,318.9,422.8,318.9z"/>
		<path d="M427.1,318.9l3.2-3.1c0.4-0.4,0.7-0.7,0.9-1c0.2-0.3,0.4-0.6,0.5-0.8c0.1-0.3,0.2-0.5,0.2-0.7s0.1-0.4,0.1-0.6
			c0-0.2,0-0.4-0.1-0.6c-0.1-0.2-0.2-0.4-0.3-0.5c-0.1-0.1-0.3-0.3-0.5-0.3c-0.2-0.1-0.5-0.1-0.8-0.1c-0.2,0-0.4,0-0.6,0.1
			c-0.2,0.1-0.4,0.1-0.6,0.2c-0.2,0.1-0.4,0.2-0.5,0.3c-0.2,0.1-0.3,0.2-0.4,0.3l-0.8-1.1c0.1-0.1,0.3-0.3,0.5-0.4
			c0.2-0.2,0.4-0.3,0.7-0.4c0.3-0.1,0.6-0.3,0.9-0.3c0.3-0.1,0.7-0.1,1.2-0.1c0.5,0,0.9,0.1,1.3,0.2c0.4,0.1,0.8,0.3,1.1,0.5
			c0.3,0.2,0.5,0.5,0.7,0.9c0.2,0.4,0.3,0.8,0.3,1.3c0,0.6-0.1,1.1-0.4,1.7c-0.3,0.5-0.7,1.1-1.1,1.6c-0.5,0.5-1,1.1-1.6,1.6
			c-0.6,0.5-1.2,1.1-1.9,1.6c0.1,0,0.2-0.1,0.3-0.2c0.1-0.1,0.3-0.1,0.5-0.2c0.2-0.1,0.4-0.1,0.6-0.2c0.2,0,0.4-0.1,0.6-0.1
			c0.3,0,0.6,0,0.8,0.1c0.2,0.1,0.4,0.1,0.7,0.1c0.1,0,0.2,0,0.3,0c0.1,0,0.2-0.1,0.3-0.1c0.1-0.1,0.1-0.2,0.2-0.3
			c0.1-0.1,0.1-0.3,0.1-0.5l1.3,0.2c0,0.5-0.1,0.8-0.3,1.1c-0.1,0.3-0.3,0.5-0.5,0.7c-0.2,0.2-0.5,0.3-0.8,0.4
			c-0.3,0.1-0.6,0.1-0.9,0.1c-0.2,0-0.3,0-0.5-0.1s-0.4-0.1-0.6-0.1c-0.2,0-0.4-0.1-0.7-0.1s-0.5-0.1-0.7-0.1c-0.2,0-0.4,0-0.5,0
			c-0.2,0-0.4,0-0.6,0c-0.2,0-0.4,0-0.6,0.1c-0.2,0-0.5,0.1-0.8,0.1V318.9z"/>
		<path d="M436.3,318.4c0.4,0.2,0.8,0.3,1.2,0.4c0.4,0.1,0.8,0.1,1.2,0.1c0.3,0,0.6,0,0.9-0.1s0.6-0.3,0.8-0.5
			c0.3-0.2,0.5-0.6,0.6-1c0.2-0.4,0.3-1,0.3-1.7c-0.1,0.2-0.3,0.3-0.5,0.4c-0.2,0.1-0.4,0.2-0.6,0.3c-0.2,0.1-0.4,0.1-0.6,0.2
			s-0.4,0.1-0.5,0.1c-0.5,0-1-0.1-1.4-0.2c-0.4-0.2-0.8-0.4-1.1-0.7c-0.3-0.3-0.5-0.7-0.7-1.1c-0.2-0.4-0.3-0.9-0.3-1.4
			c0-0.5,0.1-1,0.3-1.4c0.2-0.4,0.4-0.8,0.8-1.1s0.7-0.5,1.1-0.7c0.4-0.2,0.9-0.3,1.4-0.3c0.8,0,1.5,0.2,2,0.5
			c0.5,0.3,0.9,0.7,1.2,1.2c0.3,0.5,0.5,1.1,0.6,1.7c0.1,0.6,0.2,1.3,0.2,1.9c0,0.9-0.1,1.7-0.3,2.3c-0.2,0.7-0.4,1.2-0.8,1.7
			c-0.3,0.4-0.8,0.8-1.3,1.1c-0.6,0.3-1.2,0.4-1.9,0.4c-0.3,0-0.5,0-0.8,0c-0.2,0-0.4,0-0.6-0.1c-0.2,0-0.4-0.1-0.6-0.1
			s-0.4-0.1-0.6-0.2V318.4z M439.3,315c0.5,0,1-0.2,1.3-0.5c0.3-0.3,0.5-0.8,0.5-1.5c0-0.3,0-0.5-0.1-0.7c-0.1-0.2-0.2-0.5-0.3-0.6
			c-0.1-0.2-0.3-0.3-0.6-0.5c-0.2-0.1-0.5-0.2-0.8-0.2c-0.3,0-0.5,0.1-0.8,0.2c-0.2,0.1-0.4,0.3-0.6,0.4c-0.2,0.2-0.3,0.4-0.4,0.6
			c-0.1,0.2-0.1,0.5-0.1,0.8c0,0.6,0.2,1.1,0.5,1.4C438.4,314.9,438.8,315,439.3,315z"/>
	</g>
</g>
</svg>
