<svg id="Layer_1" xmlns="http://www.w3.org/2000/svg" viewBox="0 0 460 376"><style>.st0{fill:#485da7}</style><path d="M156.6 368.8c0 .5-.1.9-.3 1.3-.2.4-.4.7-.7.9-.3.3-.7.4-1.2.6-.5.1-1 .2-1.5.2-.6 0-1.1-.1-1.6-.2s-.9-.3-1.3-.4v-1.1c.3.1.7.3 1.2.4.5.2 1 .2 1.6.2.8 0 1.4-.2 1.8-.5.4-.3.7-.8.7-1.5 0-.3-.1-.6-.2-.8-.1-.2-.3-.4-.5-.6-.2-.2-.4-.3-.7-.4l-.9-.3c-.4-.1-.8-.3-1.2-.4-.4-.2-.7-.4-1-.6-.3-.2-.5-.5-.7-.8-.2-.3-.3-.7-.3-1.2s.1-.9.3-1.2c.2-.4.4-.7.7-.9.3-.2.7-.4 1.1-.6.4-.1.9-.2 1.4-.2.3 0 .5 0 .8.1.3 0 .5.1.8.1.3.1.5.1.7.2.2.1.4.1.5.2l-.3.9c-.3-.1-.6-.2-1-.3-.4-.1-.9-.2-1.4-.2-.7 0-1.2.2-1.7.5-.4.3-.6.7-.6 1.3 0 .2 0 .5.1.7.1.2.2.4.4.5.2.2.4.3.7.4.3.1.7.3 1.1.4.5.2.9.3 1.3.5s.7.4 1 .6c.3.2.5.5.6.9.2.4.3.8.3 1.3zM165.7 370.9c-.2.2-.4.3-.6.4-.2.1-.5.1-.7.1-.4 0-.6-.1-.8-.3-.2-.2-.2-.5-.2-.8-.1.2-.2.3-.3.5-.1.2-.3.3-.5.4l-.6.3c-.2.1-.5.1-.8.1-.9 0-1.6-.2-2-.7-.4-.5-.6-1.1-.6-1.8l.1-3.1c0-.2 0-.4-.1-.4-.1-.1-.2-.1-.3-.1-.1 0-.2 0-.3.1-.1 0-.2.1-.3.2l-.3-.5c.2-.2.4-.3.7-.4.2-.1.5-.1.7-.1.4 0 .7.1.9.3.2.2.3.5.3.8l-.1 3.2c0 .5.1 1 .3 1.3.2.3.6.5 1.1.5.4 0 .7-.1 1-.2.3-.2.5-.4.6-.6.2-.3.3-.5.4-.9.1-.3.1-.7.1-1v-3.4h1.1v5.5c0 .2 0 .4.1.5.1.1.2.1.3.1.1 0 .2 0 .3-.1s.2-.1.3-.2l.2.3zM174.4 371c-.2.2-.4.3-.6.4-.2.1-.5.1-.7.1-.4 0-.7-.1-.9-.4s-.2-.6-.2-1l.1-3c0-.5-.1-1-.3-1.3-.2-.3-.6-.5-1.2-.5-.4 0-.7.1-1 .2-.3.2-.5.4-.6.6-.2.3-.3.5-.4.9-.1.3-.1.7-.1 1v3.4h-1.1V366c0-.2 0-.4-.1-.4-.1-.1-.2-.1-.3-.1-.1 0-.2 0-.3.1-.1 0-.2.1-.3.2l-.3-.5c.2-.2.4-.3.7-.4.2-.1.5-.1.7-.1.2 0 .4 0 .5.1.1.1.2.1.3.3.1.1.1.2.2.4 0 .1.1.3.1.4.1-.2.2-.3.3-.5.1-.2.3-.3.5-.4l.6-.3c.2-.1.5-.1.8-.1.5 0 .8.1 1.2.2.3.1.6.3.8.5.2.2.4.5.5.8.1.3.1.7.1 1l-.1 3.2c0 .2 0 .4.1.5.1.1.2.1.3.1.1 0 .2 0 .3-.1.1-.1.2-.1.3-.2l.1.3zM179.3 371.5v-.9h.9v-8.7h-.9v-.9h3.1v.9h-1v8.6h5.2v.9h-7.3zM190.2 371c-.2.2-.4.3-.7.4-.2.1-.5.1-.7.1-.4 0-.7-.1-.9-.3-.2-.2-.2-.6-.2-1l.1-4.2c0-.2 0-.4-.1-.4s-.2-.1-.3-.1c-.1 0-.2 0-.3.1-.1 0-.2.1-.3.2l-.3-.5c.2-.2.4-.3.7-.4.2-.1.5-.1.7-.1.4 0 .7.1.8.3.2.2.3.5.2.8l-.1 4.4c0 .2 0 .4.1.5.1.1.2.1.3.1.1 0 .2 0 .3-.1.1-.1.2-.1.3-.2l.4.4zm-1.2-9.1c0 .2-.1.4-.2.6-.2.2-.3.2-.6.2-.2 0-.4-.1-.6-.2-.2-.2-.2-.3-.2-.6 0-.2.1-.4.2-.6.2-.2.3-.2.6-.2.2 0 .4.1.6.2.1.2.2.4.2.6zM195.1 361.3c-.1-.1-.3-.1-.4-.2-.2-.1-.4-.1-.5-.1-.3 0-.5 0-.6.1-.2.1-.3.2-.3.4-.1.2-.1.4-.2.6v2.4h1.7v.8h-1.7v6.1H192v-6.1h-1.3v-.8h1.3v-2.1c0-.3 0-.5.1-.8.1-.3.2-.5.4-.8.2-.2.4-.4.7-.6.3-.1.6-.2 1-.2.3 0 .5 0 .7.1.2.1.4.2.7.3l-.5.9zM196.3 368.4c0 .3.1.5.2.8.1.3.2.5.4.8.2.2.4.4.7.6.3.1.6.2 1 .2.5 0 .9-.1 1.3-.2s.7-.2.9-.4v1c-.2.1-.5.2-.9.3-.3.1-.8.1-1.5.1-.6 0-1.1-.1-1.5-.3-.4-.2-.8-.4-1.1-.8-.3-.3-.5-.7-.6-1.1-.1-.4-.2-.9-.2-1.4 0-.5.1-1 .2-1.5.2-.4.4-.8.7-1.1.3-.3.6-.6 1-.7.4-.2.9-.3 1.4-.3 1 0 1.7.3 2.2.9.5.6.8 1.5.8 2.6v.5h-5zm3.9-.8c0-.7-.2-1.3-.5-1.7-.3-.4-.8-.6-1.4-.6-.6 0-1.1.2-1.4.6-.3.4-.5 1-.6 1.7h3.9zM215.4 371c-.4.2-.9.4-1.4.5-.5.1-1.1.2-1.9.2-.8 0-1.5-.1-2.1-.4-.6-.3-1.2-.6-1.6-1.1-.4-.5-.8-1.1-1-1.7-.2-.7-.4-1.4-.4-2.2 0-.8.1-1.5.4-2.2.3-.7.6-1.2 1.1-1.7.5-.5 1-.9 1.7-1.1.6-.3 1.4-.4 2.2-.4.3 0 .7 0 .9.1.3 0 .6.1.8.1.3.1.5.1.7.2.2.1.5.2.7.3l-.6 1.4c-.2-.1-.4-.2-.6-.2-.2-.1-.4-.1-.6-.2-.2 0-.4-.1-.6-.1h-.7c-.5 0-1 .1-1.4.3-.4.2-.8.5-1 .8-.3.3-.5.8-.7 1.2-.2.5-.2 1-.2 1.6 0 .6.1 1.1.2 1.6.2.5.4.9.7 1.2.3.3.6.6 1 .8.4.2.8.3 1.3.3h.8c.2 0 .5-.1.7-.1.2 0 .5-.1.7-.2.2-.1.5-.2.8-.3v1.3zM220.4 371.6c-1.2 0-2.1-.3-2.7-1-.6-.7-.9-1.6-.9-2.7 0-.5.1-1 .2-1.5.2-.4.4-.8.7-1.2.3-.3.7-.6 1.1-.8.5-.2 1-.3 1.6-.3.6 0 1.1.1 1.6.3.5.2.8.4 1.1.8.3.3.5.7.7 1.2.2.4.2.9.2 1.5 0 1.1-.3 2-.9 2.7-.7.7-1.6 1-2.7 1zm0-1.3c.6 0 1-.2 1.2-.6.3-.4.4-1 .4-1.7 0-.3 0-.6-.1-.9-.1-.3-.2-.5-.3-.7-.1-.2-.3-.4-.5-.5-.2-.1-.4-.2-.7-.2-.3 0-.5.1-.7.2-.2.1-.4.3-.5.5-.1.2-.2.5-.3.7-.1.3-.1.6-.1.9 0 .7.1 1.3.4 1.7.2.4.6.6 1.2.6zM225.2 369.5c.4.2.8.4 1.2.5.5.1.9.2 1.4.2.8 0 1.3-.2 1.3-.7 0-.3-.1-.5-.4-.6-.2-.1-.5-.2-.9-.3-.4-.1-.7-.2-1.1-.3-.3-.1-.6-.3-.9-.4l-.6-.6c-.1-.2-.2-.5-.2-.9s.1-.7.2-1c.2-.3.4-.5.7-.7.3-.2.6-.3 1-.4.4-.1.7-.1 1.1-.1.3 0 .7 0 1.2.1s.9.2 1.4.4l-.5 1.2c-.3-.1-.6-.2-1-.3-.3-.1-.7-.1-1.1-.1-.2 0-.4 0-.6.1-.1 0-.3.1-.3.2l-.2.2v.2c0 .1 0 .2.1.3.1.1.2.2.4.2.2.1.3.1.5.2.2 0 .4.1.6.1l.9.3c.3.1.5.2.8.4.2.2.4.4.5.6.1.2.2.5.2.9s-.1.8-.3 1.1c-.2.3-.4.5-.7.7-.3.2-.6.3-.9.4-.3.1-.7.1-1.1.1-.7 0-1.3-.1-1.7-.2-.5-.1-.9-.3-1.1-.4v-1.4zM233 365.8h-1.3v-1.4h1.3v-1.8h1.9v1.8h1.7v1.4h-1.7v3.5c0 .3.1.5.2.6.1.1.3.2.5.2s.4 0 .6-.1c.2 0 .4-.1.7-.2v1.4c-.2.1-.4.2-.8.3-.3.1-.7.1-1 .1-.7 0-1.2-.2-1.6-.5-.4-.3-.6-.9-.6-1.7v-3.6zM245.4 371.6c-1.2 0-2.1-.3-2.7-1-.6-.7-.9-1.6-.9-2.7 0-.5.1-1 .2-1.5.2-.4.4-.8.7-1.2.3-.3.7-.6 1.1-.8.5-.2 1-.3 1.6-.3.6 0 1.1.1 1.6.3.5.2.8.4 1.1.8.3.3.5.7.7 1.2.2.4.2.9.2 1.5 0 1.1-.3 2-.9 2.7-.6.7-1.5 1-2.7 1zm0-1.3c.6 0 1-.2 1.2-.6.3-.4.4-1 .4-1.7 0-.3 0-.6-.1-.9-.1-.3-.2-.5-.3-.7-.1-.2-.3-.4-.5-.5-.2-.1-.4-.2-.7-.2s-.5.1-.7.2c-.2.1-.4.3-.5.5-.1.2-.2.5-.3.7-.1.3-.1.6-.1.9 0 .7.1 1.3.4 1.7.2.4.6.6 1.2.6zM250.8 365.8h-1.3v-1.4h1.3v-1.7c0-.3 0-.6.1-.9.1-.3.2-.6.4-.8.2-.2.5-.4.8-.6.3-.2.7-.2 1.2-.2.3 0 .6.1.9.2.3.1.6.3.9.4l-.5 1.3c-.2-.1-.4-.2-.6-.2-.2 0-.3-.1-.4-.1-.2 0-.4 0-.5.1l-.3.3c-.1.1-.1.3-.2.4v1.8h1.5v1.4h-1.5v5.6h-1.9v-5.6zM259.3 370h.9v-7.5h-.9V361h3.5c1 0 1.8.1 2.6.4s1.3.6 1.8 1.1c.5.5.8 1 1.1 1.6.2.6.3 1.3.3 2.1 0 .7-.1 1.4-.3 2.1-.2.6-.6 1.2-1.1 1.7-.5.5-1.1.8-1.8 1.1s-1.6.4-2.6.4h-3.5V370zm3.9 0c.5 0 .9-.1 1.3-.3.4-.2.7-.4 1-.8.3-.3.5-.7.7-1.2.2-.5.2-1 .2-1.5s-.1-1-.2-1.5c-.2-.5-.4-.9-.7-1.2-.3-.3-.7-.6-1.1-.8-.4-.2-.9-.3-1.4-.3h-.8v7.5h1zM271 373c.4.2.8.3 1.2.4.4.1.8.1 1.3.1.4 0 .7-.1.9-.2.2-.1.4-.2.6-.4.1-.2.3-.4.3-.6.1-.2.1-.4.1-.7v-1c-.2.3-.5.5-.9.7-.3.2-.8.3-1.2.3-.9 0-1.5-.2-1.9-.7-.4-.5-.6-1.1-.5-1.9v-2.9c0-.1 0-.2-.1-.2-.1-.1-.1-.1-.2-.1h-.2c-.1 0-.2.1-.3.1l-.5-.9c.3-.3.7-.5 1-.6.3-.1.6-.2.9-.2.3 0 .5 0 .7.1.2.1.3.2.4.3.1.1.2.3.2.5s.1.4.1.6v2.8c0 .4.1.7.2.9.2.3.4.4.8.4.3 0 .5-.1.7-.2.2-.1.4-.3.5-.4.1-.2.2-.4.3-.7.1-.3.1-.6.1-.9v-3.5h1.9v7c0 .5-.1 1-.2 1.5-.1.4-.4.8-.7 1.1-.3.3-.7.5-1.1.7-.4.2-1 .3-1.6.3-.7 0-1.2-.1-1.6-.2-.4-.1-.8-.2-1.2-.4V373zM279.9 366.2c0-.1 0-.2-.1-.2-.1-.1-.1-.1-.2-.1h-.2c-.1 0-.2.1-.3.1l-.5-.9.9-.6c.3-.1.6-.2.9-.2.3 0 .5 0 .7.1.2.1.3.2.4.3.1.1.2.3.2.5s.1.4.1.6v3.7c0 .1 0 .2.1.2.1.1.1.1.2.1h.2c.1 0 .2-.1.3-.1l.5.9c-.3.3-.7.5-1 .6-.3.1-.6.2-.9.2-.3 0-.5 0-.7-.1-.2-.1-.3-.2-.4-.3-.1-.1-.2-.3-.2-.5s-.1-.4-.1-.6l.1-3.7zm-.4-4c0-.3.1-.6.3-.8.2-.2.5-.3.8-.3.3 0 .6.1.8.3.2.2.3.5.3.8 0 .3-.1.6-.3.8s-.5.3-.8.3c-.3 0-.6-.1-.8-.3s-.3-.5-.3-.8zM284.7 366.2c0-.1 0-.2-.1-.2-.1-.1-.1-.1-.2-.1h-.2c-.1 0-.2.1-.3.1l-.5-.9c.2-.1.5-.3.8-.4.3-.1.6-.2 1-.2.3 0 .6.1.8.3.3.2.4.5.4.9.2-.4.5-.7.9-.9.4-.3.9-.4 1.5-.4.9 0 1.5.2 1.9.7.4.5.6 1.1.5 1.9v2.9c0 .1 0 .2.1.2.1.1.1.1.2.1h.2c.1 0 .2-.1.3-.1l.5.9c-.3.3-.7.5-1 .6-.3.1-.6.2-.9.2-.3 0-.5 0-.7-.1-.2-.1-.3-.2-.4-.3-.1-.1-.2-.3-.2-.5s-.1-.4-.1-.6v-2.9c0-.4-.1-.7-.2-.9-.2-.3-.4-.4-.8-.4-.3 0-.5.1-.7.2-.2.1-.3.3-.5.4-.1.2-.2.4-.3.7-.1.3-.1.6-.1.9v3.5h-1.9v-5.6zM294.1 373c.2.1.5.2.7.2.2.1.4.1.6.2.2 0 .4.1.6.1h.7c.4 0 .7-.1 1-.2.3-.1.5-.3.6-.4.2-.2.3-.4.3-.6.1-.2.1-.5.1-.7v-.9c-.2.3-.5.5-.9.7-.4.2-.8.3-1.3.3-1.1 0-1.9-.3-2.4-1-.5-.6-.8-1.6-.8-2.7 0-.5.1-1 .2-1.5s.3-.8.6-1.2.6-.6 1-.8c.4-.2.8-.3 1.3-.3.6 0 1 .1 1.4.3.4.2.7.5.9.8v-1h1.9v7c0 .5-.1 1-.2 1.5-.1.4-.4.8-.7 1.1-.3.3-.7.5-1.1.7-.5.2-1 .3-1.6.3h-.9c-.3 0-.5-.1-.7-.1-.2 0-.4-.1-.7-.2-.2-.1-.4-.1-.6-.2V373zm2.9-2.8c.6 0 1-.2 1.3-.6.3-.4.4-.9.4-1.6 0-.2 0-.5-.1-.8-.1-.3-.2-.5-.3-.7-.1-.2-.3-.4-.6-.5-.2-.1-.5-.2-.8-.2-.3 0-.5.1-.7.2-.2.1-.4.3-.5.5-.1.2-.2.4-.3.7-.1.3-.1.5-.1.8 0 .7.1 1.3.4 1.6.2.4.7.6 1.3.6zM311.1 365.8c-.1 0-.2-.1-.3-.2-.2-.1-.4-.1-.6-.1-.3 0-.5.1-.7.2-.2.1-.4.3-.5.5-.2.3-.4.7-.5 1.1-.1.5-.2.9-.2 1.4v2.8h-1.1V366c0-.2 0-.4-.1-.4-.1-.1-.2-.1-.3-.1-.1 0-.2 0-.3.1-.1 0-.2.1-.3.2l-.3-.5c.2-.2.4-.3.7-.4.2-.1.5-.1.7-.1.4 0 .7.1.8.4.1.3.2.7.2 1.3.2-.6.4-1 .8-1.3.4-.3.8-.4 1.2-.4.3 0 .6 0 .8.1.2.1.3.2.5.2l-.5.7zM312.9 368.4c0 .3.1.5.2.8.1.3.2.5.4.8.2.2.4.4.7.6.3.1.6.2 1 .2.5 0 .9-.1 1.3-.2s.7-.2.9-.4v1c-.2.1-.5.2-.9.3-.3.1-.8.1-1.5.1-.6 0-1.1-.1-1.5-.3-.4-.2-.8-.4-1.1-.8-.3-.3-.5-.7-.6-1.1-.1-.4-.2-.9-.2-1.4 0-.5.1-1 .2-1.5.2-.4.4-.8.7-1.1.3-.3.6-.6 1-.7.4-.2.9-.3 1.4-.3 1 0 1.7.3 2.2.9.5.6.8 1.5.8 2.6v.5h-5zm3.9-.8c0-.7-.2-1.3-.5-1.7-.3-.4-.8-.6-1.4-.6-.6 0-1.1.2-1.4.6-.3.4-.5 1-.6 1.7h3.9zM326.8 368c0 .5-.1 1-.2 1.4-.1.4-.3.8-.6 1.1-.3.3-.6.6-1 .8-.4.2-.8.3-1.3.3-.6 0-1.1-.1-1.6-.3-.4-.2-.7-.5-1-.9v4.4H320V366c0-.2 0-.4-.1-.4-.1-.1-.2-.1-.3-.1-.1 0-.2 0-.3.1-.1 0-.2.1-.3.2l-.3-.5c.2-.2.4-.3.7-.4.2-.1.5-.1.7-.1.4 0 .7.1.8.3.2.2.2.5.3.8.3-.4.6-.7 1.1-.9.4-.2.9-.3 1.4-.3.5 0 1 .1 1.4.3.4.2.7.4 1 .8.3.3.5.7.6 1.1 0 .1.1.6.1 1.1zm-1.2 0c0-.4 0-.7-.1-1-.1-.3-.2-.6-.4-.9-.2-.3-.4-.4-.6-.6-.3-.1-.6-.2-.9-.2s-.7.1-1 .2c-.3.1-.5.3-.7.6-.2.3-.4.5-.5.9-.1.3-.2.7-.2 1 0 .4.1.7.2 1 .1.3.3.6.4.9.2.3.4.4.7.6.3.1.6.2 1 .2s.7-.1.9-.2c.3-.1.5-.3.6-.6.2-.3.3-.5.4-.9.1-.3.2-.6.2-1zM335.1 368c0 .5-.1 1-.2 1.5-.2.4-.4.8-.7 1.1-.3.3-.7.6-1.1.7-.4.2-.9.3-1.4.3-.5 0-1-.1-1.4-.3-.4-.2-.8-.4-1.1-.7-.3-.3-.5-.7-.7-1.1-.2-.4-.2-.9-.2-1.5 0-.5.1-1 .2-1.5.2-.4.4-.8.7-1.1.3-.3.7-.6 1.1-.7.4-.2.9-.3 1.4-.3.5 0 1 .1 1.4.3.4.2.8.4 1.1.7.3.3.5.7.7 1.1.1.5.2 1 .2 1.5zm-1.3 0c0-.4 0-.7-.1-1-.1-.3-.2-.6-.4-.9-.2-.3-.4-.5-.7-.6-.3-.2-.6-.2-1-.2s-.7.1-1 .2c-.3.2-.5.4-.7.6-.2.3-.3.5-.4.9-.1.3-.1.7-.1 1 0 .4 0 .7.1 1 .1.3.2.6.4.9.2.3.4.5.7.6.3.2.6.2 1 .2s.7-.1 1-.2c.3-.2.5-.4.7-.6.2-.3.3-.5.4-.9.1-.3.1-.6.1-1zM341.2 365.8c-.1 0-.2-.1-.3-.2-.2-.1-.4-.1-.6-.1-.3 0-.5.1-.7.2-.2.1-.4.3-.5.5-.2.3-.4.7-.5 1.1-.1.5-.2.9-.2 1.4v2.8h-1.1V366c0-.2 0-.4-.1-.4-.1-.1-.2-.1-.3-.1-.1 0-.2 0-.3.1-.1 0-.2.1-.3.2l-.3-.5c.2-.2.4-.3.7-.4.2-.1.5-.1.7-.1.4 0 .7.1.8.4.1.3.2.7.2 1.3.2-.6.4-1 .8-1.3.4-.3.8-.4 1.2-.4.3 0 .6 0 .8.1.2.1.3.2.5.2l-.5.7zM346.6 371.2c-.1 0-.1.1-.3.1-.1 0-.2.1-.4.1-.1 0-.3.1-.4.1h-.4c-.6 0-1.1-.1-1.4-.4-.3-.3-.5-.8-.5-1.4v-4.3h-1.3v-.8h1.3v-2h1.1v2h1.9v.8h-1.9v4.2c0 .4.1.7.2.9.1.2.4.3.7.3.2 0 .5 0 .7-.1.3-.1.4-.2.5-.2v.7zM358.1 369.7c0 .6-.2 1.1-.6 1.4-.4.3-.9.5-1.4.5-.4 0-.8 0-1.2-.1-.4-.1-.9-.1-1.3-.1-.5 0-.9 0-1.2.1-.4 0-.8.1-1.2.2v-.8l3.3-3.3c.4-.4.7-.8 1-1.1.3-.3.5-.7.6-1 .2-.3.3-.6.3-.8.1-.3.1-.5.1-.7 0-.6-.2-1-.5-1.4-.3-.3-.9-.5-1.6-.5-.3 0-.5 0-.7.1-.2.1-.4.1-.6.2-.2.1-.4.2-.5.3-.2.1-.3.2-.4.3l-.5-.7.4-.4c.2-.1.4-.3.7-.4.3-.1.5-.2.9-.3.3-.1.7-.1 1-.1.4 0 .9.1 1.2.2.4.1.7.3 1 .5.3.2.5.5.7.9s.2.8.2 1.3c0 .4-.1.8-.2 1.1-.1.4-.3.7-.6 1.1-.2.4-.5.7-.8 1.1-.3.4-.6.7-1 1l-2.6 2.5c.3-.1.5-.2.8-.3.3-.1.5-.1.7-.1h.7c.2 0 .4.1.5.1s.3.1.5.1h.5c.3 0 .5-.1.7-.2.2-.1.3-.4.4-.7h.7zM366.9 366.3c0 .6 0 1.2-.1 1.8-.1.6-.3 1.2-.5 1.7-.3.5-.6 1-1.1 1.3-.5.3-1.1.5-1.8.5s-1.3-.2-1.8-.5-.8-.8-1.1-1.3c-.3-.5-.4-1.1-.5-1.7-.1-.6-.1-1.3-.1-1.8s0-1.2.1-1.8c.1-.6.3-1.2.5-1.7.3-.5.6-1 1.1-1.3.5-.3 1.1-.5 1.8-.5s1.3.2 1.8.5.8.8 1.1 1.3c.3.5.4 1.1.5 1.7 0 .6.1 1.2.1 1.8zm-1.3 0c0-.4 0-.8-.1-1.3 0-.5-.1-1-.3-1.4s-.4-.8-.7-1.2c-.3-.3-.7-.5-1.2-.5s-.9.2-1.2.5c-.3.3-.5.7-.7 1.2-.2.5-.3.9-.3 1.4 0 .5-.1.9-.1 1.3s0 .8.1 1.3c0 .5.1 1 .3 1.4.2.5.4.8.7 1.2.3.3.7.5 1.2.5s.9-.2 1.2-.5c.3-.3.5-.7.7-1.2.2-.5.3-.9.3-1.4.1-.5.1-1 .1-1.3zM369.9 371.5v-.9h1.3v-8.3l-1.5.4v-.9l2.7-.7v9.6h1.3v.9h-3.8zM383 368.6c0 .5-.1 1-.3 1.4-.2.4-.5.7-.8 1-.3.3-.7.5-1.1.6-.4.1-.9.2-1.3.2-.6 0-1.1-.1-1.6-.2s-.9-.3-1.4-.5V370l.6.3.6.3c.2.1.5.1.8.2.3 0 .6.1 1 .1.3 0 .6 0 .9-.1.3-.1.5-.2.7-.4.2-.2.4-.4.5-.7.1-.3.2-.6.2-.9 0-.4-.1-.7-.2-1-.1-.3-.3-.5-.6-.6-.2-.2-.5-.3-.8-.3-.3-.1-.6-.1-.9-.1h-.4v-1h.4c.2 0 .5 0 .8-.1.3 0 .5-.1.7-.3.2-.1.4-.3.5-.6.1-.2.2-.6.2-1 0-.5-.2-1-.5-1.3-.3-.3-.8-.5-1.5-.5-.3 0-.5 0-.8.1-.2.1-.5.1-.7.2-.2.1-.4.2-.5.3-.2.1-.3.2-.4.2l-.5-.7c.1-.1.3-.2.5-.3.2-.1.4-.2.7-.3.3-.1.5-.2.8-.3.3-.1.6-.1.9-.1.4 0 .9.1 1.2.2.4.1.7.3 1 .5.3.2.5.5.7.8.2.3.2.7.2 1.1 0 .6-.2 1.1-.5 1.5-.3.4-.7.7-1.3.9l.9.3c.3.2.5.3.6.6.2.2.3.5.4.8.3.2.3.4.3.8z"/><g><path d="M7.5 39.8c0 .5-.2.9-.6 1.2-.4.3-.8.4-1.3.4-.2 0-.4 0-.5-.1-.2 0-.4-.1-.6-.1-.2-.1-.4-.1-.6-.1-.2-.1-.5-.1-.7-.1h-.6c-.2 0-.4 0-.5.1-.2 0-.3.1-.5.1s-.4.1-.6.1v-.7c.3-.1.5-.2.7-.3.2-.1.4-.3.5-.5.1-.2.2-.4.3-.7 0-.2.1-.5.1-.7v-.2-.3-.4-.6H1v-.8h1.4v-.8-.4-.2-.1c0-.5.1-.9.2-1.2.2-.2.4-.4.6-.7.3-.2.5-.4.9-.5.3-.1.7-.2 1-.2.5 0 1 .1 1.3.2.4.2.7.3 1 .5l-.4.8c-.3-.2-.6-.3-.8-.4-.3-.1-.6-.2-1-.2-.3 0-.6 0-.8.1s-.4.2-.5.4l-.3.6c-.1.2-.1.5-.1.8v1.4h2.3v.8H3.5V37.9c0 .6-.1 1-.2 1.4-.1.4-.3.7-.4.9.1 0 .1 0 .2-.1.1 0 .2 0 .3-.1H4c.2 0 .4 0 .5.1.2 0 .3.1.5.1.1 0 .3.1.4.1h.5c.3 0 .5-.1.7-.2.2-.1.3-.3.3-.6l.6.3zM10.1 41.3v-.8h1.2v-7.2l-1.3.4v-.8l2.3-.6v8.3h1.2v.8h-3.4zM22 36.8c0 .5 0 1-.1 1.6-.1.6-.2 1.1-.5 1.5-.2.5-.5.8-.9 1.1-.4.3-.9.4-1.5.4s-1.1-.1-1.5-.4c-.4-.3-.7-.7-.9-1.1-.2-.5-.4-1-.5-1.5-.1-.6-.1-1.1-.1-1.6s0-1 .1-1.6c.1-.6.2-1.1.5-1.5.2-.5.5-.8.9-1.1.4-.3.9-.4 1.5-.4s1.1.1 1.5.4c.4.3.7.7.9 1.1.2.5.4 1 .5 1.5.1.5.1 1.1.1 1.6zm-1.1 0c0-.3 0-.7-.1-1.2 0-.4-.1-.9-.3-1.3-.1-.4-.3-.7-.6-1-.3-.3-.6-.4-1.1-.4-.5 0-.8.1-1.1.4-.3.3-.5.6-.6 1-.1.4-.2.8-.3 1.3 0 .4-.1.8-.1 1.2 0 .3 0 .7.1 1.2 0 .4.1.9.3 1.3.1.4.3.7.6 1 .3.3.6.4 1.1.4.4 0 .8-.1 1.1-.4s.5-.6.6-1c.1-.4.2-.8.3-1.3.1-.5.1-.9.1-1.2zM25.4 40.3c-.1.3-.2.5-.3.8-.1.3-.2.5-.4.8-.1.2-.3.5-.4.7-.1.2-.3.4-.4.5l-.7-.2.3-.6c.1-.2.2-.5.3-.7.1-.2.2-.5.2-.8.1-.3.1-.5.2-.8l1.2.3zM33 36.8c0 .5 0 1-.1 1.6-.1.6-.2 1.1-.5 1.5-.2.5-.5.8-.9 1.1-.4.3-.9.4-1.5.4s-1.1-.1-1.5-.4c-.4-.3-.7-.7-.9-1.1-.2-.5-.4-1-.5-1.5-.1-.6-.1-1.1-.1-1.6s0-1 .1-1.6c.1-.6.2-1.1.5-1.5.2-.5.5-.8.9-1.1.4-.3.9-.4 1.5-.4s1.1.1 1.5.4c.4.3.7.7.9 1.1.2.5.4 1 .5 1.5 0 .5.1 1.1.1 1.6zm-1.1 0c0-.3 0-.7-.1-1.2 0-.4-.1-.9-.3-1.3-.1-.4-.3-.7-.6-1-.3-.3-.6-.4-1.1-.4-.5 0-.8.1-1.1.4-.3.3-.5.6-.6 1-.1.4-.2.8-.3 1.3 0 .4-.1.8-.1 1.2 0 .3 0 .7.1 1.2 0 .4.1.9.3 1.3.1.4.3.7.6 1s.6.4 1.1.4c.4 0 .8-.1 1.1-.4.3-.3.5-.6.6-1 .1-.4.2-.8.3-1.3 0-.5.1-.9.1-1.2zM40.3 36.8c0 .5 0 1-.1 1.6-.1.6-.2 1.1-.5 1.5-.2.5-.5.8-.9 1.1-.4.3-.9.4-1.5.4s-1.1-.1-1.5-.4c-.4-.3-.7-.7-.9-1.1-.2-.5-.4-1-.5-1.5-.1-.6-.1-1.1-.1-1.6s0-1 .1-1.6c.1-.6.2-1.1.5-1.5.2-.5.5-.8.9-1.1.4-.3.9-.4 1.5-.4s1.1.1 1.5.4c.4.3.7.7.9 1.1.2.5.4 1 .5 1.5 0 .5.1 1.1.1 1.6zm-1.1 0c0-.3 0-.7-.1-1.2 0-.4-.1-.9-.3-1.3-.1-.4-.3-.7-.6-1-.3-.3-.6-.4-1.1-.4-.5 0-.8.1-1.1.4-.3.3-.5.6-.6 1-.1.4-.2.8-.3 1.3 0 .4-.1.8-.1 1.2 0 .3 0 .7.1 1.2 0 .4.1.9.3 1.3.1.4.3.7.6 1 .3.3.6.4 1.1.4.4 0 .8-.1 1.1-.4s.5-.6.6-1c.1-.4.2-.8.3-1.3 0-.5.1-.9.1-1.2zM47.6 36.8c0 .5 0 1-.1 1.6-.1.6-.2 1.1-.5 1.5-.2.5-.5.8-.9 1.1s-.9.4-1.5.4-1.1-.1-1.5-.4c-.4-.3-.7-.7-.9-1.1-.2-.5-.4-1-.5-1.5-.1-.6-.1-1.1-.1-1.6s0-1 .1-1.6c.1-.6.2-1.1.5-1.5.2-.5.5-.8.9-1.1.4-.3.9-.4 1.5-.4s1.1.1 1.5.4.7.7.9 1.1c.2.5.4 1 .5 1.5 0 .5.1 1.1.1 1.6zm-1.1 0c0-.3 0-.7-.1-1.2 0-.4-.1-.9-.3-1.3-.1-.4-.3-.7-.6-1-.3-.3-.6-.4-1.1-.4-.5 0-.8.1-1.1.4-.3.3-.5.6-.6 1-.1.4-.2.8-.3 1.3 0 .4-.1.8-.1 1.2 0 .3 0 .7.1 1.2 0 .4.1.9.3 1.3.1.4.3.7.6 1s.6.4 1.1.4c.4 0 .8-.1 1.1-.4.3-.3.5-.6.6-1 .1-.4.2-.8.3-1.3.1-.5.1-.9.1-1.2z"/></g><g><path d="M8.2 170.8c0 .5-.2.9-.6 1.2-.4.3-.8.4-1.3.4-.2 0-.4 0-.5-.1-.2 0-.4-.1-.6-.1-.2-.1-.4-.1-.6-.1-.2 0-.4-.1-.6-.1h-.6c-.2 0-.4 0-.5.1-.2 0-.3.1-.5.1s-.4.1-.6.1v-.7c.3-.1.5-.2.7-.3.2-.1.4-.3.5-.5.1-.2.2-.4.3-.7 0-.2.1-.5.1-.7v-.2-.3-.4-.6H1.7v-.8h1.4v-.8-.4-.2-.1c0-.5.1-.9.2-1.2.2-.3.4-.6.6-.8.3-.2.5-.4.9-.5.3-.1.7-.2 1-.2.5 0 1 .1 1.3.2.4.2.7.3 1 .5l-.4.6c-.3-.2-.6-.3-.8-.4-.3-.1-.6-.2-1-.2-.3 0-.6 0-.8.1-.2.1-.4.2-.5.4l-.3.6c-.1.2-.1.5-.1.8v1.4h2.3v.8H4.2V168.6c0 .6-.1 1-.2 1.4-.1.4-.3.7-.4.9.1 0 .1 0 .2-.1.1 0 .2 0 .3-.1h.6c.2 0 .4 0 .5.1.2 0 .3.1.5.1.1 0 .3.1.4.1h.5c.3 0 .5-.1.7-.2.2-.1.3-.3.3-.6l.6.6zM14.9 169.5c0 .5-.1.9-.2 1.2-.2.4-.4.7-.6.9-.3.3-.6.5-1 .6-.4.1-.8.2-1.2.2-.3 0-.6 0-.8-.1-.3 0-.5-.1-.7-.2-.2-.1-.4-.1-.5-.2-.2-.1-.3-.1-.4-.2v-1l.6.3c.2.1.4.2.5.2.2.1.4.1.6.1h.7c.4 0 .7-.1.9-.2.3-.1.5-.3.6-.4.2-.2.3-.4.4-.7.1-.3.1-.5.1-.9 0-.7-.2-1.2-.6-1.6-.4-.3-.9-.5-1.5-.5-.3 0-.6 0-1 .1s-.7.2-1.1.4l.2-4.7h4.6v.9h-3.7l-.1 2.6c.2-.1.4-.1.6-.1h.7c.9 0 1.6.3 2.1.8.6.9.8 1.6.8 2.5zM18.7 171.4c-.1.3-.2.5-.3.8-.1.3-.2.5-.4.8-.1.2-.3.5-.4.7-.1.2-.3.4-.4.5l-.7-.2.3-.6c.1-.2.2-.5.3-.7.1-.2.2-.5.2-.8.1-.3.1-.5.2-.8l1.2.3zM26.3 167.8c0 .5 0 1-.1 1.6-.1.6-.2 1.1-.5 1.5-.2.5-.5.8-.9 1.1-.4.3-.9.4-1.5.4s-1.1-.1-1.5-.4c-.4-.3-.7-.7-.9-1.1-.2-.5-.4-1-.5-1.5-.1-.6-.1-1.1-.1-1.6s0-1 .1-1.6c.1-.6.2-1.1.5-1.5.2-.5.5-.8.9-1.1.4-.3.9-.4 1.5-.4s1.1.1 1.5.4c.4.3.7.7.9 1.1.2.5.4 1 .5 1.5.1.6.1 1.1.1 1.6zm-1.1 0c0-.3 0-.7-.1-1.2s-.1-.9-.3-1.3c-.1-.4-.3-.7-.6-1-.3-.3-.6-.4-1.1-.4-.5 0-.8.1-1.1.4-.3.3-.5.6-.6 1-.1.4-.2.8-.3 1.3s-.1.8-.1 1.2c0 .3 0 .7.1 1.2 0 .4.1.9.3 1.3.1.4.3.7.6 1 .3.3.6.4 1.1.4.4 0 .8-.1 1.1-.4.3-.3.5-.6.6-1 .1-.4.2-.8.3-1.3.1-.5.1-.9.1-1.2zM33.6 167.8c0 .5 0 1-.1 1.6-.1.6-.2 1.1-.5 1.5-.2.5-.5.8-.9 1.1-.4.3-.9.4-1.5.4s-1.1-.1-1.5-.4c-.4-.3-.7-.7-.9-1.1-.2-.5-.4-1-.5-1.5-.1-.6-.1-1.1-.1-1.6s0-1 .1-1.6c.1-.6.2-1.1.5-1.5.2-.5.5-.8.9-1.1.4-.3.9-.4 1.5-.4s1.1.1 1.5.4c.4.3.7.7.9 1.1.2.5.4 1 .5 1.5.1.6.1 1.1.1 1.6zm-1.1 0c0-.3 0-.7-.1-1.2s-.1-.9-.3-1.3c-.1-.4-.3-.7-.6-1-.3-.3-.6-.4-1.1-.4-.5 0-.8.1-1.1.4-.3.3-.5.6-.6 1-.1.4-.2.8-.3 1.3s-.1.8-.1 1.2c0 .3 0 .7.1 1.2 0 .4.1.9.3 1.3.1.4.3.7.6 1 .3.3.6.4 1.1.4.4 0 .8-.1 1.1-.4.3-.3.5-.6.6-1 .1-.4.2-.8.3-1.3.1-.5.1-.9.1-1.2zM40.9 167.8c0 .5 0 1-.1 1.6-.1.6-.2 1.1-.5 1.5-.2.5-.5.8-.9 1.1-.4.3-.9.4-1.5.4s-1.1-.1-1.5-.4c-.4-.3-.7-.7-.9-1.1-.2-.5-.4-1-.5-1.5-.1-.6-.1-1.1-.1-1.6s0-1 .1-1.6c.1-.6.2-1.1.5-1.5.2-.5.5-.8.9-1.1.4-.3.9-.4 1.5-.4s1.1.1 1.5.4c.4.3.7.7.9 1.1.2.5.4 1 .5 1.5.1.6.1 1.1.1 1.6zm-1.1 0c0-.3 0-.7-.1-1.2s-.1-.9-.3-1.3c-.1-.4-.3-.7-.6-1-.3-.3-.6-.4-1.1-.4-.5 0-.8.1-1.1.4-.3.3-.5.6-.6 1-.1.4-.2.8-.3 1.3s-.1.8-.1 1.2c0 .3 0 .7.1 1.2 0 .4.1.9.3 1.3.1.4.3.7.6 1 .3.3.6.4 1.1.4.4 0 .8-.1 1.1-.4.3-.3.5-.6.6-1 .1-.4.2-.8.3-1.3.1-.5.1-.9.1-1.2z"/></g><path class="st0" d="M74.9 265.5H139v34.3H74.9zM153.9 250.4H218v49.4h-64.1zM234 214.5h64.1v85.3H234zM314.4 138.5h64.1v161.4h-64.1zM394.9 17.5H459v282.3h-64.1z"/><g><path d="M92.1 318.8h1.3v-7.1l-1.5.4v-1.5l3.4-.9v9.1h1.3v1.4H92v-1.4zM99.4 318.4c.4.2.8.3 1.2.4s.8.1 1.2.1c.3 0 .6 0 .9-.1.3-.1.6-.3.8-.5.3-.2.5-.6.6-1 .2-.4.3-1 .3-1.7-.1.2-.3.3-.5.4l-.6.3c-.2.1-.4.1-.6.2s-.4.1-.5.1c-.5 0-1-.1-1.4-.2-.4-.2-.8-.4-1.1-.7-.3-.3-.5-.7-.7-1.1-.2-.4-.3-.9-.3-1.4 0-.5.1-1 .3-1.4.2-.4.4-.8.8-1.1.3-.3.7-.5 1.1-.7s.9-.3 1.4-.3c.8 0 1.5.2 2 .5s.9.7 1.2 1.2c.3.5.5 1.1.6 1.7.1.6.2 1.3.2 1.9 0 .9-.1 1.7-.3 2.3-.2.7-.4 1.2-.8 1.7-.3.4-.8.8-1.3 1.1-.6.3-1.2.4-1.9.4h-.8c-.2 0-.4 0-.6-.1-.2 0-.4-.1-.6-.1s-.4-.1-.6-.2v-1.7zm3-3.4c.5 0 1-.2 1.3-.5.3-.3.5-.8.5-1.5 0-.3 0-.5-.1-.7-.1-.2-.2-.5-.3-.6-.1-.2-.3-.3-.6-.5-.2-.1-.5-.2-.8-.2-.3 0-.5.1-.8.2-.2.1-.4.3-.6.4-.2.2-.3.4-.4.6-.1.2-.1.5-.1.8 0 .6.2 1.1.5 1.4.5.5.9.6 1.4.6zM107.8 318.4c.4.2.8.3 1.2.4s.8.1 1.2.1c.3 0 .6 0 .9-.1s.6-.3.8-.5c.3-.2.5-.6.6-1 .2-.4.3-1 .3-1.7-.1.2-.3.3-.5.4l-.6.3c-.2.1-.4.1-.6.2-.2 0-.4.1-.5.1-.5 0-1-.1-1.4-.2-.4-.2-.8-.4-1.1-.7-.3-.3-.5-.7-.7-1.1-.2-.4-.3-.9-.3-1.4 0-.5.1-1 .3-1.4.2-.4.4-.8.8-1.1.3-.3.7-.5 1.1-.7.4-.2.9-.3 1.4-.3.8 0 1.5.2 2 .5s.9.7 1.2 1.2c.3.5.5 1.1.6 1.7.1.6.2 1.3.2 1.9 0 .9-.1 1.7-.3 2.3-.2.7-.4 1.2-.8 1.7-.3.4-.8.8-1.3 1.1-.6.3-1.2.4-1.9.4h-.8c-.2 0-.4 0-.6-.1-.2 0-.4-.1-.6-.1-.2-.1-.4-.1-.6-.2v-1.7zm3-3.4c.5 0 1-.2 1.3-.5.3-.3.5-.8.5-1.5 0-.3 0-.5-.1-.7-.1-.2-.2-.5-.3-.6s-.3-.3-.6-.5c-.2-.1-.5-.2-.8-.2-.3 0-.5.1-.8.2-.2.1-.4.3-.6.4-.2.2-.3.4-.4.6-.1.2-.1.5-.1.8 0 .6.2 1.1.5 1.4.5.5.9.6 1.4.6zM121 311.5h-5.2v-1.7h7.2v1.2l-4.3 9.2h-2l4.3-8.7z"/></g><g><path d="M95 257.2c0 .5-.2.8-.5 1.1-.3.2-.7.4-1.2.4-.2 0-.3 0-.5-.1-.2 0-.4-.1-.5-.1-.2 0-.4-.1-.6-.1-.2 0-.4-.1-.6-.1h-.5c-.2 0-.3 0-.5.1-.2 0-.3.1-.5.1s-.3.1-.5.1v-.6c.2-.1.5-.2.6-.3.2-.1.3-.2.4-.4.1-.2.2-.4.2-.6 0-.2.1-.4.1-.7v-.2-.2-.4-.5h-1.3v-.7h1.3v-.7-.4-.2-.1c0-.4.1-.8.2-1.1.1-.3.3-.6.5-.7.2-.2.5-.3.8-.4.3-.1.6-.1.9-.1.5 0 .9.1 1.2.2.3.1.6.3.9.5l-.4.6c-.3-.1-.5-.3-.8-.4-.3-.1-.6-.2-.9-.2-.3 0-.5 0-.7.1-.2.1-.4.2-.5.4l-.3.6c-.1.2-.1.5-.1.7V254h2.1v.7h-2.1v.8c0 .5-.1.9-.2 1.3-.1.3-.2.6-.4.8 0 0 .1 0 .2-.1H92c.1 0 .3.1.4.1.1 0 .3.1.4.1h.4c.2 0 .4-.1.6-.2.1-.1.2-.3.3-.5l.9.2zM97.3 258.6v-.7h1v-6.5l-1.1.3v-.7l2.1-.6v7.5h1v.7h-3zM104.5 257.7c-.1.2-.2.5-.3.7s-.2.5-.3.7c-.1.2-.2.4-.4.6-.1.2-.2.3-.3.5l-.6-.2c.1-.2.2-.3.3-.5.1-.2.2-.4.2-.6.1-.2.2-.5.2-.7.1-.2.1-.5.2-.7l1 .2zM111 257.2c0 .5-.2.8-.5 1.1s-.7.4-1.1.4c-.3 0-.6 0-.9-.1-.3-.1-.7-.1-1-.1-.4 0-.7 0-1 .1-.3 0-.6.1-.9.1v-.7l2.6-2.6c.3-.3.6-.6.8-.9.2-.3.4-.5.5-.8.1-.2.2-.5.3-.7.1-.2.1-.4.1-.6 0-.4-.1-.8-.4-1.1-.3-.3-.7-.4-1.2-.4-.2 0-.4 0-.6.1-.2 0-.3.1-.5.2s-.3.1-.4.2c-.1.1-.2.1-.3.2l-.4-.5.3-.3c.1-.1.3-.2.5-.3.2-.1.4-.2.7-.3.2-.1.5-.1.8-.1.3 0 .7 0 1 .1.3.1.6.2.8.4.2.2.4.4.5.7.1.3.2.6.2 1 0 .3-.1.6-.2.9-.1.3-.2.6-.4.9-.2.3-.4.6-.6.8-.2.3-.5.5-.8.8l-2 2c.2-.1.4-.2.6-.2.2-.1.4-.1.6-.1h.5c.1 0 .3 0 .4.1.1 0 .2.1.4.1h.4c.2 0 .4-.1.5-.2s.2-.3.3-.5l.4.3zM117.4 256.3c0 .4-.1.8-.2 1.1-.2.3-.4.6-.6.8-.3.2-.5.4-.9.5-.3.1-.7.1-1 .1-.5 0-.9 0-1.2-.1-.4-.1-.7-.2-1.1-.4v-.9c.2.1.3.2.5.3.2.1.3.2.5.2.2.1.4.1.6.2.2 0 .5.1.7.1.3 0 .5 0 .7-.1l.6-.3c.2-.1.3-.3.4-.5.1-.2.1-.4.1-.7 0-.3-.1-.6-.2-.8-.1-.2-.3-.4-.4-.5l-.6-.3c-.2-.1-.5-.1-.7-.1h-.3v-.8H115.2c.2 0 .4-.1.6-.2.2-.1.3-.2.4-.4.1-.2.2-.4.2-.7 0-.4-.1-.8-.4-1s-.7-.4-1.2-.4c-.2 0-.4 0-.6.1-.2 0-.4.1-.5.2-.2.1-.3.1-.4.2-.1.1-.2.1-.3.2l-.4-.6c.1-.1.3-.2.4-.3.2-.1.3-.2.5-.3.2-.1.4-.1.6-.2.2-.1.5-.1.7-.1.3 0 .7 0 1 .1.3.1.6.2.8.4.2.2.4.4.5.7.1.3.2.6.2.9 0 .5-.1.9-.4 1.2-.2.3-.6.6-1 .7.3 0 .5.1.7.3.2.1.4.3.5.4l.3.6v.4zM124.5 254.5c0 .5 0 .9-.1 1.4-.1.5-.2 1-.4 1.4-.2.4-.5.7-.9 1-.4.3-.8.4-1.4.4s-1-.1-1.4-.4c-.4-.3-.6-.6-.9-1-.2-.4-.4-.9-.4-1.4-.1-.5-.1-1-.1-1.4 0-.5 0-.9.1-1.4.1-.5.2-1 .4-1.4.2-.4.5-.7.9-1 .4-.3.8-.4 1.4-.4s1 .1 1.4.4c.4.3.6.6.9 1 .2.4.3.9.4 1.4 0 .4.1.9.1 1.4zm-1 0c0-.3 0-.6-.1-1 0-.4-.1-.8-.2-1.1-.1-.4-.3-.7-.5-.9-.2-.2-.6-.4-1-.4s-.7.1-1 .4c-.2.2-.4.5-.5.9-.1.4-.2.7-.2 1.1 0 .4-.1.7-.1 1 0 .3 0 .6.1 1 0 .4.1.8.2 1.1.1.4.3.7.5.9.2.2.6.4 1 .4s.7-.1 1-.4c.2-.2.4-.5.5-.9.1-.4.2-.7.2-1.1.1-.4.1-.7.1-1z"/></g><g><path d="M174.1 240.8c0 .5-.2.8-.5 1.1-.3.2-.7.4-1.2.4-.2 0-.3 0-.5-.1-.2 0-.4-.1-.5-.1-.2 0-.4-.1-.6-.1-.2 0-.4-.1-.6-.1h-.5c-.2 0-.3 0-.5.1-.2 0-.3.1-.5.1s-.3.1-.5.1v-.6c.2-.1.5-.2.6-.3.2-.1.3-.2.4-.4.1-.2.2-.4.2-.6 0-.2.1-.4.1-.7v-.2-.2-.4-.5h-1.3v-.7h1.3v-.7-.4-.2-.1c0-.4.1-.8.2-1.1.1-.3.3-.6.5-.7.2-.2.5-.3.8-.4.3-.1.6-.1.9-.1.5 0 .9.1 1.2.2.3.1.6.3.9.5l-.4.6c-.3-.1-.5-.3-.8-.4-.3-.1-.6-.2-.9-.2-.3 0-.5 0-.7.1-.2.1-.4.2-.5.4l-.3.6c-.1.2-.1.5-.1.7V237.6h2.1v.7h-2.1v.8c0 .5-.1.9-.2 1.3-.1.3-.2.6-.4.8 0 0 .1 0 .2-.1h1.2c.1 0 .3.1.4.1.1 0 .3.1.4.1h.4c.2 0 .4-.1.6-.2.1-.1.2-.3.3-.5l.9.2zM176.4 242.1v-.7h1v-6.5l-1.1.3v-.7l2.1-.6v7.5h1v.7h-3zM183.6 241.2c-.1.2-.2.5-.3.7-.1.2-.2.5-.3.7-.1.2-.2.4-.4.6-.1.2-.2.3-.3.5l-.6-.2c.1-.2.2-.3.3-.5.1-.2.2-.4.2-.6.1-.2.2-.5.2-.7.1-.2.1-.5.2-.7l1 .2zM190.2 238c0 .7-.1 1.4-.2 1.9s-.3 1-.6 1.3c-.2.3-.5.6-.9.8-.4.2-.8.3-1.3.3-.4 0-.7 0-1-.1-.3-.1-.5-.1-.8-.3v-.8c.2.1.5.2.8.3.3.1.6.1.9.1.3 0 .6-.1.9-.2.3-.1.5-.3.7-.6.2-.3.4-.6.5-1.1.1-.4.2-1 .2-1.6-.1.2-.2.4-.4.5-.1.1-.3.2-.5.3-.2.1-.4.1-.6.2-.2 0-.4.1-.6.1-.4 0-.7-.1-1-.2-.3-.1-.6-.3-.8-.5-.2-.2-.4-.5-.5-.8-.1-.3-.2-.7-.2-1 0-.4.1-.8.2-1.1.1-.3.3-.6.6-.8.2-.2.5-.4.8-.5.3-.1.7-.2 1-.2.6 0 1 .1 1.4.4.4.2.7.6 1 1.1.1.3.2.6.3 1.1.1.2.1.8.1 1.4zm-1.1-1.6c0-.2 0-.5-.1-.7-.1-.2-.2-.4-.4-.6-.2-.2-.3-.3-.5-.4-.2-.1-.4-.1-.7-.1-.3 0-.5 0-.7.1-.2.1-.4.2-.5.4-.1.2-.3.4-.3.6-.1.2-.1.5-.1.7 0 .3 0 .5.1.7.1.2.2.4.4.6.1.2.3.3.5.4.2.1.4.1.7.1.5 0 .9-.2 1.2-.5.3-.2.4-.7.4-1.3zM197 239.6c0 .4-.1.8-.2 1.1-.1.3-.3.6-.6.9-.2.2-.5.4-.8.5-.3.1-.7.2-1 .2-.6 0-1.1-.1-1.5-.4-.4-.2-.7-.6-1-1.2-.1-.1-.1-.3-.2-.4-.1-.2-.1-.3-.1-.6 0-.2-.1-.5-.1-.7v-1c0-.4 0-.7.1-1 0-.3.1-.6.2-.8.1-.2.2-.5.3-.7.1-.2.2-.4.4-.6.1-.1.2-.3.4-.4.2-.1.3-.2.5-.4l.6-.3c.2-.1.5-.1.7-.1.2 0 .4 0 .6.1.2 0 .4.1.5.1s.3.1.4.2.2.1.3.2l-.3.6c-.1 0-.1-.1-.2-.1s-.2-.1-.3-.1c-.1 0-.3-.1-.4-.1h-.6c-.3 0-.5.1-.8.2-.3.1-.5.3-.7.6-.2.3-.4.6-.5 1.1-.1.4-.2 1-.2 1.7.2-.4.5-.7.9-.8.3-.2.7-.3 1.1-.3.4 0 .7.1 1 .2.3.1.6.3.8.5.2.2.4.5.5.8s.2.6.2 1zm-1 0c0-.3 0-.6-.1-.8-.1-.2-.2-.4-.4-.6-.1-.2-.3-.3-.5-.4-.2-.1-.4-.1-.7-.1-.5 0-.9.2-1.2.5-.3.3-.5.8-.5 1.4 0 .3 0 .6.1.8.1.2.2.4.4.6.1.2.3.3.5.4.2.1.4.1.7.1.2 0 .5-.1.7-.2.2-.1.4-.2.5-.4.2-.2.3-.4.4-.6.1-.1.1-.4.1-.7zM203.2 239.6c0 .4-.1.8-.2 1.1-.1.3-.3.6-.6.9-.2.2-.5.4-.9.5s-.7.2-1.1.2c-.3 0-.5 0-.8-.1-.2 0-.4-.1-.6-.1-.2-.1-.3-.1-.5-.2-.1-.1-.3-.1-.3-.2v-.9c.2.1.3.2.5.3.2.1.3.1.5.2s.3.1.5.1h.6c.3 0 .6 0 .8-.1.2-.1.4-.2.6-.4.2-.2.3-.4.3-.6.1-.2.1-.5.1-.8 0-.6-.2-1.1-.5-1.4-.3-.3-.8-.5-1.3-.5-.3 0-.6 0-.9.1-.3.1-.6.2-1 .4l.2-4.2h4.1v.8h-3.4l-.1 2.3c.2-.1.4-.1.6-.1h.6c.8 0 1.5.2 1.9.7.6.5.9 1.2.9 2z"/></g><g><path d="M254.1 205.1c0 .5-.2.8-.5 1.1-.3.2-.7.4-1.2.4-.2 0-.3 0-.5-.1-.2 0-.3-.1-.5-.1s-.4-.1-.6-.1c-.2 0-.4-.1-.6-.1h-.5c-.2 0-.3 0-.5.1-.2 0-.3.1-.5.1s-.3.1-.5.1v-.6c.2-.1.5-.2.6-.3.2-.1.3-.2.4-.4.1-.2.2-.4.2-.6 0-.2.1-.4.1-.7v-.2-.2-.4-.5h-1.3v-.7h1.3v-.7-.4-.2-.1c0-.4.1-.8.2-1.1.1-.3.3-.6.5-.7.2-.2.5-.3.8-.4.3-.1.6-.1.9-.1.5 0 .9.1 1.2.2.3.1.6.3.9.5l-.4.6c-.3-.1-.5-.3-.8-.4-.3-.1-.6-.2-.9-.2-.3 0-.5 0-.7.1-.2.1-.4.2-.5.4l-.3.6c-.1.2-.1.5-.1.7V201.9h2.1v.7h-2.1v.8c0 .5-.1.9-.2 1.3-.1.3-.2.6-.4.8 0 0 .1 0 .2-.1h1.2c.1 0 .3.1.4.1.1 0 .3.1.4.1h.4c.2 0 .4-.1.6-.2.1-.1.2-.3.3-.5l.9.2zM260.1 204.2c0 .4-.1.8-.2 1.1-.2.3-.4.6-.6.8-.3.2-.5.4-.9.5-.3.1-.7.1-1 .1-.5 0-.9 0-1.2-.1-.4-.1-.7-.2-1.1-.4v-.9c.2.1.3.2.5.3.2.1.3.2.5.2.2.1.4.1.6.2.2 0 .5.1.7.1.3 0 .5 0 .7-.1l.6-.3c.2-.1.3-.3.4-.5.1-.2.1-.4.1-.7 0-.3-.1-.6-.2-.8-.1-.2-.3-.4-.4-.5l-.6-.3c-.2-.1-.5-.1-.7-.1h-.3v-.8H257.9c.2 0 .4-.1.6-.2.2-.1.3-.2.4-.4s.2-.4.2-.7c0-.4-.1-.8-.4-1-.3-.3-.7-.4-1.2-.4-.2 0-.4 0-.6.1-.2 0-.4.1-.5.2-.2.1-.3.1-.4.2-.1.1-.2.1-.3.2l-.4-.6c.1-.1.3-.2.4-.3.2-.1.3-.2.5-.3.2-.1.4-.1.6-.2.2-.1.5-.1.7-.1.3 0 .7 0 1 .1.3.1.6.2.8.4.2.2.4.4.5.7.1.3.2.6.2.9 0 .5-.1.9-.4 1.2-.2.3-.6.6-1 .7.3 0 .5.1.7.3.2.1.4.3.5.4l.3.6c-.1-.1 0 .2 0 .4zM263.6 205.6c-.1.2-.2.5-.3.7-.1.2-.2.5-.3.7-.1.2-.2.4-.4.6-.1.2-.2.3-.3.5l-.6-.2c.1-.2.2-.3.3-.5.1-.2.2-.4.2-.6.1-.2.2-.5.2-.7.1-.2.1-.5.2-.7l1 .2zM269.4 204.5v1.3h.8v.6h-2.5v-.6h.8v-1.3h-3.7v-1l3.2-5.2h1.4v5.5h1v.7h-1zm-.9-5.6l-3 5h3v-5zM276.6 203.9c0 .4-.1.8-.2 1.1-.1.3-.3.6-.6.9-.2.2-.5.4-.9.5-.3.1-.7.2-1.1.2-.3 0-.5 0-.8-.1-.2 0-.4-.1-.6-.1s-.3-.1-.5-.2c-.1-.1-.3-.1-.3-.2v-.9c.2.1.3.2.5.3.2.1.3.1.5.2s.3.1.5.1h.6c.3 0 .6 0 .8-.1.2-.1.4-.2.6-.4.2-.2.3-.4.3-.6.1-.2.1-.5.1-.8 0-.6-.2-1.1-.5-1.4-.3-.3-.8-.5-1.3-.5-.3 0-.6 0-.9.1s-.6.2-1 .4l.2-4.2h4.1v.8h-3.4l-.1 2.3c.2-.1.4-.1.6-.1h.6c.8 0 1.5.2 1.9.7.7.6.9 1.2.9 2zM283.6 203.9c0 .4-.1.8-.2 1.1-.1.3-.3.6-.6.9-.2.2-.5.4-.8.5-.3.1-.7.2-1 .2-.6 0-1.1-.1-1.5-.4-.4-.2-.7-.6-1-1.2-.1-.1-.1-.3-.2-.4-.1-.2-.1-.3-.1-.6 0-.2-.1-.5-.1-.7v-1c0-.4 0-.7.1-1 0-.3.1-.6.2-.8.1-.2.2-.5.3-.7.1-.2.2-.4.4-.6.1-.1.2-.3.4-.4.2-.1.3-.2.5-.4l.6-.3c.2-.1.5-.1.7-.1.2 0 .4 0 .6.1.2 0 .4.1.5.1.2.1.3.1.4.2.1.1.2.1.3.2l-.3.6c-.1 0-.1-.1-.2-.1s-.2-.1-.3-.1c-.1 0-.3-.1-.4-.1h-.6c-.3 0-.5.1-.8.2-.3.1-.5.3-.7.6-.2.3-.4.6-.5 1.1-.1.4-.2 1-.2 1.7.2-.4.5-.7.9-.8.3-.2.7-.3 1.1-.3.4 0 .7.1 1 .2.3.1.6.3.8.5.2.2.4.5.5.8.2.3.2.6.2 1zm-.9.1c0-.3 0-.6-.1-.8-.1-.2-.2-.4-.4-.6-.2-.2-.3-.3-.5-.4s-.4-.1-.7-.1c-.5 0-.9.2-1.2.5-.3.3-.5.8-.5 1.4 0 .3 0 .6.1.8.1.2.2.4.4.6.1.2.3.3.5.4.2.1.4.1.7.1.2 0 .5-.1.7-.2s.4-.2.5-.4c.2-.2.3-.4.4-.6 0-.2.1-.4.1-.7z"/></g><g><path d="M334.6 128.1c0 .5-.2.8-.5 1.1-.3.2-.7.4-1.2.4-.2 0-.3 0-.5-.1-.2 0-.4-.1-.5-.1-.2 0-.4-.1-.6-.1-.2 0-.4-.1-.6-.1h-.5c-.2 0-.3 0-.5.1-.2 0-.3.1-.5.1s-.3.1-.5.1v-.6c.2-.1.5-.2.6-.3.2-.1.3-.2.4-.4.1-.2.2-.4.2-.6 0-.2.1-.4.1-.7v-.2-.2-.4-.5h-1.3v-.7h1.3v-.7-.4-.2-.1c0-.4.1-.8.2-1.1.1-.3.3-.6.5-.7.2-.2.5-.3.8-.4.3-.1.6-.1.9-.1.5 0 .9.1 1.2.2.3.1.6.3.9.5l-.4.6c-.3-.1-.5-.3-.8-.4-.3-.1-.6-.2-.9-.2-.3 0-.5 0-.7.1-.2.1-.4.2-.5.4l-.3.6c-.1.2-.1.5-.1.7V124.9h2.1v.7H331v.8c0 .5-.1.9-.2 1.3-.1.3-.2.6-.4.8 0 0 .1 0 .2-.1h1.2c.1 0 .3.1.4.1.1 0 .3.1.4.1h.4c.2 0 .4-.1.6-.2.1-.1.2-.3.3-.5l.7.2zM340.7 126.9c0 .4-.1.8-.2 1.1-.1.3-.3.6-.6.9-.2.2-.5.4-.9.5-.3.1-.7.2-1.1.2-.3 0-.5 0-.8-.1-.2 0-.4-.1-.6-.1-.2-.1-.3-.1-.5-.2-.1-.1-.3-.1-.3-.2v-.9c.2.1.3.2.5.3.2.1.3.1.5.2s.3.1.5.1h.6c.3 0 .6 0 .8-.1.2-.1.4-.2.6-.4.2-.2.3-.4.3-.6s.1-.5.1-.8c0-.6-.2-1.1-.5-1.4-.3-.3-.8-.5-1.3-.5-.3 0-.6 0-.9.1-.3.1-.6.2-1 .4l.2-4.2h4.1v.8H337l-.1 2.3c.2-.1.4-.1.6-.1h.6c.8 0 1.5.2 1.9.7.4.5.7 1.2.7 2zM344.1 128.6c-.1.2-.2.5-.3.7-.1.2-.2.5-.3.7-.1.2-.2.4-.4.6-.1.2-.2.3-.3.5l-.6-.2c.1-.2.2-.3.3-.5.1-.2.2-.4.2-.6.1-.2.2-.5.2-.7.1-.2.1-.5.2-.7l1 .2zM350.7 125.3c0 .7-.1 1.4-.2 1.9s-.3 1-.6 1.3c-.2.3-.5.6-.9.8-.4.2-.8.3-1.3.3-.4 0-.7 0-1-.1-.3-.1-.5-.1-.8-.3v-.8c.2.1.5.2.8.3.3.1.6.1.9.1.3 0 .6-.1.9-.2.3-.1.5-.3.7-.6.2-.3.4-.6.5-1.1.1-.4.2-1 .2-1.6-.1.2-.2.4-.4.5-.1.1-.3.2-.5.3-.2.1-.4.1-.6.2-.2 0-.4.1-.6.1-.4 0-.7-.1-1-.2-.3-.1-.6-.3-.8-.5-.2-.2-.4-.5-.5-.8-.1-.3-.2-.7-.2-1 0-.4.1-.8.2-1.1.1-.3.3-.6.6-.8s.5-.4.8-.5c.3-.1.7-.2 1-.2.6 0 1 .1 1.4.4.4.2.7.6 1 1.1.1.3.2.6.3 1.1.1.2.1.8.1 1.4zm-1.1-1.6c0-.2 0-.5-.1-.7-.1-.2-.2-.4-.4-.6-.2-.2-.3-.3-.5-.4-.2-.1-.4-.1-.7-.1-.3 0-.5 0-.7.1-.2.1-.4.2-.5.4-.1.2-.3.4-.3.6-.1.2-.1.5-.1.7 0 .3 0 .5.1.7.1.2.2.4.4.6.2.2.3.3.5.4.2.1.4.1.7.1.5 0 .9-.2 1.2-.5.3-.2.4-.7.4-1.3zM357 127.2c0 .4-.1.8-.2 1.1-.2.3-.4.6-.6.8-.3.2-.5.4-.9.5-.3.1-.7.1-1 .1-.5 0-.9 0-1.2-.1-.4-.1-.7-.2-1.1-.4v-.9c.2.1.3.2.5.3.2.1.3.2.5.2.2.1.4.1.6.2.2 0 .5.1.7.1.3 0 .5 0 .7-.1l.6-.3c.2-.1.3-.3.4-.5.1-.2.1-.4.1-.7 0-.3-.1-.6-.2-.8-.1-.2-.3-.4-.4-.5l-.6-.3c-.2-.1-.5-.1-.7-.1h-.3v-.8H354.8c.2 0 .4-.1.6-.2.2-.1.3-.2.4-.4s.2-.4.2-.7c0-.4-.1-.8-.4-1-.3-.3-.7-.4-1.2-.4-.2 0-.4 0-.6.1-.2 0-.4.1-.5.2-.2.1-.3.1-.4.2-.1.1-.2.1-.3.2l-.4-.6c.1-.1.3-.2.4-.3.2-.1.3-.2.5-.3.2-.1.4-.1.6-.2.2-.1.5-.1.7-.1.3 0 .7 0 1 .1.3.1.6.2.8.4.2.2.4.4.5.7.1.3.2.6.2.9 0 .5-.1.9-.4 1.2-.2.3-.6.6-1 .7.3 0 .5.1.7.3.2.1.4.3.5.4l.3.6c-.1-.1 0 .1 0 .4zM363.9 127.2c0 .4-.1.7-.2 1-.1.3-.3.5-.6.8-.2.2-.5.4-.8.5s-.7.2-1 .2c-.4 0-.7-.1-1-.2-.3-.1-.6-.3-.8-.5-.2-.2-.4-.5-.6-.8-.1-.3-.2-.6-.2-1 0-.5.1-1 .4-1.4.3-.4.7-.6 1.2-.7-.2-.1-.4-.1-.6-.3-.2-.1-.3-.3-.4-.4s-.2-.3-.3-.5c-.1-.2-.1-.4-.1-.6 0-.3.1-.6.2-.9s.3-.5.5-.7.5-.3.7-.4c.3-.1.6-.2.9-.2.3 0 .6.1.9.2.3.1.5.2.7.4.2.2.4.4.5.7.1.3.2.6.2.9 0 .2 0 .4-.1.6-.1.2-.1.4-.3.5-.1.2-.3.3-.4.4-.2.1-.3.2-.6.3.5.1.9.4 1.2.7.4.4.6.9.6 1.4zm-1 0c0-.2 0-.5-.1-.7-.1-.2-.2-.4-.4-.5-.1-.2-.3-.3-.5-.4-.2-.1-.4-.1-.7-.1s-.5 0-.7.1c-.2.1-.4.2-.5.4-.2.1-.3.3-.4.5-.1.2-.1.4-.1.7 0 .2 0 .5.1.7s.2.4.3.5c.1.2.3.3.5.4.2.1.4.1.7.1s.5 0 .7-.1c.2-.1.4-.2.5-.4.1-.2.3-.3.3-.5.3-.3.3-.5.3-.7zm-.2-3.9c0-.4-.1-.8-.4-1-.3-.3-.6-.4-1-.4s-.7.1-1 .4c-.3.3-.4.6-.4 1 0 .2 0 .4.1.6.1.2.2.3.3.5.1.1.3.2.5.3.2.1.4.1.6.1.2 0 .4 0 .6-.1.2-.1.3-.2.5-.3.1-.1.2-.3.3-.5-.1-.2-.1-.4-.1-.6z"/></g><g><path d="M411.8 7.9c0 .5-.2.8-.5 1.1-.3.2-.7.4-1.2.4-.2 0-.3 0-.5-.1-.2 0-.4-.1-.5-.1-.2 0-.4-.1-.6-.1-.2 0-.4-.1-.6-.1h-.5c-.2 0-.3 0-.5.1-.2 0-.3.1-.5.1s-.3.1-.5.1v-.6c.2-.1.5-.2.6-.3.2-.1.3-.2.4-.4.1-.2.2-.4.2-.6 0-.2.1-.4.1-.7v-.2-.2-.4-.5h-1.3v-.7h1.3V4v-.4-.2-.1c0-.4.1-.8.2-1.1.1-.3.3-.6.5-.7.2-.2.5-.3.8-.4.3-.1.6-.1.9-.1.5 0 .9.1 1.2.2.3.1.6.3.9.5l-.4.6c-.3-.1-.5-.3-.8-.4-.3-.1-.6-.2-.9-.2-.3 0-.5 0-.7.1-.2.1-.4.2-.5.4l-.3.6c-.1.2-.1.5-.1.7V4.7h2.1v.7H408v.8c0 .5-.1.9-.2 1.3-.1.3-.2.6-.4.8 0 0 .1 0 .2-.1h1.2c.1 0 .3.1.4.1.1 0 .3.1.4.1h.4c.2 0 .4-.1.6-.2.1-.1.2-.3.3-.5l.9.2zM414.1 9.3v-.7h1V2.1l-1.1.3v-.7l2.1-.6v7.5h1v.7h-3zM424.8 5.2c0 .5 0 .9-.1 1.4-.1.5-.2 1-.4 1.4-.2.4-.5.7-.9 1-.4.3-.8.4-1.4.4s-1-.1-1.4-.4c-.4-.3-.6-.6-.9-1-.2-.4-.3-.9-.4-1.4-.1-.5-.1-1-.1-1.4 0-.5 0-.9.1-1.4.1-.5.2-1 .4-1.4.2-.4.5-.7.9-1 .4-.3.9-.4 1.4-.4s1 .1 1.4.4c.4.3.6.6.9 1 .2.4.3.9.4 1.4.1.5.1 1 .1 1.4zm-1 0c0-.3 0-.6-.1-1s-.1-.8-.2-1.1c-.1-.4-.3-.7-.5-.9-.2-.2-.6-.4-1-.4s-.7.1-1 .4c-.2.2-.4.5-.5.9-.1.4-.2.7-.2 1.1 0 .4-.1.7-.1 1s0 .6.1 1c0 .4.1.8.2 1.1.1.4.3.7.5.9.2.2.6.4 1 .4s.7-.1 1-.4c.2-.2.4-.5.5-.9.1-.4.2-.7.2-1.1s.1-.7.1-1zM427.8 8.4c-.1.2-.2.5-.3.7-.1.2-.2.5-.3.7-.1.2-.2.4-.4.6-.1.2-.2.3-.3.5l-.6-.2c.1-.2.2-.3.3-.5.1-.2.2-.4.2-.6.1-.2.2-.5.2-.7.1-.2.1-.5.2-.7l1 .2zM434.4 7.9c0 .5-.2.8-.5 1.1-.3.2-.7.4-1.1.4-.3 0-.6 0-.9-.1s-.7-.1-1-.1c-.4 0-.7 0-1 .1-.3 0-.6.1-.9.1v-.7l2.6-2.6c.3-.3.6-.6.8-.9.2-.3.4-.5.5-.8.1-.2.2-.5.3-.7.1-.2.1-.4.1-.6 0-.4-.1-.8-.4-1.1-.3-.3-.7-.4-1.2-.4-.2 0-.4 0-.6.1-.2 0-.3.1-.5.2s-.3.1-.4.2c-.1.1-.2.1-.3.2l-.4-.5.3-.3c.1-.1.3-.2.5-.3.2-.1.4-.2.7-.3.2-.1.5-.1.8-.1.3 0 .7 0 1 .1.3.1.6.2.8.4.2.2.4.4.5.7.1.3.2.6.2 1 0 .3-.1.6-.2.9s-.2.6-.4.9c-.2.3-.4.6-.6.8-.2.3-.5.5-.8.8l-2 2c.2-.1.4-.2.6-.2.2-.1.4-.1.6-.1h.5c.1 0 .3 0 .4.1.1 0 .2.1.4.1h.4c.2 0 .4-.1.5-.2.1-.1.2-.3.3-.5l.4.3zM441.2 5.2c0 .5 0 .9-.1 1.4-.1.5-.2 1-.4 1.4-.2.4-.5.7-.9 1-.4.3-.8.4-1.4.4s-1-.1-1.4-.4c-.4-.3-.6-.6-.9-1-.2-.4-.3-.9-.4-1.4s-.1-1-.1-1.4c0-.5 0-.9.1-1.4s.2-1 .4-1.4.5-.7.9-1c.4-.3.8-.4 1.4-.4s1 .1 1.4.4c.4.3.6.6.9 1 .2.4.3.9.4 1.4.1.5.1 1 .1 1.4zm-1 0c0-.3 0-.6-.1-1 0-.4-.1-.8-.2-1.1-.1-.4-.3-.7-.5-.9-.2-.2-.6-.4-1-.4s-.7.1-1 .4c-.2.2-.4.5-.5.9-.1.4-.2.7-.2 1.1s-.1.7-.1 1 0 .6.1 1 .1.8.2 1.1c.1.4.3.7.5.9.2.2.6.4 1 .4s.7-.1 1-.4c.2-.2.4-.5.5-.9.1-.4.2-.7.2-1.1.1-.3.1-.7.1-1zM447.3 7c0 .4-.1.8-.2 1.1-.2.3-.4.6-.6.8-.3.2-.5.4-.9.5-.3.1-.7.1-1 .1-.5 0-.9 0-1.2-.1-.4-.1-.7-.2-1.1-.4V8c.2.1.3.2.5.3.2.1.3.2.5.2.2.1.4.1.6.2.2 0 .5.1.7.1.3 0 .5 0 .7-.1l.6-.3c.2-.1.3-.3.4-.5.1-.2.1-.4.1-.7 0-.3-.1-.6-.2-.8-.1-.2-.3-.4-.4-.5l-.6-.3c-.2-.1-.5-.1-.7-.1h-.3v-.9H445.1c.2 0 .4-.1.6-.2.2-.1.3-.2.4-.4s.2-.4.2-.7c0-.4-.1-.8-.4-1-.3-.3-.7-.4-1.2-.4-.2 0-.4 0-.6.1-.2 0-.4.1-.5.2-.2.1-.3.1-.4.2-.1.1-.2.1-.3.2l-.4-.6c.1-.1.3-.2.4-.3.2-.1.3-.2.5-.3.2-.1.4-.1.6-.2.2-.1.5-.1.7-.1.3 0 .7 0 1 .1.3.1.6.2.8.4s.4.4.5.7c.1.3.2.6.2.9 0 .5-.1.9-.4 1.2-.2.3-.6.6-1 .7.3 0 .5.1.7.3.2.1.4.3.5.4l.3.6V7z"/></g><g><path d="M169.3 318.9l3.2-3.1c.4-.4.7-.7.9-1 .2-.3.4-.6.5-.8.1-.3.2-.5.2-.7 0-.2.1-.4.1-.6 0-.2 0-.4-.1-.6-.1-.2-.2-.4-.3-.5-.1-.1-.3-.3-.5-.3-.2-.1-.5-.1-.8-.1-.2 0-.4 0-.6.1-.2.1-.4.1-.6.2-.2.1-.4.2-.5.3-.2.1-.3.2-.4.3l-.8-1.1c.1-.1.3-.3.5-.4.2-.2.4-.3.7-.4.3-.1.6-.3.9-.3.3-.1.7-.1 1.2-.1s.9.1 1.3.2.8.3 1.1.5c.3.2.5.5.7.9.2.4.3.8.3 1.3 0 .6-.1 1.1-.4 1.7-.3.5-.7 1.1-1.1 1.6-.5.5-1 1.1-1.6 1.6-.6.5-1.2 1.1-1.9 1.6.1 0 .2-.1.3-.2.1-.1.3-.1.5-.2s.4-.1.6-.2c.2 0 .4-.1.6-.1.3 0 .6 0 .8.1.2.1.4.1.7.1h.3c.1 0 .2-.1.3-.1.1-.1.1-.2.2-.3.1-.1.1-.3.1-.5l1.3.2c0 .5-.1.8-.3 1.1-.1.3-.3.5-.5.7-.2.2-.5.3-.8.4-.3.1-.6.1-.9.1-.2 0-.3 0-.5-.1-.2 0-.4-.1-.6-.1-.2 0-.4-.1-.7-.1-.2 0-.5-.1-.7-.1h-1.1c-.2 0-.4 0-.6.1-.2 0-.5.1-.8.1v-1.2zM181.8 320.4c-.8 0-1.5-.2-2-.5-.5-.4-.9-.8-1.2-1.3-.3-.5-.5-1.1-.6-1.8-.1-.6-.1-1.2-.1-1.8 0-.5 0-1.1.1-1.8.1-.6.3-1.2.6-1.8.3-.5.7-1 1.2-1.3.5-.4 1.2-.5 2-.5s1.5.2 2 .5c.5.4.9.8 1.2 1.3.3.5.5 1.1.6 1.8.1.6.1 1.2.1 1.8 0 .5 0 1.1-.1 1.8-.1.6-.3 1.2-.6 1.8-.3.5-.7 1-1.2 1.3-.5.3-1.2.5-2 .5zm0-1.5c.3 0 .5-.1.7-.2.2-.1.4-.3.5-.5.1-.2.2-.5.3-.8.1-.3.1-.6.2-.9 0-.3.1-.6.1-.8v-.7-.7c0-.3 0-.6-.1-.8s-.1-.6-.2-.9c-.1-.3-.2-.5-.3-.8-.1-.2-.3-.4-.5-.5-.2-.1-.4-.2-.7-.2-.4 0-.8.1-1 .4-.2.3-.4.6-.5 1-.1.4-.2.8-.2 1.3v2.4c0 .4.1.9.2 1.3s.3.8.5 1c.2.3.5.4 1 .4zM190.2 320.4c-.8 0-1.5-.2-2-.5-.5-.4-.9-.8-1.2-1.3-.3-.5-.5-1.1-.6-1.8-.1-.6-.1-1.2-.1-1.8 0-.5 0-1.1.1-1.8.1-.6.3-1.2.6-1.8.3-.5.7-1 1.2-1.3.5-.4 1.2-.5 2-.5s1.5.2 2 .5c.5.4.9.8 1.2 1.3.3.5.5 1.1.6 1.8.1.6.1 1.2.1 1.8 0 .5 0 1.1-.1 1.8-.1.6-.3 1.2-.6 1.8-.3.5-.7 1-1.2 1.3-.5.3-1.2.5-2 .5zm0-1.5c.3 0 .5-.1.7-.2.2-.1.4-.3.5-.5.1-.2.2-.5.3-.8.1-.3.1-.6.2-.9 0-.3.1-.6.1-.8v-.7-.7c0-.3 0-.6-.1-.8 0-.3-.1-.6-.2-.9-.1-.3-.2-.5-.3-.8-.1-.2-.3-.4-.5-.5-.2-.1-.4-.2-.7-.2-.4 0-.8.1-1 .4-.2.3-.4.6-.5 1-.1.4-.2.8-.2 1.3v2.4c0 .4.1.9.2 1.3s.3.8.5 1c.2.3.5.4 1 .4zM195 318.1c.3.1.5.2.7.3.2.1.4.2.7.2.2.1.4.1.7.1h.8c.6 0 1.1-.2 1.5-.5.4-.4.5-.8.5-1.4 0-.6-.2-1.1-.5-1.4s-.8-.5-1.5-.5h-.5c-.2 0-.4 0-.6.1-.2 0-.4.1-.7.2-.2.1-.5.2-.8.3l.3-5.7h5.8v1.6h-4.2l-.1 2.2c.2 0 .4-.1.6-.1h.8c.5 0 .9.1 1.4.2.4.1.8.3 1.1.6.3.3.5.6.7 1 .2.4.3.9.3 1.5s-.1 1.1-.3 1.6-.5.8-.8 1.2c-.3.3-.7.6-1.2.7-.5.2-1 .2-1.5.2-.8 0-1.4-.1-1.9-.2s-.9-.3-1.2-.4v-1.8z"/></g><g><path d="M249.4 318.9l3.2-3.1c.4-.4.7-.7.9-1 .2-.3.4-.6.5-.8.1-.3.2-.5.2-.7 0-.2.1-.4.1-.6 0-.2 0-.4-.1-.6-.1-.2-.2-.4-.3-.5-.1-.1-.3-.3-.5-.3-.2-.1-.5-.1-.8-.1-.2 0-.4 0-.6.1-.2.1-.4.1-.6.2s-.4.2-.5.3c-.2.1-.3.2-.4.3l-.8-1.1c.1-.1.3-.3.5-.4.2-.2.4-.3.7-.4s.6-.3.9-.3c.3-.1.7-.1 1.2-.1s.9.1 1.3.2.8.3 1.1.5c.3.2.5.5.7.9.2.4.3.8.3 1.3 0 .6-.1 1.1-.4 1.7-.3.5-.7 1.1-1.1 1.6-.5.5-1 1.1-1.6 1.6-.6.5-1.2 1.1-1.9 1.6.1 0 .2-.1.3-.2.1-.1.3-.1.5-.2s.4-.1.6-.2c.2 0 .4-.1.6-.1.3 0 .6 0 .8.1.2.1.4.1.7.1h.3c.1 0 .2-.1.3-.1.1-.1.1-.2.2-.3.1-.1.1-.3.1-.5l1.3.2c0 .5-.1.8-.3 1.1-.1.3-.3.5-.5.7-.2.2-.5.3-.8.4-.3.1-.6.1-.9.1-.2 0-.3 0-.5-.1-.2 0-.4-.1-.6-.1-.2 0-.4-.1-.7-.1-.2 0-.5-.1-.7-.1H251c-.2 0-.4 0-.6.1-.2 0-.5.1-.8.1v-1.2zM261.8 320.4c-.8 0-1.5-.2-2-.5-.5-.4-.9-.8-1.2-1.3-.3-.5-.5-1.1-.6-1.8-.1-.6-.1-1.2-.1-1.8 0-.5 0-1.1.1-1.8.1-.6.3-1.2.6-1.8.3-.5.7-1 1.2-1.3.5-.4 1.2-.5 2-.5s1.5.2 2 .5c.5.4.9.8 1.2 1.3.3.5.5 1.1.6 1.8.1.6.1 1.2.1 1.8 0 .5 0 1.1-.1 1.8-.1.6-.3 1.2-.6 1.8-.3.5-.7 1-1.2 1.3-.5.3-1.2.5-2 .5zm0-1.5c.3 0 .5-.1.7-.2.2-.1.4-.3.5-.5.1-.2.2-.5.3-.8.1-.3.1-.6.2-.9 0-.3.1-.6.1-.8v-.7-.7c0-.3 0-.6-.1-.8s-.1-.6-.2-.9c-.1-.3-.2-.5-.3-.8-.1-.2-.3-.4-.5-.5-.2-.1-.4-.2-.7-.2-.4 0-.8.1-1 .4-.2.3-.4.6-.5 1-.1.4-.2.8-.2 1.3v2.4c0 .4.1.9.2 1.3s.3.8.5 1c.2.3.6.4 1 .4zM268 318.8h1.3v-7.1l-1.5.4v-1.5l3.4-.9v9.1h1.3v1.4H268v-1.4zM274.8 318c.3.2.6.3.9.4.3.1.5.2.8.3.2.1.5.1.7.2h.8c.6 0 1.1-.1 1.4-.4.3-.3.5-.7.5-1.2 0-.6-.2-1-.6-1.3-.4-.3-1-.4-1.7-.4h-.5V314h.6c.2 0 .5 0 .7-.1l.6-.3c.2-.1.3-.3.4-.5.1-.2.2-.4.2-.6 0-.2 0-.4-.1-.5-.1-.2-.2-.3-.3-.4-.1-.1-.3-.2-.5-.3-.2-.1-.5-.1-.8-.1-.5 0-1 .1-1.4.3-.4.2-.7.3-1 .5l-.7-1.1c.2-.1.4-.3.7-.4.2-.1.5-.3.8-.4l.9-.3c.3-.1.7-.1 1-.1.4 0 .9.1 1.3.2s.8.3 1.1.5c.3.2.5.5.7.8.2.3.3.7.3 1.2 0 .3 0 .6-.1.9-.1.3-.2.5-.3.7-.1.2-.3.4-.5.5-.2.1-.4.3-.7.4.3.1.5.2.8.3.2.1.4.3.6.5.2.2.3.5.4.7.1.3.2.6.2.9 0 .6-.1 1-.3 1.4-.2.4-.5.7-.8 1-.3.3-.7.5-1.2.6-.5.1-1 .2-1.5.2-.6 0-1.2-.1-1.7-.2s-1-.3-1.6-.5V318z"/></g><g><path d="M329.8 318.9l3.2-3.1c.4-.4.7-.7.9-1 .2-.3.4-.6.5-.8.1-.3.2-.5.2-.7 0-.2.1-.4.1-.6 0-.2 0-.4-.1-.6-.1-.2-.2-.4-.3-.5-.1-.1-.3-.3-.5-.3-.2-.1-.5-.1-.8-.1-.2 0-.4 0-.6.1-.2.1-.4.1-.6.2s-.4.2-.5.3c-.2.1-.3.2-.4.3l-.8-1.1c.1-.1.3-.3.5-.4.2-.2.4-.3.7-.4.3-.1.6-.3.9-.3.3-.1.7-.1 1.2-.1s.9.1 1.3.2.8.3 1.1.5c.3.2.5.5.7.9.2.4.3.8.3 1.3 0 .6-.1 1.1-.4 1.7-.3.5-.7 1.1-1.1 1.6-.5.5-1 1.1-1.6 1.6-.6.5-1.2 1.1-1.9 1.6.1 0 .2-.1.3-.2.1-.1.3-.1.5-.2s.4-.1.6-.2c.2 0 .4-.1.6-.1.3 0 .6 0 .8.1.2.1.4.1.7.1h.3c.1 0 .2-.1.3-.1s.1-.2.2-.3.1-.3.1-.5l1.3.2c0 .5-.1.8-.3 1.1-.1.3-.3.5-.5.7-.2.2-.5.3-.8.4-.3.1-.6.1-.9.1-.2 0-.3 0-.5-.1-.2 0-.4-.1-.6-.1-.2 0-.4-.1-.7-.1-.2 0-.5-.1-.7-.1h-1.1c-.2 0-.4 0-.6.1-.2 0-.5.1-.8.1v-1.2zM342.3 320.4c-.8 0-1.5-.2-2-.5-.5-.4-.9-.8-1.2-1.3-.3-.5-.5-1.1-.6-1.8-.1-.6-.1-1.2-.1-1.8 0-.5 0-1.1.1-1.8.1-.6.3-1.2.6-1.8.3-.5.7-1 1.2-1.3.5-.4 1.2-.5 2-.5s1.5.2 2 .5c.5.4.9.8 1.2 1.3.3.5.5 1.1.6 1.8.1.6.1 1.2.1 1.8 0 .5 0 1.1-.1 1.8-.1.6-.3 1.2-.6 1.8-.3.5-.7 1-1.2 1.3-.5.3-1.2.5-2 .5zm0-1.5c.3 0 .5-.1.7-.2.2-.1.4-.3.5-.5.1-.2.2-.5.3-.8.1-.3.1-.6.2-.9 0-.3.1-.6.1-.8v-.7-.7c0-.3 0-.6-.1-.8 0-.3-.1-.6-.2-.9-.1-.3-.2-.5-.3-.8-.1-.2-.3-.4-.5-.5-.2-.1-.4-.2-.7-.2-.4 0-.8.1-1 .4-.2.3-.4.6-.5 1-.1.4-.2.8-.2 1.3v2.4c0 .4.1.9.2 1.3s.3.8.5 1c.2.3.6.4 1 .4zM346.6 318.9l3.2-3.1c.4-.4.7-.7.9-1 .2-.3.4-.6.5-.8.1-.3.2-.5.2-.7 0-.2.1-.4.1-.6 0-.2 0-.4-.1-.6-.1-.2-.2-.4-.3-.5-.1-.1-.3-.3-.5-.3-.2-.1-.5-.1-.8-.1-.2 0-.4 0-.6.1-.2.1-.4.1-.6.2s-.4.2-.5.3c-.2.1-.3.2-.4.3l-.7-1.1c.1-.1.3-.3.5-.4.2-.2.4-.3.7-.4.3-.1.6-.3.9-.3.3-.1.7-.1 1.2-.1s.9.1 1.3.2.8.3 1.1.5c.3.2.5.5.7.9.2.4.3.8.3 1.3 0 .6-.1 1.1-.4 1.7-.3.5-.7 1.1-1.1 1.6-.5.5-1 1.1-1.6 1.6-.6.5-1.2 1.1-1.9 1.6.1 0 .2-.1.3-.2.1-.1.3-.1.5-.2s.4-.1.6-.2c.2 0 .4-.1.6-.1.3 0 .6 0 .8.1.2.1.4.1.7.1h.3c.1 0 .2-.1.3-.1s.1-.2.2-.3c.1-.1.1-.3.1-.5l1.3.2c0 .5-.1.8-.3 1.1-.1.3-.3.5-.5.7-.2.2-.5.3-.8.4-.3.1-.6.1-.9.1-.2 0-.3 0-.5-.1-.2 0-.4-.1-.6-.1-.2 0-.4-.1-.7-.1-.2 0-.5-.1-.7-.1h-1.1c-.2 0-.4 0-.6.1-.2 0-.5.1-.8.1v-1.2zM356.8 318.8h1.3v-7.1l-1.5.4v-1.5l3.4-.9v9.1h1.3v1.4h-4.6v-1.4z"/></g><g><path d="M410.3 318.9l3.2-3.1c.4-.4.7-.7.9-1 .2-.3.4-.6.5-.8.1-.3.2-.5.2-.7s.1-.4.1-.6c0-.2 0-.4-.1-.6-.1-.2-.2-.4-.3-.5-.1-.1-.3-.3-.5-.3-.2-.1-.5-.1-.8-.1-.2 0-.4 0-.6.1-.2.1-.4.1-.6.2-.2.1-.4.2-.5.3-.2.1-.3.2-.4.3l-.8-1.1c.1-.1.3-.3.5-.4.2-.2.4-.3.7-.4.3-.1.6-.3.9-.3.3-.1.7-.1 1.2-.1s.9.1 1.3.2.8.3 1.1.5c.3.2.5.5.7.9.2.4.3.8.3 1.3 0 .6-.1 1.1-.4 1.7-.3.5-.7 1.1-1.1 1.6-.5.5-1 1.1-1.6 1.6-.6.5-1.2 1.1-1.9 1.6.1 0 .2-.1.3-.2.1-.1.3-.1.5-.2s.4-.1.6-.2c.2 0 .4-.1.6-.1.3 0 .6 0 .8.1s.4.1.7.1h.3c.1 0 .2-.1.3-.1.1-.1.1-.2.2-.3.1-.1.1-.3.1-.5l1.3.2c0 .5-.1.8-.3 1.1-.1.3-.3.5-.5.7-.2.2-.5.3-.8.4-.3.1-.6.1-.9.1-.2 0-.3 0-.5-.1s-.4-.1-.6-.1c-.2 0-.4-.1-.7-.1s-.5-.1-.7-.1h-1.1c-.2 0-.4 0-.6.1-.2 0-.5.1-.8.1v-1.2zM422.8 320.4c-.8 0-1.5-.2-2-.5-.5-.4-.9-.8-1.2-1.3-.3-.5-.5-1.1-.6-1.8-.1-.6-.1-1.2-.1-1.8 0-.5 0-1.1.1-1.8.1-.6.3-1.2.6-1.8.3-.5.7-1 1.2-1.3.5-.4 1.2-.5 2-.5s1.5.2 2 .5c.5.4.9.8 1.2 1.3.3.5.5 1.1.6 1.8.1.6.1 1.2.1 1.8 0 .5 0 1.1-.1 1.8-.1.6-.3 1.2-.6 1.8-.3.5-.7 1-1.2 1.3-.6.3-1.2.5-2 .5zm0-1.5c.3 0 .5-.1.7-.2.2-.1.4-.3.5-.5.1-.2.2-.5.3-.8.1-.3.1-.6.2-.9 0-.3.1-.6.1-.8v-.7-.7c0-.3 0-.6-.1-.8 0-.3-.1-.6-.2-.9-.1-.3-.2-.5-.3-.8-.1-.2-.3-.4-.5-.5-.2-.1-.4-.2-.7-.2-.4 0-.8.1-1 .4s-.4.6-.5 1c-.1.4-.2.8-.2 1.3v2.4c0 .4.1.9.2 1.3s.3.8.5 1 .5.4 1 .4zM427.1 318.9l3.2-3.1c.4-.4.7-.7.9-1 .2-.3.4-.6.5-.8.1-.3.2-.5.2-.7s.1-.4.1-.6c0-.2 0-.4-.1-.6-.1-.2-.2-.4-.3-.5-.1-.1-.3-.3-.5-.3-.2-.1-.5-.1-.8-.1-.2 0-.4 0-.6.1-.2.1-.4.1-.6.2-.2.1-.4.2-.5.3-.2.1-.3.2-.4.3l-.8-1.1c.1-.1.3-.3.5-.4.2-.2.4-.3.7-.4.3-.1.6-.3.9-.3.3-.1.7-.1 1.2-.1s.9.1 1.3.2.8.3 1.1.5c.3.2.5.5.7.9.2.4.3.8.3 1.3 0 .6-.1 1.1-.4 1.7-.3.5-.7 1.1-1.1 1.6-.5.5-1 1.1-1.6 1.6-.6.5-1.2 1.1-1.9 1.6.1 0 .2-.1.3-.2.1-.1.3-.1.5-.2s.4-.1.6-.2c.2 0 .4-.1.6-.1.3 0 .6 0 .8.1.2.1.4.1.7.1h.3c.1 0 .2-.1.3-.1.1-.1.1-.2.2-.3.1-.1.1-.3.1-.5l1.3.2c0 .5-.1.8-.3 1.1-.1.3-.3.5-.5.7-.2.2-.5.3-.8.4-.3.1-.6.1-.9.1-.2 0-.3 0-.5-.1s-.4-.1-.6-.1c-.2 0-.4-.1-.7-.1s-.5-.1-.7-.1h-1.1c-.2 0-.4 0-.6.1-.2 0-.5.1-.8.1v-1.2zM436.3 318.4c.4.2.8.3 1.2.4.4.1.8.1 1.2.1.3 0 .6 0 .9-.1s.6-.3.8-.5c.3-.2.5-.6.6-1 .2-.4.3-1 .3-1.7-.1.2-.3.3-.5.4l-.6.3c-.2.1-.4.1-.6.2s-.4.1-.5.1c-.5 0-1-.1-1.4-.2-.4-.2-.8-.4-1.1-.7-.3-.3-.5-.7-.7-1.1-.2-.4-.3-.9-.3-1.4 0-.5.1-1 .3-1.4.2-.4.4-.8.8-1.1s.7-.5 1.1-.7c.4-.2.9-.3 1.4-.3.8 0 1.5.2 2 .5s.9.7 1.2 1.2c.3.5.5 1.1.6 1.7.1.6.2 1.3.2 1.9 0 .9-.1 1.7-.3 2.3-.2.7-.4 1.2-.8 1.7-.3.4-.8.8-1.3 1.1-.6.3-1.2.4-1.9.4h-.8c-.2 0-.4 0-.6-.1-.2 0-.4-.1-.6-.1s-.4-.1-.6-.2v-1.7zm3-3.4c.5 0 1-.2 1.3-.5.3-.3.5-.8.5-1.5 0-.3 0-.5-.1-.7-.1-.2-.2-.5-.3-.6-.1-.2-.3-.3-.6-.5-.2-.1-.5-.2-.8-.2-.3 0-.5.1-.8.2-.2.1-.4.3-.6.4-.2.2-.3.4-.4.6-.1.2-.1.5-.1.8 0 .6.2 1.1.5 1.4.5.5.9.6 1.4.6z"/></g></svg>