<svg id="Layer_1" xmlns="http://www.w3.org/2000/svg" viewBox="0 0 65 65"><style>.st0{fill:#f5bd48}.st1{fill:#fff}</style><circle class="st0" cx="32.5" cy="32.5" r="32"/><path class="st1" d="M22.2 20.3c2.1-.9 4.3-1.3 6.7-1.3s4.7.4 6.7 1.3c2.1.9 3.7 2.1 4.9 3.6 1.2 1.5 1.8 3.2 1.8 4.9 0 1.8-.6 3.4-1.8 4.9-1.2 1.5-2.8 2.7-4.9 3.6-2.1.9-4.3 1.3-6.7 1.3-1.1 0-2.2-.1-3.3-.3-1.6 1.1-3.3 1.9-5.3 2.5-.5.1-1 .2-1.6.3h-.1c-.1 0-.3-.1-.4-.2-.1-.1-.2-.2-.2-.4v-.1-.1-.1-.1s0-.1.1-.1l.1-.1s0-.1.1-.1l.1-.1c.1-.1.2-.2.4-.5.2-.2.4-.4.5-.6.1-.1.2-.3.4-.6.2-.2.3-.5.5-.7.1-.3.3-.5.4-.8-1.6-.9-2.8-2.1-3.7-3.4-.9-1.3-1.3-2.8-1.3-4.3 0-1.8.6-3.4 1.8-4.9 1.1-1.5 2.7-2.7 4.8-3.6zm12.1 2.2c-1.7-.7-3.5-1-5.4-1-1.9 0-3.7.3-5.4 1-1.7.7-3 1.6-4 2.7S18 27.6 18 28.9c0 1 .3 2.1 1 3 .7 1 1.6 1.8 2.8 2.5l1.8 1.1-.7 1.6c.4-.3.8-.5 1.2-.7l.8-.6 1 .2c1 .2 2 .3 2.9.3 1.9 0 3.7-.3 5.4-1 1.7-.7 3-1.6 4-2.7s1.5-2.4 1.5-3.7c0-1.3-.5-2.5-1.5-3.7-.9-1.2-2.2-2.1-3.9-2.7zm10.2 18.9c.1.3.3.6.4.8.1.3.3.5.5.7.2.2.3.4.4.6.1.1.3.3.5.6.2.2.4.4.4.5l.1.1.1.1s0 .1.1.1l.1.1v.4c0 .2-.1.3-.2.4-.2.2-.4.2-.5.2-.6-.1-1.2-.2-1.6-.3-1.9-.5-3.7-1.3-5.3-2.5-1.1.2-2.3.3-3.3.3-3.4 0-6.4-.8-9-2.5.7.1 1.3.1 1.7.1 2 0 4-.3 5.9-.9s3.5-1.4 5-2.5c1.6-1.2 2.8-2.5 3.6-4.1.8-1.5 1.3-3.2 1.3-4.9 0-1-.1-2-.4-2.9 1.6.9 2.9 2 3.9 3.4.9 1.4 1.4 2.8 1.4 4.4 0 1.5-.4 3-1.3 4.3-1 1.5-2.3 2.6-3.8 3.5z"/></svg>