<svg id="Layer_1" xmlns="http://www.w3.org/2000/svg" viewBox="0 0 27 27"><style>.st0{fill:#485da7}</style><path class="st0" d="M26.5 21c0 .3-.1.8-.2 1.3s-.3 1-.4 1.3c-.3.6-1 1.3-2.3 2-1.2.6-2.3.9-3.4.9-.3 0-.7 0-1-.1-.3 0-.7-.1-1.1-.2-.4-.1-.7-.2-.9-.3s-.5-.2-1-.4-.8-.3-.9-.3c-1.2-.4-2.3-.9-3.2-1.5-1.6-1-3.2-2.3-4.9-4s-3-3.3-4-4.9c-.6-.9-1.1-2-1.5-3.2 0-.1-.1-.4-.3-.9s-.3-.8-.4-1c0-.2-.1-.5-.2-.9S.6 8 .6 7.7c0-.3-.1-.6-.1-1 0-1.1.3-2.3.9-3.4.7-1.2 1.3-2 2-2.3.3-.1.7-.3 1.3-.4.5-.1 1-.2 1.3-.2.2 0 .3 0 .4.1.2.1.5.5 1 1.4.1.2.3.6.6 1l.6 1.2c.2.4.4.7.6 1 0 0 .1.2.3.5.2.3.3.5.4.7 0 .1.1.3.1.5s-.2.5-.6.9c-.4.4-.7.7-1.1 1-.4.3-.8.6-1.2 1-.4.3-.5.6-.5.8 0 .1 0 .2.1.4s.1.3.2.4c0 .1.1.2.3.4.1.2.2.3.2.4.9 1.7 2 3.1 3.2 4.3 1.2 1.2 2.7 2.3 4.3 3.2 0 0 .1.1.4.2.2.1.4.2.4.3.1 0 .2.1.4.2s.3.1.4.1c.2 0 .5-.2.8-.5.3-.4.7-.7 1-1.1.3-.4.6-.8 1-1.1.4-.4.7-.5.9-.5.2 0 .3 0 .5.1s.4.2.7.4c.3.2.4.3.5.3.3.2.6.4 1 .6.4.2.7.4 1.2.6.4.2.8.4 1 .6.9.4 1.3.8 1.4 1v.2z"/></svg>