<svg id="Layer_1" xmlns="http://www.w3.org/2000/svg" viewBox="0 0 53 53"><style>.st0{fill:#fff}.st1{fill:#465ba6}.st2{fill:#485da7}</style><path class="st0" d="M26.5 51.5c-13.8 0-25-11.2-25-25s11.2-25 25-25 25 11.2 25 25-11.2 25-25 25z"/><path class="st1" d="M26.5 2.5c13.2 0 24 10.8 24 24s-10.8 24-24 24-24-10.8-24-24 10.8-24 24-24m0-2C12.1.5.5 12.1.5 26.5s11.6 26 26 26 26-11.6 26-26-11.6-26-26-26z"/><g><path class="st2" d="M26.5 38c-.3 0-.5-.1-.7-.3l-9.4-9-.4-.4c-.2-.2-.5-.5-.8-1-.4-.5-.7-1-1-1.5-.3-.5-.6-1.1-.8-1.8-.3-.6-.4-1.3-.4-2 0-2.2.6-3.9 1.9-5.2 1.3-1.2 3-1.9 5.3-1.9.6 0 1.3.1 1.9.3.6.2 1.3.5 1.8.9.6.4 1 .7 1.4 1 .4.3.8.7 1.1 1 .4-.4.7-.7 1.1-1 .4-.3.9-.7 1.4-1 .6-.4 1.2-.7 1.8-.9.6-.2 1.3-.3 1.9-.3 2.2 0 4 .6 5.3 1.9 1.3 1.2 1.9 3 1.9 5.2s-1.2 4.5-3.5 6.7l-9.4 9c.1.2-.1.3-.4.3z"/></g></svg>