<svg id="Layer_1" xmlns="http://www.w3.org/2000/svg" viewBox="0 0 65 65"><style>.st0{fill:#f5bd48}.st1{fill:#fff}</style><circle class="st0" cx="32.5" cy="32.5" r="32"/><path class="st1" d="M45.3 23c.3.3.6.8.9 1.4.2.6.4 1.1.4 1.6v21.2c0 .5-.2.9-.5 1.3-.3.3-.8.5-1.2.5H20.2c-.5 0-.9-.2-1.2-.5-.3-.3-.5-.8-.5-1.3V17.8c0-.5.2-.9.5-1.3.3-.3.8-.5 1.2-.5h16.3c.5 0 1 .1 1.6.4.6.2 1 .5 1.4.9l5.8 5.7zm-1.1 23.6V27.8h-7.6c-.5 0-.9-.2-1.2-.5-.3-.3-.5-.8-.5-1.3v-7.7h-14v28.3h23.3zM25.5 30.7c0-.2.1-.3.2-.4.1-.1.2-.2.4-.2h12.8c.2 0 .3.1.4.2.1.1.2.3.2.4v1.2c0 .2-.1.3-.2.4-.1.1-.2.2-.4.2H26.1c-.2 0-.3-.1-.4-.2-.1-.1-.2-.3-.2-.4v-1.2zm13.4 4.2c.2 0 .3.1.4.2.1.1.2.3.2.4v1.2c0 .2-.1.3-.2.4-.1.1-.2.2-.4.2H26.1c-.2 0-.3-.1-.4-.2-.1-.1-.2-.3-.2-.4v-1.2c0-.2.1-.3.2-.4.1-.1.2-.2.4-.2h12.8zm0 4.7c.2 0 .3.1.4.2.1.1.2.3.2.4v1.2c0 .2-.1.3-.2.4-.1.1-.2.2-.4.2H26.1c-.2 0-.3-.1-.4-.2-.1-.1-.2-.3-.2-.4v-1.2c0-.2.1-.3.2-.4.1-.1.2-.2.4-.2h12.8zm-1.7-21.1v6.9H44c-.1-.4-.3-.6-.4-.8l-5.7-5.8c-.1 0-.4-.2-.7-.3z"/></svg>