<svg id="Layer_1" xmlns="http://www.w3.org/2000/svg" viewBox="0 0 53 53"><style>.st0{fill:#fff}.st1{fill:#465ba6}.st2{fill:#485da7}</style><path class="st0" d="M26.5 51.5c-13.8 0-25-11.2-25-25s11.2-25 25-25 25 11.2 25 25-11.2 25-25 25z"/><path class="st1" d="M26.5 2.5c13.2 0 24 10.8 24 24s-10.8 24-24 24-24-10.8-24-24 10.8-24 24-24m0-2C12.1.5.5 12.1.5 26.5s11.6 26 26 26 26-11.6 26-26-11.6-26-26-26z"/><g><path class="st2" d="M37.5 25.6c0 .9-.2 1.6-.7 2.4.1.3.1.6.1 1 0 .7-.2 1.4-.5 2.1v.6c0 1-.3 1.8-.9 2.6 0 1.3-.4 2.4-1.2 3.2s-1.9 1.2-3.3 1.2h-1.8c-.9 0-1.8-.1-2.7-.3-.9-.2-1.9-.5-3.1-.9-1.1-.4-1.8-.6-2-.6h-4.1c-.5 0-.9-.2-1.3-.5-.4-.4-.5-.8-.5-1.3v-9.2c0-.5.2-.9.5-1.3.4-.4.8-.5 1.3-.5h3.9c.3-.2 1-1 2-2.2.6-.7 1.1-1.3 1.5-1.8.2-.2.4-.7.5-1.2.1-.6.3-1.2.4-1.8.2-.6.5-1.2.9-1.6.4-.4.8-.5 1.3-.5.8 0 1.5.2 2.2.5.6.3 1.1.8 1.5 1.5.3.7.5 1.6.5 2.7 0 .9-.2 1.8-.7 2.8h2.5c1 0 1.9.4 2.6 1.1.7.1 1.1 1 1.1 2zm-18.6 8.9c.2-.2.3-.4.3-.6 0-.2-.1-.5-.3-.6-.2-.2-.4-.3-.6-.3s-.5.1-.6.3c-.2.2-.3.4-.3.6 0 .3.1.5.3.6.2.2.4.3.6.3s.4-.1.6-.3zm16.8-8.9c0-.5-.2-.9-.6-1.3-.4-.4-.8-.6-1.3-.6h-5c0-.6.2-1.3.7-2.3.5-1 .7-1.7.7-2.3 0-.9-.2-1.6-.5-2.1s-.9-.7-1.8-.7c-.2.3-.4.7-.5 1.2-.1.6-.3 1.2-.4 1.8-.3.7-.6 1.2-1 1.7-.2.2-.6.7-1.1 1.3 0 0-.1.2-.3.4-.2.2-.3.4-.5.6-.1.2-.3.4-.5.6-.2.3-.4.5-.6.6-.2.2-.4.3-.6.5-.2.2-.4.3-.6.4-.2.1-.4.1-.5.1H21v9.2h1c.2 0 .3.1.5.1.1 0 .3.1.5.2s.4.1.5.2c.1 0 .3.1.5.2s.4.1.4.2c2 .7 3.6 1.1 4.9 1.1H31c1.8 0 2.8-.8 2.8-2.4 0-.2 0-.5-.1-.8.3-.2.5-.4.7-.8.2-.4.3-.7.3-1.1 0-.4-.1-.7-.3-1 .5-.5.8-1.1.8-1.7 0-.2 0-.5-.1-.8-.1-.3-.2-.5-.4-.7.3 0 .6-.2.8-.7.1-.4.2-.8.2-1.1z"/></g></svg>