<svg id="Layer_1" xmlns="http://www.w3.org/2000/svg" viewBox="0 0 53 53"><style>.st0{fill:#fff}.st1{fill:#485da7}</style><path class="st0" d="M26.5 51.5c-13.8 0-25-11.2-25-25s11.2-25 25-25 25 11.2 25 25-11.2 25-25 25z"/><path class="st1" d="M26.5 2.5c13.2 0 24 10.8 24 24s-10.8 24-24 24-24-10.8-24-24 10.8-24 24-24m0-2C12.1.5.5 12.1.5 26.5s11.6 26 26 26 26-11.6 26-26-11.6-26-26-26z"/><g><path class="st1" d="M34.5 27v8.2c0 .4-.1.7-.4 1-.3.3-.6.4-.9.4H19.8c-.4 0-.7-.1-.9-.4-.3-.3-.4-.6-.4-1V27c0-.4.1-.7.4-1 .3-.3.6-.4.9-.4h.4v-2.7c0-1.7.6-3.2 1.8-4.5 1.2-1.2 2.7-1.9 4.4-1.9s3.2.6 4.4 1.9c1.2 1.3 1.8 2.7 1.8 4.5v2.7h.4c.4 0 .7.1.9.4.5.3.6.6.6 1zm-11.6-1.4H30v-2.7c0-1-.3-1.9-1-2.6-.7-.7-1.5-1.1-2.5-1.1s-1.8.4-2.5 1.1c-.7.7-1 1.6-1 2.6v2.7z"/></g></svg>