<svg id="Layer_1" xmlns="http://www.w3.org/2000/svg" viewBox="0 0 65 65"><style>.st0{fill:#f5bd48}.st1{fill:#fff}</style><circle class="st0" cx="32.5" cy="32.5" r="32"/><path class="st1" d="M42 38.3v7c0 .2-.1.3-.2.4-.1.1-.3.2-.4.2H23.6c-.2 0-.3-.1-.4-.2-.1-.1-.2-.3-.2-.4v-2.9c0-.2.1-.3.2-.4.1-.1.3-.2.4-.2h1.8v-7.3h-1.8c-.2 0-.3-.1-.4-.2-.1-.1-.2-.3-.2-.4v-2.5c0-.2.1-.3.2-.4.1-.1.3-.2.4-.2h1.8v-4.3c0-2.2.8-4 2.3-5.4 1.5-1.4 3.5-2.1 5.9-2.1 2.3 0 4.4.8 6.2 2.4.1.1.2.2.2.4s0 .3-.1.4L38 24.6c-.1.1-.2.2-.4.2s-.3 0-.4-.1c-.1-.1-.2-.2-.5-.4s-.7-.4-1.3-.6c-.6-.2-1.2-.3-1.7-.3-1.1 0-1.9.3-2.6.9-.6.6-1 1.4-1 2.4v4.1h5.7c.2 0 .3.1.4.2.1.1.2.3.2.4v2.5c0 .2-.1.3-.2.4-.1.1-.3.2-.4.2h-5.7v7.3h7.7v-3.5c0-.2.1-.3.2-.4.1-.1.3-.2.4-.2h3c.2 0 .3.1.4.2.1.1.2.3.2.4z"/></svg>