<?xml version="1.0" encoding="utf-8"?>
<!-- Generator: Adobe Illustrator 21.0.2, SVG Export Plug-In . SVG Version: 6.00 Build 0)  -->
<svg version="1.1" id="Layer_1" xmlns="http://www.w3.org/2000/svg" xmlns:xlink="http://www.w3.org/1999/xlink" x="0px" y="0px"
	 viewBox="0 0 76 76" style="enable-background:new 0 0 76 76;" xml:space="preserve">
<style type="text/css">
	.st0{fill:#F5BD48;}
</style>
<path class="st0" d="M1.3,6.7c5.4-2.2,10.7-3.2,16-4.3c5.2-0.8,10.5-1.6,15.6-1.8c5.2-0.3,10.3-0.3,15.4-0.1
	c5.1,0.2,10.2,0.7,15.2,1.4l0.1,0c7.5,1,12.7,7.8,11.8,15.2c0,0.2-0.1,0.5-0.1,0.7c-0.9,4.9-1.9,9.9-3.2,14.7
	c-1.3,4.9-2.8,9.7-4.6,14.5c-1.8,4.8-4,9.5-6.3,14.2c-2.6,4.7-5.1,9.3-8.8,13.8l-0.2,0.3c-0.3,0.3-0.7,0.4-1,0.1
	c-0.2-0.2-0.3-0.4-0.3-0.7c1.4-10,2.9-19.9,4.5-29.8l4.8-29.8l1.3,1.8l-30.2-4.3C21.2,11.4,11.1,9.8,1.1,8.2
	C0.7,8.1,0.4,7.7,0.5,7.4c0-0.3,0.2-0.5,0.4-0.5L1.3,6.7z"/>
</svg>
