<?xml version="1.0" encoding="utf-8"?>
<!-- Generator: Adobe Illustrator 21.0.2, SVG Export Plug-In . SVG Version: 6.00 Build 0)  -->
<svg version="1.1" id="Layer_1" xmlns="http://www.w3.org/2000/svg" xmlns:xlink="http://www.w3.org/1999/xlink" x="0px" y="0px"
	 viewBox="0 0 53 53" style="enable-background:new 0 0 53 53;" xml:space="preserve">
<style type="text/css">
	.st0{fill:#FFFFFF;}
	.st1{fill:#465BA6;}
	.st2{fill:#485DA7;}
</style>
<g>
	<path class="st0" d="M26.5,51.5c-13.8,0-25-11.2-25-25s11.2-25,25-25s25,11.2,25,25S40.3,51.5,26.5,51.5z"/>
	<path class="st1" d="M26.5,2.5c13.2,0,24,10.8,24,24s-10.8,24-24,24s-24-10.8-24-24S13.3,2.5,26.5,2.5 M26.5,0.5
		c-14.4,0-26,11.6-26,26s11.6,26,26,26s26-11.6,26-26S40.9,0.5,26.5,0.5L26.5,0.5z"/>
</g>
<g>
	<path class="st2" d="M26.5,38c-0.3,0-0.5-0.1-0.7-0.3l-9.4-9c-0.1-0.1-0.2-0.2-0.4-0.4c-0.2-0.2-0.5-0.5-0.8-1
		c-0.4-0.5-0.7-1-1-1.5c-0.3-0.5-0.6-1.1-0.8-1.8C13.1,23.4,13,22.7,13,22c0-2.2,0.6-3.9,1.9-5.2c1.3-1.2,3-1.9,5.3-1.9
		c0.6,0,1.3,0.1,1.9,0.3c0.6,0.2,1.3,0.5,1.8,0.9c0.6,0.4,1,0.7,1.4,1c0.4,0.3,0.8,0.7,1.1,1c0.4-0.4,0.7-0.7,1.1-1
		c0.4-0.3,0.9-0.7,1.4-1c0.6-0.4,1.2-0.7,1.8-0.9c0.6-0.2,1.3-0.3,1.9-0.3c2.2,0,4,0.6,5.3,1.9c1.3,1.2,1.9,3,1.9,5.2
		c0,2.2-1.2,4.5-3.5,6.7l-9.4,9C27,37.9,26.8,38,26.5,38z"/>
</g>
</svg>
