<?xml version="1.0" encoding="utf-8"?>
<!-- Generator: Adobe Illustrator 21.0.2, SVG Export Plug-In . SVG Version: 6.00 Build 0)  -->
<svg version="1.1" id="Layer_1" xmlns="http://www.w3.org/2000/svg" xmlns:xlink="http://www.w3.org/1999/xlink" x="0px" y="0px"
	 viewBox="0 0 53 53" style="enable-background:new 0 0 53 53;" xml:space="preserve">
<style type="text/css">
	.st0{fill:#FFFFFF;}
	.st1{fill:#465BA6;}
	.st2{fill:#485DA7;}
</style>
<g>
	<path class="st0" d="M26.5,51.5c-13.8,0-25-11.2-25-25s11.2-25,25-25s25,11.2,25,25S40.3,51.5,26.5,51.5z"/>
	<path class="st1" d="M26.5,2.5c13.2,0,24,10.8,24,24s-10.8,24-24,24s-24-10.8-24-24S13.3,2.5,26.5,2.5 M26.5,0.5
		c-14.4,0-26,11.6-26,26s11.6,26,26,26s26-11.6,26-26S40.9,0.5,26.5,0.5L26.5,0.5z"/>
</g>
<g>
	<path class="st2" d="M37.5,25.6c0,0.9-0.2,1.6-0.7,2.4c0.1,0.3,0.1,0.6,0.1,1c0,0.7-0.2,1.4-0.5,2.1c0,0.2,0,0.4,0,0.6
		c0,1-0.3,1.8-0.9,2.6c0,1.3-0.4,2.4-1.2,3.2s-1.9,1.2-3.3,1.2h-0.5h-1.3c-0.9,0-1.8-0.1-2.7-0.3c-0.9-0.2-1.9-0.5-3.1-0.9
		c-1.1-0.4-1.8-0.6-2-0.6h-4.1c-0.5,0-0.9-0.2-1.3-0.5c-0.4-0.4-0.5-0.8-0.5-1.3v-9.2c0-0.5,0.2-0.9,0.5-1.3
		c0.4-0.4,0.8-0.5,1.3-0.5h3.9c0.3-0.2,1-1,2-2.2c0.6-0.7,1.1-1.3,1.5-1.8c0.2-0.2,0.4-0.7,0.5-1.2c0.1-0.6,0.3-1.2,0.4-1.8
		c0.2-0.6,0.5-1.2,0.9-1.6c0.4-0.4,0.8-0.5,1.3-0.5c0.8,0,1.5,0.2,2.2,0.5c0.6,0.3,1.1,0.8,1.5,1.5c0.3,0.7,0.5,1.6,0.5,2.7
		c0,0.9-0.2,1.8-0.7,2.8h2.5c1,0,1.9,0.4,2.6,1.1C37.1,23.7,37.5,24.6,37.5,25.6z M18.9,34.5c0.2-0.2,0.3-0.4,0.3-0.6
		c0-0.2-0.1-0.5-0.3-0.6c-0.2-0.2-0.4-0.3-0.6-0.3s-0.5,0.1-0.6,0.3c-0.2,0.2-0.3,0.4-0.3,0.6c0,0.3,0.1,0.5,0.3,0.6
		c0.2,0.2,0.4,0.3,0.6,0.3S18.7,34.7,18.9,34.5z M35.7,25.6c0-0.5-0.2-0.9-0.6-1.3c-0.4-0.4-0.8-0.6-1.3-0.6h-5
		c0-0.6,0.2-1.3,0.7-2.3c0.5-1,0.7-1.7,0.7-2.3c0-0.9-0.2-1.6-0.5-2.1c-0.3-0.5-0.9-0.7-1.8-0.7c-0.2,0.3-0.4,0.7-0.5,1.2
		c-0.1,0.6-0.3,1.2-0.4,1.8C26.7,20,26.4,20.5,26,21c-0.2,0.2-0.6,0.7-1.1,1.3c0,0-0.1,0.2-0.3,0.4c-0.2,0.2-0.3,0.4-0.5,0.6
		c-0.1,0.2-0.3,0.4-0.5,0.6c-0.2,0.3-0.4,0.5-0.6,0.6c-0.2,0.2-0.4,0.3-0.6,0.5c-0.2,0.2-0.4,0.3-0.6,0.4c-0.2,0.1-0.4,0.1-0.5,0.1
		H21v9.2h0.5c0.1,0,0.3,0,0.5,0c0.2,0,0.3,0.1,0.5,0.1c0.1,0,0.3,0.1,0.5,0.2c0.2,0.1,0.4,0.1,0.5,0.2c0.1,0,0.3,0.1,0.5,0.2
		c0.2,0.1,0.4,0.1,0.4,0.2c2,0.7,3.6,1.1,4.9,1.1H31c1.8,0,2.8-0.8,2.8-2.4c0-0.2,0-0.5-0.1-0.8c0.3-0.2,0.5-0.4,0.7-0.8
		c0.2-0.4,0.3-0.7,0.3-1.1c0-0.4-0.1-0.7-0.3-1c0.5-0.5,0.8-1.1,0.8-1.7c0-0.2,0-0.5-0.1-0.8c-0.1-0.3-0.2-0.5-0.4-0.7
		c0.3,0,0.6-0.2,0.8-0.7C35.6,26.3,35.7,25.9,35.7,25.6z"/>
</g>
</svg>
