<?xml version="1.0" encoding="utf-8"?>
<!-- Generator: Adobe Illustrator 21.0.2, SVG Export Plug-In . SVG Version: 6.00 Build 0)  -->
<svg version="1.1" id="Layer_1" xmlns="http://www.w3.org/2000/svg" xmlns:xlink="http://www.w3.org/1999/xlink" x="0px" y="0px"
	 viewBox="0 0 65 65" style="enable-background:new 0 0 65 65;" xml:space="preserve">
<style type="text/css">
	.st0{fill:#F5BD48;}
	.st1{fill:#FFFFFF;}
</style>
<g>
	<circle class="st0" cx="32.5" cy="32.5" r="32"/>
</g>
<g>
	<path class="st1" d="M42,38.3v7c0,0.2-0.1,0.3-0.2,0.4c-0.1,0.1-0.3,0.2-0.4,0.2H23.6c-0.2,0-0.3-0.1-0.4-0.2
		c-0.1-0.1-0.2-0.3-0.2-0.4v-2.9c0-0.2,0.1-0.3,0.2-0.4c0.1-0.1,0.3-0.2,0.4-0.2h1.8v-7.3h-1.8c-0.2,0-0.3-0.1-0.4-0.2
		c-0.1-0.1-0.2-0.3-0.2-0.4v-2.5c0-0.2,0.1-0.3,0.2-0.4c0.1-0.1,0.3-0.2,0.4-0.2h1.8v-4.3c0-2.2,0.8-4,2.3-5.4
		c1.5-1.4,3.5-2.1,5.9-2.1c2.3,0,4.4,0.8,6.2,2.4c0.1,0.1,0.2,0.2,0.2,0.4s0,0.3-0.1,0.4l-1.9,2.4c-0.1,0.1-0.2,0.2-0.4,0.2
		c-0.2,0-0.3,0-0.4-0.1c-0.1-0.1-0.2-0.2-0.5-0.4c-0.3-0.2-0.7-0.4-1.3-0.6c-0.6-0.2-1.2-0.3-1.7-0.3c-1.1,0-1.9,0.3-2.6,0.9
		c-0.6,0.6-1,1.4-1,2.4v4.1h5.7c0.2,0,0.3,0.1,0.4,0.2c0.1,0.1,0.2,0.3,0.2,0.4v2.5c0,0.2-0.1,0.3-0.2,0.4c-0.1,0.1-0.3,0.2-0.4,0.2
		h-5.7v7.3h7.7v-3.5c0-0.2,0.1-0.3,0.2-0.4c0.1-0.1,0.3-0.2,0.4-0.2h3c0.2,0,0.3,0.1,0.4,0.2C41.9,38,42,38.2,42,38.3z"/>
</g>
</svg>
