<?xml version="1.0" encoding="utf-8"?>
<!-- Generator: Adobe Illustrator 21.0.2, SVG Export Plug-In . SVG Version: 6.00 Build 0)  -->
<svg version="1.1" id="Layer_1" xmlns="http://www.w3.org/2000/svg" xmlns:xlink="http://www.w3.org/1999/xlink" x="0px" y="0px"
	 viewBox="0 0 65 65" style="enable-background:new 0 0 65 65;" xml:space="preserve">
<style type="text/css">
	.st0{fill:#F5BD48;}
	.st1{fill:#FFFFFF;}
</style>
<g>
	<circle class="st0" cx="32.5" cy="32.5" r="32"/>
</g>
<g>
	<path class="st1" d="M45.3,23c0.3,0.3,0.6,0.8,0.9,1.4c0.2,0.6,0.4,1.1,0.4,1.6v21.2c0,0.5-0.2,0.9-0.5,1.3
		c-0.3,0.3-0.8,0.5-1.2,0.5H20.2c-0.5,0-0.9-0.2-1.2-0.5c-0.3-0.3-0.5-0.8-0.5-1.3V17.8c0-0.5,0.2-0.9,0.5-1.3
		c0.3-0.3,0.8-0.5,1.2-0.5h16.3c0.5,0,1,0.1,1.6,0.4c0.6,0.2,1,0.5,1.4,0.9L45.3,23z M44.2,46.6V27.8h-7.6c-0.5,0-0.9-0.2-1.2-0.5
		c-0.3-0.3-0.5-0.8-0.5-1.3v-7.7h-14v28.3H44.2z M25.5,30.7c0-0.2,0.1-0.3,0.2-0.4c0.1-0.1,0.2-0.2,0.4-0.2h12.8
		c0.2,0,0.3,0.1,0.4,0.2c0.1,0.1,0.2,0.3,0.2,0.4v1.2c0,0.2-0.1,0.3-0.2,0.4c-0.1,0.1-0.2,0.2-0.4,0.2H26.1c-0.2,0-0.3-0.1-0.4-0.2
		c-0.1-0.1-0.2-0.3-0.2-0.4V30.7z M38.9,34.9c0.2,0,0.3,0.1,0.4,0.2c0.1,0.1,0.2,0.3,0.2,0.4v1.2c0,0.2-0.1,0.3-0.2,0.4
		c-0.1,0.1-0.2,0.2-0.4,0.2H26.1c-0.2,0-0.3-0.1-0.4-0.2c-0.1-0.1-0.2-0.3-0.2-0.4v-1.2c0-0.2,0.1-0.3,0.2-0.4
		c0.1-0.1,0.2-0.2,0.4-0.2H38.9z M38.9,39.6c0.2,0,0.3,0.1,0.4,0.2c0.1,0.1,0.2,0.3,0.2,0.4v1.2c0,0.2-0.1,0.3-0.2,0.4
		c-0.1,0.1-0.2,0.2-0.4,0.2H26.1c-0.2,0-0.3-0.1-0.4-0.2c-0.1-0.1-0.2-0.3-0.2-0.4v-1.2c0-0.2,0.1-0.3,0.2-0.4
		c0.1-0.1,0.2-0.2,0.4-0.2H38.9z M37.2,18.5v6.9H44c-0.1-0.4-0.3-0.6-0.4-0.8l-5.7-5.8C37.8,18.8,37.5,18.6,37.2,18.5z"/>
</g>
</svg>
