<?xml version="1.0" encoding="utf-8"?>
<!-- Generator: Adobe Illustrator 21.0.2, SVG Export Plug-In . SVG Version: 6.00 Build 0)  -->
<svg version="1.1" id="Layer_1" xmlns="http://www.w3.org/2000/svg" xmlns:xlink="http://www.w3.org/1999/xlink" x="0px" y="0px"
	 viewBox="0 0 27 27" style="enable-background:new 0 0 27 27;" xml:space="preserve">
<style type="text/css">
	.st0{fill:#485DA7;}
</style>
<g>
	<path class="st0" d="M26.5,21c0,0.3-0.1,0.8-0.2,1.3c-0.1,0.5-0.3,1-0.4,1.3c-0.3,0.6-1,1.3-2.3,2c-1.2,0.6-2.3,0.9-3.4,0.9
		c-0.3,0-0.7,0-1-0.1c-0.3,0-0.7-0.1-1.1-0.2c-0.4-0.1-0.7-0.2-0.9-0.3s-0.5-0.2-1-0.4c-0.5-0.2-0.8-0.3-0.9-0.3
		c-1.2-0.4-2.3-0.9-3.2-1.5c-1.6-1-3.2-2.3-4.9-4s-3-3.3-4-4.9c-0.6-0.9-1.1-2-1.5-3.2c0-0.1-0.1-0.4-0.3-0.9s-0.3-0.8-0.4-1
		C1,9.5,0.9,9.2,0.8,8.8C0.7,8.4,0.6,8,0.6,7.7c0-0.3-0.1-0.6-0.1-1c0-1.1,0.3-2.3,0.9-3.4c0.7-1.2,1.3-2,2-2.3
		c0.3-0.1,0.7-0.3,1.3-0.4c0.5-0.1,1-0.2,1.3-0.2c0.2,0,0.3,0,0.4,0.1c0.2,0.1,0.5,0.5,1,1.4c0.1,0.2,0.3,0.6,0.6,1
		c0.2,0.4,0.4,0.8,0.6,1.2c0.2,0.4,0.4,0.7,0.6,1c0,0,0.1,0.2,0.3,0.5c0.2,0.3,0.3,0.5,0.4,0.7C9.9,6.4,10,6.6,10,6.8
		C10,7,9.8,7.3,9.4,7.7c-0.4,0.4-0.7,0.7-1.1,1C7.9,9,7.5,9.3,7.1,9.7c-0.4,0.3-0.5,0.6-0.5,0.8c0,0.1,0,0.2,0.1,0.4
		c0.1,0.2,0.1,0.3,0.2,0.4c0,0.1,0.1,0.2,0.3,0.4c0.1,0.2,0.2,0.3,0.2,0.4c0.9,1.7,2,3.1,3.2,4.3c1.2,1.2,2.7,2.3,4.3,3.2
		c0,0,0.1,0.1,0.4,0.2c0.2,0.1,0.4,0.2,0.4,0.3c0.1,0,0.2,0.1,0.4,0.2c0.2,0.1,0.3,0.1,0.4,0.1c0.2,0,0.5-0.2,0.8-0.5
		c0.3-0.4,0.7-0.7,1-1.1c0.3-0.4,0.6-0.8,1-1.1c0.4-0.4,0.7-0.5,0.9-0.5c0.2,0,0.3,0,0.5,0.1c0.2,0.1,0.4,0.2,0.7,0.4
		c0.3,0.2,0.4,0.3,0.5,0.3c0.3,0.2,0.6,0.4,1,0.6c0.4,0.2,0.7,0.4,1.2,0.6c0.4,0.2,0.8,0.4,1,0.6c0.9,0.4,1.3,0.8,1.4,1
		C26.5,20.7,26.5,20.9,26.5,21z"/>
</g>
</svg>
