<?xml version="1.0" encoding="utf-8"?>
<!-- Generator: Adobe Illustrator 21.0.2, SVG Export Plug-In . SVG Version: 6.00 Build 0)  -->
<svg version="1.1" id="Layer_1" xmlns="http://www.w3.org/2000/svg" xmlns:xlink="http://www.w3.org/1999/xlink" x="0px" y="0px"
	 viewBox="0 0 53 53" style="enable-background:new 0 0 53 53;" xml:space="preserve">
<style type="text/css">
	.st0{fill:#FFFFFF;}
	.st1{fill:#485DA7;}
</style>
<g>
	<path class="st0" d="M26.5,51.5c-13.8,0-25-11.2-25-25s11.2-25,25-25s25,11.2,25,25S40.3,51.5,26.5,51.5z"/>
	<path class="st1" d="M26.5,2.5c13.2,0,24,10.8,24,24s-10.8,24-24,24s-24-10.8-24-24S13.3,2.5,26.5,2.5 M26.5,0.5
		c-14.4,0-26,11.6-26,26s11.6,26,26,26s26-11.6,26-26S40.9,0.5,26.5,0.5L26.5,0.5z"/>
</g>
<g>
	<path class="st1" d="M34.5,27v8.2c0,0.4-0.1,0.7-0.4,1c-0.3,0.3-0.6,0.4-0.9,0.4H19.8c-0.4,0-0.7-0.1-0.9-0.4
		c-0.3-0.3-0.4-0.6-0.4-1V27c0-0.4,0.1-0.7,0.4-1c0.3-0.3,0.6-0.4,0.9-0.4h0.4v-2.7c0-1.7,0.6-3.2,1.8-4.5c1.2-1.2,2.7-1.9,4.4-1.9
		s3.2,0.6,4.4,1.9c1.2,1.3,1.8,2.7,1.8,4.5v2.7h0.4c0.4,0,0.7,0.1,0.9,0.4C34.4,26.3,34.5,26.6,34.5,27z M22.9,25.6h7.1v-2.7
		c0-1-0.3-1.9-1-2.6c-0.7-0.7-1.5-1.1-2.5-1.1s-1.8,0.4-2.5,1.1c-0.7,0.7-1,1.6-1,2.6V25.6z"/>
</g>
</svg>
