<?xml version="1.0" encoding="utf-8"?>
<!-- Generator: Adobe Illustrator 16.0.0, SVG Export Plug-In . SVG Version: 6.00 Build 0)  -->
<!DOCTYPE svg PUBLIC "-//W3C//DTD SVG 1.1//EN" "http://www.w3.org/Graphics/SVG/1.1/DTD/svg11.dtd">
<svg version="1.1" id="Layer_1" xmlns="http://www.w3.org/2000/svg" xmlns:xlink="http://www.w3.org/1999/xlink" x="0px" y="0px"
	 width="16.625px" height="10.5px" viewBox="3.5 2.728 16.625 10.5" enable-background="new 3.5 2.728 16.625 10.5"
	 xml:space="preserve">
<g>
	<path fill="#6D6E71" d="M10.5,11.718c-0.1,0-0.199,0-0.3-0.107L4.6,5.627C4.5,5.52,4.5,5.413,4.5,5.306c0-0.106,0-0.213,0.1-0.32
		L5.2,4.345c0.1-0.107,0.2-0.107,0.3-0.107s0.2,0,0.301,0.107L10.5,9.368l4.7-5.023c0.1-0.107,0.199-0.107,0.3-0.107
		c0.1,0,0.199,0,0.301,0.107l0.6,0.641c0.1,0.107,0.1,0.214,0.1,0.32c0,0.107,0,0.214-0.1,0.321L10.8,11.61
		C10.699,11.718,10.6,11.718,10.5,11.718z"/>
</g>
</svg>
