<?xml version="1.0" encoding="utf-8"?>
<!-- Generator: Adobe Illustrator 21.0.2, SVG Export Plug-In . SVG Version: 6.00 Build 0)  -->
<svg version="1.1" id="Layer_1" xmlns="http://www.w3.org/2000/svg" xmlns:xlink="http://www.w3.org/1999/xlink" x="0px" y="0px"
	 viewBox="0 0 65 65" style="enable-background:new 0 0 65 65;" xml:space="preserve">
<style type="text/css">
	.st0{fill:#F5BD48;}
	.st1{fill:#FFFFFF;}
</style>
<g>
	<circle class="st0" cx="32.5" cy="32.5" r="32"/>
</g>
<g>
	<path class="st1" d="M22.2,20.3c2.1-0.9,4.3-1.3,6.7-1.3s4.7,0.4,6.7,1.3c2.1,0.9,3.7,2.1,4.9,3.6c1.2,1.5,1.8,3.2,1.8,4.9
		c0,1.8-0.6,3.4-1.8,4.9c-1.2,1.5-2.8,2.7-4.9,3.6c-2.1,0.9-4.3,1.3-6.7,1.3c-1.1,0-2.2-0.1-3.3-0.3c-1.6,1.1-3.3,1.9-5.3,2.5
		c-0.5,0.1-1,0.2-1.6,0.3h-0.1c-0.1,0-0.3-0.1-0.4-0.2c-0.1-0.1-0.2-0.2-0.2-0.4c0,0,0-0.1,0-0.1c0,0,0-0.1,0-0.1c0,0,0-0.1,0-0.1
		c0,0,0-0.1,0-0.1c0,0,0-0.1,0.1-0.1c0,0,0.1-0.1,0.1-0.1c0,0,0-0.1,0.1-0.1c0,0,0.1-0.1,0.1-0.1c0.1-0.1,0.2-0.2,0.4-0.5
		c0.2-0.2,0.4-0.4,0.5-0.6c0.1-0.1,0.2-0.3,0.4-0.6c0.2-0.2,0.3-0.5,0.5-0.7c0.1-0.3,0.3-0.5,0.4-0.8c-1.6-0.9-2.8-2.1-3.7-3.4
		c-0.9-1.3-1.3-2.8-1.3-4.3c0-1.8,0.6-3.4,1.8-4.9C18.5,22.4,20.1,21.2,22.2,20.3z M34.3,22.5c-1.7-0.7-3.5-1-5.4-1
		c-1.9,0-3.7,0.3-5.4,1c-1.7,0.7-3,1.6-4,2.7c-1,1.1-1.5,2.4-1.5,3.7c0,1,0.3,2.1,1,3c0.7,1,1.6,1.8,2.8,2.5l1.8,1.1l-0.7,1.6
		c0.4-0.3,0.8-0.5,1.2-0.7l0.8-0.6l1,0.2c1,0.2,2,0.3,2.9,0.3c1.9,0,3.7-0.3,5.4-1c1.7-0.7,3-1.6,4-2.7c1-1.1,1.5-2.4,1.5-3.7
		c0-1.3-0.5-2.5-1.5-3.7C37.3,24,36,23.1,34.3,22.5z M44.5,41.4c0.1,0.3,0.3,0.6,0.4,0.8c0.1,0.3,0.3,0.5,0.5,0.7
		c0.2,0.2,0.3,0.4,0.4,0.6c0.1,0.1,0.3,0.3,0.5,0.6c0.2,0.2,0.4,0.4,0.4,0.5c0,0,0,0,0.1,0.1c0,0,0.1,0.1,0.1,0.1c0,0,0,0.1,0.1,0.1
		c0,0,0.1,0.1,0.1,0.1s0,0.1,0,0.1c0,0,0,0.1,0,0.1c0,0,0,0.1,0,0.1s0,0.1,0,0.1c0,0.2-0.1,0.3-0.2,0.4C46.7,46,46.5,46,46.4,46
		c-0.6-0.1-1.2-0.2-1.6-0.3c-1.9-0.5-3.7-1.3-5.3-2.5c-1.1,0.2-2.3,0.3-3.3,0.3c-3.4,0-6.4-0.8-9-2.5c0.7,0.1,1.3,0.1,1.7,0.1
		c2,0,4-0.3,5.9-0.9s3.5-1.4,5-2.5c1.6-1.2,2.8-2.5,3.6-4.1c0.8-1.5,1.3-3.2,1.3-4.9c0-1-0.1-2-0.4-2.9c1.6,0.9,2.9,2,3.9,3.4
		c0.9,1.4,1.4,2.8,1.4,4.4c0,1.5-0.4,3-1.3,4.3C47.3,39.4,46,40.5,44.5,41.4z"/>
</g>
</svg>
