<?xml version="1.0" standalone="no"?>
<!DOCTYPE svg PUBLIC "-//W3C//DTD SVG 20010904//EN"
 "http://www.w3.org/TR/2001/REC-SVG-20010904/DTD/svg10.dtd">
<svg version="1.0" xmlns="http://www.w3.org/2000/svg"
 width="700.000000pt" height="700.000000pt" viewBox="0 0 700.000000 700.000000"
 preserveAspectRatio="xMidYMid meet">
<metadata>
Created by potrace 1.11, written by Peter Selinger 2001-2013
</metadata>
<g transform="translate(0.000000,700.000000) scale(0.100000,-0.100000)"
fill="#000000" stroke="none">
<path d="M3298 6995 c-2 -1 -41 -5 -88 -9 -101 -7 -239 -24 -295 -36 -22 -5
-60 -12 -85 -15 -24 -4 -47 -8 -51 -10 -3 -2 -21 -7 -40 -10 -102 -17 -421
-115 -529 -162 -19 -8 -44 -19 -55 -23 -133 -54 -365 -173 -500 -258 -235
-147 -421 -296 -625 -501 -167 -168 -170 -171 -313 -351 -68 -86 -211 -303
-269 -410 -20 -36 -47 -86 -61 -112 -39 -71 -135 -291 -174 -398 -35 -94 -109
-340 -118 -389 -3 -14 -7 -37 -10 -51 -18 -79 -44 -223 -50 -275 -4 -33 -9
-69 -11 -80 -18 -98 -25 -570 -10 -715 46 -459 159 -856 357 -1252 37 -76 80
-155 94 -177 14 -23 25 -43 25 -46 0 -6 172 -265 195 -293 7 -9 44 -56 82
-103 57 -72 188 -223 229 -263 79 -78 239 -224 290 -266 97 -79 414 -300 430
-300 2 0 22 -11 43 -24 44 -28 270 -143 346 -175 80 -35 87 -38 145 -60 260
-96 578 -178 772 -197 35 -3 66 -8 69 -9 15 -10 227 -20 409 -20 188 0 341 8
430 21 276 41 497 92 705 164 1059 366 1876 1210 2209 2280 54 175 107 413
121 550 4 30 8 61 11 68 24 74 24 781 -1 821 -1 4 -6 33 -9 66 -3 33 -8 69
-10 80 -2 11 -11 61 -21 110 -82 441 -272 902 -528 1280 -258 382 -588 712
-964 963 -367 246 -801 429 -1220 517 -99 20 -244 43 -393 60 -54 7 -526 16
-532 10z"/>
</g>
</svg>
