<?xml version="1.0" encoding="utf-8"?>
<!-- Generator: Adobe Illustrator 21.0.2, SVG Export Plug-In . SVG Version: 6.00 Build 0)  -->
<svg version="1.1" id="Layer_1" xmlns="http://www.w3.org/2000/svg" xmlns:xlink="http://www.w3.org/1999/xlink" x="0px" y="0px"
	 viewBox="0 0 76 76" style="enable-background:new 0 0 76 76;" xml:space="preserve">
<style type="text/css">
	.st0{fill:#F5BD48;}
</style>
<path class="st0" d="M74.7,69.3c-5.4,2.2-10.7,3.2-16,4.3c-5.2,0.8-10.5,1.6-15.6,1.8c-5.2,0.3-10.3,0.3-15.4,0.1
	c-5.1-0.2-10.2-0.7-15.2-1.4l-0.1,0c-7.5-1-12.7-7.8-11.8-15.2c0-0.2,0.1-0.5,0.1-0.7c0.9-4.9,1.9-9.9,3.2-14.7
	c1.3-4.9,2.8-9.7,4.6-14.5c1.8-4.8,4-9.5,6.3-14.2c2.6-4.7,5.1-9.3,8.8-13.8l0.2-0.3c0.3-0.3,0.7-0.4,1-0.1c0.2,0.2,0.3,0.4,0.3,0.7
	c-1.4,10-2.9,19.9-4.5,29.8l-4.8,29.8L14.5,59l30.2,4.3c10.1,1.4,20.1,2.9,30.2,4.6c0.4,0.1,0.7,0.4,0.6,0.8c0,0.3-0.2,0.5-0.4,0.5
	L74.7,69.3z"/>
</svg>
