<?xml version="1.0" encoding="utf-8"?>
<!-- Generator: Adobe Illustrator 21.0.2, SVG Export Plug-In . SVG Version: 6.00 Build 0)  -->
<svg version="1.1" id="Layer_1" xmlns="http://www.w3.org/2000/svg" xmlns:xlink="http://www.w3.org/1999/xlink" x="0px" y="0px"
	 viewBox="0 0 10 12" style="enable-background:new 0 0 10 12;" xml:space="preserve">
<style type="text/css">
	.st0{fill:#6D6E71;}
</style>
<g>
	<path class="st0" d="M9.5,6.2v4.5c0,0.2-0.1,0.4-0.2,0.5c-0.1,0.1-0.3,0.2-0.5,0.2H1.2c-0.2,0-0.4-0.1-0.5-0.2
		c-0.1-0.1-0.2-0.3-0.2-0.5V6.2c0-0.2,0.1-0.4,0.2-0.5C0.9,5.6,1,5.5,1.2,5.5h0.2V4c0-1,0.3-1.8,1-2.5s1.5-1,2.5-1
		c1,0,1.8,0.3,2.5,1s1,1.5,1,2.5v1.5h0.2c0.2,0,0.4,0.1,0.5,0.2C9.4,5.9,9.5,6,9.5,6.2z M3,5.5h4V4c0-0.6-0.2-1-0.6-1.4
		C6,2.2,5.6,2,5,2C4.4,2,4,2.2,3.6,2.6S3,3.4,3,4V5.5z"/>
</g>
</svg>
