<?xml version="1.0" encoding="utf-8"?>
<!-- Generator: Adobe Illustrator 21.0.2, SVG Export Plug-In . SVG Version: 6.00 Build 0)  -->
<svg version="1.1" id="Layer_1" xmlns="http://www.w3.org/2000/svg" xmlns:xlink="http://www.w3.org/1999/xlink" x="0px" y="0px"
	 viewBox="0 0 13 8" style="enable-background:new 0 0 13 8;" xml:space="preserve">
<style type="text/css">
	.st0{fill:#6D6E71;}
</style>
<g>
	<path class="st0" d="M6.5,7.5c-0.1,0-0.2,0-0.3-0.1L0.6,1.8C0.5,1.7,0.5,1.6,0.5,1.5c0-0.1,0-0.2,0.1-0.3l0.6-0.6
		c0.1-0.1,0.2-0.1,0.3-0.1c0.1,0,0.2,0,0.3,0.1l4.7,4.7l4.7-4.7c0.1-0.1,0.2-0.1,0.3-0.1s0.2,0,0.3,0.1l0.6,0.6
		c0.1,0.1,0.1,0.2,0.1,0.3c0,0.1,0,0.2-0.1,0.3L6.8,7.4C6.7,7.5,6.6,7.5,6.5,7.5z"/>
</g>
</svg>
